<?xml version="1.0" encoding="UTF-8"?>
<svg id="LOGO" xmlns="http://www.w3.org/2000/svg" viewBox="0 0 1144.33 544.7">
  <defs>
    <style>
      .cls-1 {
        fill: #2f4077;
      }

      .cls-2 {
        fill: #ffca00;
      }

      .cls-3 {
        fill: #417dc4;
      }
    </style>
  </defs>
  <g>
    <rect class="cls-2" x="945.98" y="136.3" width="36.54" height="124.2"/>
    <rect class="cls-3" x="896.35" y="183.95" width="36.54" height="76.54"/>
    <polygon class="cls-1" points="846.72 297.78 849.44 297.78 883.26 260.5 883.26 161.48 846.72 161.48 846.72 297.78"/>
  </g>
  <path d="M161.81,183.9h78.31c63.21,0,105.92,45.84,105.92,99.66s-42.71,99.66-105.92,99.66h-78.31v-199.32ZM202.24,220.63v125.86h38.44c37.02,0,63.78-27.62,63.78-62.93s-26.77-62.93-63.78-62.93h-38.44ZM387.89,183.9h116.18v33.6h-75.74v47.27h64.35v33.6h-64.35v51.25h75.74v33.6h-116.18v-199.32ZM565.29,328.55c11.96,15.38,27.9,24.49,44.13,24.49s25.63-8.54,25.63-22.78c0-36.73-90.55-26.77-90.55-94.25,0-31.61,26.2-57.8,64.35-57.8,29.9,0,52.68,13.38,69.76,33.6l-29.61,26.77c-11.67-15.09-24.77-25.06-39.86-25.06-14.24,0-23.63,9.11-23.63,21.07,0,36.16,90.55,25.91,90.55,94.25-.57,37.59-29.61,60.08-66.34,60.08-33.6,0-56.1-12.24-73.75-33.31l29.33-27.05ZM721.33,183.9h40.43v162.59h75.74v36.73h-116.18v-199.32Z"/>
</svg>