<?xml version="1.0" encoding="UTF-8"?>
<svg id="LOGO" xmlns="http://www.w3.org/2000/svg" version="1.1" viewBox="0 0 1181.39 544.7">
  <!-- Generator: Adobe Illustrator 29.1.0, SVG Export Plug-In . SVG Version: 2.1.0 Build 142)  -->
  <defs>
    <style>
      .st0 {
        fill: #2f4077;
      }

      .st1 {
        fill: #fbd8ab;
      }

      .st2 {
        fill: #ce70cc;
      }
    </style>
  </defs>
  <g>
    <path d="M161.81,183.9h78.3c63.21,0,105.92,45.84,105.92,99.66s-42.71,99.66-105.92,99.66h-78.3v-199.32ZM202.24,220.63v125.86h38.44c37.02,0,63.78-27.62,63.78-62.93s-26.77-62.93-63.78-62.93h-38.44Z"/>
    <path d="M387.89,183.9h116.18v33.6h-75.74v47.27h64.35v33.6h-64.35v51.25h75.74v33.6h-116.18v-199.32Z"/>
    <path d="M553.9,183.9h65.78c43.85,0,70.62,22.5,70.62,59.51s-26.77,59.23-70.62,59.23h-25.34v80.58h-40.43v-199.32ZM594.33,217.5v51.54h27.05c17.08,0,27.33-9.96,27.33-26.2,0-15.09-10.25-25.34-27.33-25.34h-27.05Z"/>
    <path d="M740.11,328.55c11.96,15.38,27.9,24.49,44.13,24.49s25.63-8.54,25.63-22.78c0-36.73-90.55-26.77-90.55-94.25,0-31.61,26.2-57.8,64.35-57.8,29.9,0,52.68,13.38,69.76,33.6l-29.61,26.77c-11.67-15.09-24.77-25.06-39.86-25.06-14.24,0-23.63,9.11-23.63,21.07,0,36.16,90.55,25.91,90.55,94.25-.57,37.59-29.61,60.08-66.35,60.08-33.6,0-56.09-12.24-73.75-33.32l29.33-27.05Z"/>
  </g>
  <g>
    <rect class="st1" x="983.04" y="136.3" width="36.54" height="124.2"/>
    <rect class="st2" x="933.41" y="183.95" width="36.54" height="76.54"/>
    <polygon class="st0" points="883.78 297.78 886.5 297.78 920.32 260.5 920.32 161.48 883.78 161.48 883.78 297.78"/>
  </g>
</svg>