<?xml version="1.0" encoding="UTF-8"?>
<svg id="LOGO" xmlns="http://www.w3.org/2000/svg" version="1.1" viewBox="0 0 1303.12 544.69">
  <!-- Generator: Adobe Illustrator 29.1.0, SVG Export Plug-In . SVG Version: 2.1.0 Build 142)  -->
  <defs>
    <style>
      .st0 {
        fill: #2f4077;
      }

      .st1 {
        fill: #ff732c;
      }

      .st2 {
        fill: #417dc4;
      }
    </style>
  </defs>
  <path d="M182.95,328.54c11.96,15.38,27.91,24.49,44.14,24.49s25.63-8.54,25.63-22.78c0-36.73-90.55-26.77-90.55-94.25,0-31.61,26.2-57.8,64.35-57.8,29.9,0,52.68,13.38,69.76,33.6l-29.61,26.77c-11.67-15.09-24.77-25.06-39.86-25.06-14.24,0-23.63,9.11-23.63,21.07,0,36.16,90.55,25.91,90.55,94.25-.57,37.59-29.61,60.08-66.35,60.08-33.6,0-56.09-12.24-73.75-33.32l29.33-27.05ZM348.39,328.54c11.96,15.38,27.91,24.49,44.14,24.49s25.63-8.54,25.63-22.78c0-36.73-90.55-26.77-90.55-94.25,0-31.61,26.2-57.8,64.35-57.8,29.9,0,52.68,13.38,69.76,33.6l-29.61,26.77c-11.67-15.09-24.77-25.06-39.86-25.06-14.24,0-23.63,9.11-23.63,21.07,0,36.16,90.55,25.91,90.55,94.25-.57,37.59-29.61,60.08-66.35,60.08-33.6,0-56.09-12.24-73.75-33.32l29.33-27.05ZM504.43,183.89h50.4l48.69,83.71,48.69-83.71h50.4v199.32h-40.43v-142.94l-44.42,74.6h-28.47l-44.42-74.6v142.94h-40.43v-199.32ZM772.37,328.54c11.96,15.38,27.91,24.49,44.14,24.49s25.63-8.54,25.63-22.78c0-36.73-90.55-26.77-90.55-94.25,0-31.61,26.2-57.8,64.35-57.8,29.9,0,52.68,13.38,69.76,33.6l-29.61,26.77c-11.67-15.09-24.77-25.06-39.86-25.06-14.24,0-23.63,9.11-23.63,21.07,0,36.16,90.55,25.91,90.55,94.25-.57,37.59-29.61,60.08-66.35,60.08-33.6,0-56.09-12.24-73.75-33.32l29.33-27.05ZM928.41,183.89h40.43v199.32h-40.43v-199.32Z"/>
  <g>
    <rect class="st1" x="1103.97" y="136.3" width="36.54" height="124.2"/>
    <rect class="st2" x="1054.34" y="183.95" width="36.54" height="76.54"/>
    <polygon class="st0" points="1004.71 297.78 1007.43 297.78 1041.25 260.5 1041.25 161.48 1004.71 161.48 1004.71 297.78"/>
  </g>
</svg>