<?xml version="1.0" encoding="UTF-8"?>
<svg id="LOGO" xmlns="http://www.w3.org/2000/svg" version="1.1" viewBox="0 0 1374.63 700.64">
  <!-- Generator: Adobe Illustrator 29.1.0, SVG Export Plug-In . SVG Version: 2.1.0 Build 142)  -->
  <defs>
    <style>
      .st0 {
        fill: #000091;
      }

      .st1 {
        fill: #34bab5;
      }

      .st2 {
        fill: #e1000f;
      }
    </style>
  </defs>
  <g>
    <path d="M161.81,183.9h78.3c63.21,0,105.92,45.84,105.92,99.66s-42.71,99.66-105.92,99.66h-78.3v-199.32ZM202.24,220.63v125.86h38.44c37.02,0,63.78-27.62,63.78-62.93s-26.77-62.93-63.78-62.93h-38.44Z"/>
    <path d="M396.72,328.55c11.96,15.38,27.91,24.49,44.14,24.49s25.63-8.54,25.63-22.78c0-36.73-90.55-26.77-90.55-94.25,0-31.61,26.2-57.8,64.35-57.8,29.9,0,52.68,13.38,69.76,33.6l-29.61,26.77c-11.67-15.09-24.77-25.06-39.86-25.06-14.24,0-23.63,9.11-23.63,21.07,0,36.16,90.55,25.91,90.55,94.25-.57,37.59-29.61,60.08-66.34,60.08-33.6,0-56.09-12.24-73.75-33.32l29.33-27.05Z"/>
    <path d="M552.76,183.9h116.18v33.6h-75.74v47.27h64.35v33.6h-64.35v51.25h75.74v33.6h-116.18v-199.32Z"/>
    <path d="M855.16,323.71l31.89,24.49c-18.22,24.77-47.84,40.72-84,40.72-62.93,0-105.92-48.41-105.92-105.36s43-105.35,105.92-105.35c36.16,0,65.78,16.23,84,40.43l-31.89,24.77c-11.39-16.23-29.33-27.33-52.11-27.33-37.59,0-64.35,29.33-64.35,67.48s26.77,67.48,64.35,67.48c22.78,0,40.72-11.1,52.11-27.33Z"/>
    <path d="M924.92,183.9h116.18v33.6h-75.74v47.27h64.35v33.6h-64.35v51.25h75.74v33.6h-116.18v-199.32Z"/>
  </g>
  <path d="M164.39,453.96c3.01,3.88,6.51,5.95,10.59,5.95,4.89,0,7.7-2.95,7.7-6.95,0-9.9-20.79-7.77-20.79-22.24,0-6.51,5.39-11.84,13.03-11.84,6.14,0,10.65,2.82,13.91,7.14l-4.45,3.88c-2.57-3.7-5.64-5.76-9.4-5.76-4.32,0-7.08,2.69-7.08,6.45,0,9.83,20.73,7.58,20.73,22.17,0,7.58-5.83,12.4-13.59,12.4-6.45,0-11.21-2.44-15.03-7.2l4.38-4.01ZM199.79,437.23h-5.95v-4.82h5.95v-7.89h5.39v7.89h10.96v4.82h-10.96v16.16c0,4.95,2.5,6.33,6.33,6.33,2.07,0,3.51-.25,4.7-.75v4.76c-1.5.63-3.2.88-5.45.88-7.02,0-10.96-3.51-10.96-11.21v-16.16ZM222.47,456.02c0-4.76,3.63-8.14,10.34-9.27l10.65-1.75v-2.19c0-4.38-3.13-6.89-7.64-6.89-3.63,0-6.58,1.69-8.52,4.38l-4.01-3.07c2.76-3.76,7.2-6.08,12.71-6.08,8.02,0,12.78,4.7,12.78,11.65v21.17h-5.32v-4.01c-2.38,3.07-6.51,4.88-10.58,4.88-6.2,0-10.4-3.45-10.4-8.83ZM233.74,460.47c4.2,0,7.64-2,9.71-5.39v-6.2l-9.33,1.57c-4.32.75-6.26,2.69-6.26,5.39s2.19,4.63,5.89,4.63ZM261.3,437.23h-5.95v-4.82h5.95v-7.89h5.39v7.89h10.96v4.82h-10.96v16.16c0,4.95,2.5,6.33,6.33,6.33,2.07,0,3.51-.25,4.7-.75v4.76c-1.5.63-3.2.88-5.45.88-7.02,0-10.96-3.51-10.96-11.21v-16.16ZM284.73,420.45c0-2,1.69-3.7,3.76-3.7s3.7,1.69,3.7,3.7-1.63,3.76-3.7,3.76-3.76-1.69-3.76-3.76ZM285.8,432.41h5.32v31.57h-5.32v-31.57ZM302.52,456.46c2.19,2.76,4.82,4.32,8.02,4.32,3.51,0,5.51-2.13,5.51-4.89,0-7.08-15.79-4.57-15.79-15.72,0-4.95,4.2-9.02,10.27-9.02,4.51,0,8.39,2.13,10.59,5.2l-3.7,3.13c-1.69-2.38-4.07-3.88-6.83-3.88-3.38,0-5.2,2-5.2,4.45,0,7.08,15.85,4.82,15.85,15.6-.06,5.89-4.76,9.58-10.65,9.58-5.01,0-8.96-2-11.84-5.58l3.76-3.19ZM331.97,437.23h-5.95v-4.82h5.95v-7.89h5.39v7.89h10.96v4.82h-10.96v16.16c0,4.95,2.51,6.33,6.33,6.33,2.07,0,3.51-.25,4.7-.75v4.76c-1.5.63-3.19.88-5.45.88-7.02,0-10.96-3.51-10.96-11.21v-16.16ZM355.4,420.45c0-2,1.69-3.7,3.76-3.7s3.7,1.69,3.7,3.7-1.63,3.76-3.7,3.76-3.76-1.69-3.76-3.76ZM356.46,432.41h5.32v31.57h-5.32v-31.57ZM386.59,431.16c4.7,0,8.39,1.82,11.21,5.07v-3.82h5.32v46.98h-5.32v-19.23c-2.82,3.26-6.51,5.07-11.21,5.07-9.9,0-16.22-7.83-16.22-17.04s6.33-17.04,16.22-17.04ZM387.15,460.22c4.45,0,8.27-2.13,10.65-5.89v-12.28c-2.44-3.82-6.26-5.89-10.65-5.89-6.64,0-11.21,5.32-11.21,12.03s4.57,12.03,11.21,12.03ZM436.39,432.41h5.32v17.85c0,9.46-5.45,14.97-14.03,14.97s-13.97-5.51-13.97-14.97v-17.85h5.32v18.04c0,6.2,3.32,9.77,8.71,9.77s8.64-3.57,8.64-9.77v-18.04ZM466.77,465.23c-10.65,0-17.23-7.83-17.23-17.04s6.14-17.04,15.91-17.04c8.58,0,14.16,6.01,14.16,13.78,0,1.25-.19,2.44-.38,3.32h-24.24c.19,7.58,5.01,12.15,11.78,12.15,4.07,0,7.52-1.88,9.58-4.7l3.95,3.07c-2.94,3.95-7.64,6.45-13.53,6.45ZM455.37,444.19h18.92c-.19-4.63-3.38-8.52-8.96-8.52-5.2,0-8.83,3.07-9.96,8.52ZM505.55,432.41h5.32v3.76c2.82-3.19,6.51-5.01,11.21-5.01,9.9,0,16.22,7.83,16.22,17.04s-6.33,17.04-16.22,17.04c-4.7,0-8.39-1.82-11.21-5.01v19.17h-5.32v-46.98ZM510.87,442.06v12.28c2.44,3.82,6.26,5.89,10.59,5.89,6.7,0,11.28-5.32,11.28-12.03s-4.57-12.03-11.28-12.03c-4.38,0-8.21,2.13-10.59,5.89ZM568.88,432.41h5.32v17.85c0,9.46-5.45,14.97-14.03,14.97s-13.97-5.51-13.97-14.97v-17.85h5.32v18.04c0,6.2,3.32,9.77,8.71,9.77s8.64-3.57,8.64-9.77v-18.04ZM601.26,465.23c-4.7,0-8.39-1.82-11.21-5.01v3.76h-5.32v-46.98h5.32v19.17c2.82-3.19,6.51-5.01,11.21-5.01,9.9,0,16.22,7.83,16.22,17.04s-6.33,17.04-16.22,17.04ZM590.05,441.99v12.4c2.44,3.76,6.26,5.83,10.59,5.83,6.7,0,11.27-5.32,11.27-12.03s-4.57-12.03-11.27-12.03c-4.38,0-8.27,2.13-10.59,5.83ZM626.14,417h5.32v46.98h-5.32v-46.98ZM641.67,420.45c0-2,1.69-3.7,3.76-3.7s3.7,1.69,3.7,3.7-1.63,3.76-3.7,3.76-3.76-1.69-3.76-3.76ZM642.74,432.41h5.32v31.57h-5.32v-31.57ZM672.87,431.16c4.7,0,8.39,1.82,11.21,5.07v-3.82h5.32v46.98h-5.32v-19.23c-2.82,3.26-6.51,5.07-11.21,5.07-9.9,0-16.22-7.83-16.22-17.04s6.33-17.04,16.22-17.04ZM673.43,460.22c4.45,0,8.27-2.13,10.65-5.89v-12.28c-2.44-3.82-6.26-5.89-10.65-5.89-6.64,0-11.21,5.32-11.21,12.03s4.57,12.03,11.21,12.03ZM722.67,432.41h5.32v17.85c0,9.46-5.45,14.97-14.03,14.97s-13.97-5.51-13.97-14.97v-17.85h5.32v18.04c0,6.2,3.32,9.77,8.71,9.77s8.64-3.57,8.64-9.77v-18.04ZM753.05,465.23c-10.65,0-17.23-7.83-17.23-17.04s6.14-17.04,15.91-17.04c8.58,0,14.16,6.01,14.16,13.78,0,1.25-.19,2.44-.38,3.32h-24.24c.19,7.58,5.01,12.15,11.78,12.15,4.07,0,7.52-1.88,9.58-4.7l3.95,3.07c-2.94,3.95-7.64,6.45-13.53,6.45ZM741.65,444.19h18.92c-.19-4.63-3.38-8.52-8.96-8.52-5.2,0-8.83,3.07-9.96,8.52ZM175.54,506.33c4.7,0,8.39,1.82,11.21,5.01v-19.17h5.32v46.98h-5.32v-3.76c-2.82,3.2-6.51,5.01-11.21,5.01-9.9,0-16.22-7.83-16.22-17.04s6.33-17.04,16.22-17.04ZM176.17,535.39c4.38,0,8.27-2.13,10.58-5.82v-12.4c-2.44-3.76-6.26-5.83-10.58-5.83-6.7,0-11.21,5.32-11.21,12.03s4.51,12.03,11.21,12.03ZM225.28,507.58h5.32v17.85c0,9.46-5.45,14.97-14.03,14.97s-13.97-5.51-13.97-14.97v-17.85h5.32v18.04c0,6.2,3.32,9.77,8.71,9.77s8.64-3.57,8.64-9.77v-18.04ZM281.6,530.76l4.2,3.2c-2.94,3.95-7.52,6.45-13.28,6.45-10.46,0-17.16-7.83-17.16-17.04s6.7-17.04,17.16-17.04c5.7,0,10.34,2.57,13.28,6.45l-4.2,3.19c-1.94-2.76-5.14-4.64-9.08-4.64-6.76,0-11.59,5.32-11.59,12.03s4.82,12.03,11.65,12.03c3.88,0,7.08-1.88,9.02-4.63ZM323.38,523.37c0,9.21-6.95,17.04-17.1,17.04s-17.1-7.83-17.1-17.04,6.89-17.04,17.1-17.04,17.1,7.83,17.1,17.04ZM317.74,523.37c0-6.58-4.82-12.03-11.4-12.03s-11.59,5.45-11.59,12.03,4.82,12.03,11.59,12.03,11.4-5.51,11.4-12.03ZM331.97,507.58h5.32v3.45c2.38-2.76,5.51-4.7,9.9-4.7s8.33,2.07,10.27,6.08c2.5-3.45,5.83-6.08,11.27-6.08,6.77,0,11.71,4.51,11.71,13.09v19.73h-5.32v-19.54c0-5.26-2.94-8.27-7.45-8.27-4.01,0-6.83,2.26-8.89,5.95.06.69.12,1.38.12,2.13v19.73h-5.32v-19.54c0-5.26-2.88-8.27-7.45-8.27-4.32,0-7.02,2.69-8.83,5.95v21.86h-5.32v-31.57ZM391.16,507.58h5.32v3.45c2.38-2.76,5.51-4.7,9.9-4.7s8.33,2.07,10.27,6.08c2.5-3.45,5.82-6.08,11.27-6.08,6.77,0,11.71,4.51,11.71,13.09v19.73h-5.32v-19.54c0-5.26-2.94-8.27-7.45-8.27-4.01,0-6.83,2.26-8.89,5.95.06.69.12,1.38.12,2.13v19.73h-5.32v-19.54c0-5.26-2.88-8.27-7.45-8.27-4.32,0-7.02,2.69-8.83,5.95v21.86h-5.32v-31.57ZM464.89,540.4c-10.65,0-17.23-7.83-17.23-17.04s6.14-17.04,15.91-17.04c8.58,0,14.16,6.01,14.16,13.78,0,1.25-.19,2.44-.38,3.32h-24.24c.19,7.58,5.01,12.15,11.78,12.15,4.07,0,7.52-1.88,9.58-4.7l3.95,3.07c-2.94,3.95-7.64,6.45-13.53,6.45ZM453.49,519.36h18.92c-.19-4.63-3.38-8.52-8.96-8.52-5.2,0-8.83,3.07-9.96,8.52ZM486.76,507.58h5.32v3.95c2.32-2.76,5.2-4.57,9.21-4.57,1,0,1.94.13,2.69.38v5.2c-.94-.25-1.88-.38-3.13-.38-4.13,0-6.83,2.13-8.77,5.32v21.67h-5.32v-31.57ZM533.3,530.76l4.2,3.2c-2.94,3.95-7.52,6.45-13.28,6.45-10.46,0-17.16-7.83-17.16-17.04s6.7-17.04,17.16-17.04c5.7,0,10.33,2.57,13.28,6.45l-4.2,3.19c-1.94-2.76-5.14-4.64-9.08-4.64-6.76,0-11.59,5.32-11.59,12.03s4.82,12.03,11.65,12.03c3.88,0,7.08-1.88,9.02-4.63ZM558.11,540.4c-10.65,0-17.23-7.83-17.23-17.04s6.14-17.04,15.91-17.04c8.58,0,14.16,6.01,14.16,13.78,0,1.25-.19,2.44-.38,3.32h-24.24c.19,7.58,5.01,12.15,11.78,12.15,4.07,0,7.52-1.88,9.58-4.7l3.95,3.07c-2.94,3.95-7.64,6.45-13.53,6.45ZM546.71,519.36h18.92c-.19-4.63-3.38-8.52-8.96-8.52-5.2,0-8.83,3.07-9.96,8.52ZM611.41,540.4c-10.65,0-17.23-7.83-17.23-17.04s6.14-17.04,15.91-17.04c8.58,0,14.16,6.01,14.16,13.78,0,1.25-.19,2.44-.38,3.32h-24.24c.19,7.58,5.01,12.15,11.78,12.15,4.07,0,7.52-1.88,9.58-4.7l3.95,3.07c-2.94,3.95-7.64,6.45-13.53,6.45ZM600.01,519.36h18.92c-.19-4.63-3.38-8.52-8.96-8.52-5.2,0-8.83,3.07-9.96,8.52ZM628.45,539.15l11.65-16.35-10.77-15.22h6.08l8.21,11.65,8.21-11.65h6.14l-10.84,15.22,11.65,16.35h-6.08l-9.02-12.78-9.02,12.78h-6.2ZM667.42,512.41h-5.95v-4.82h5.95v-7.89h5.39v7.89h10.96v4.82h-10.96v16.16c0,4.95,2.51,6.33,6.33,6.33,2.07,0,3.51-.25,4.7-.75v4.76c-1.5.63-3.19.88-5.45.88-7.02,0-10.96-3.51-10.96-11.21v-16.16ZM705.82,540.4c-10.65,0-17.23-7.83-17.23-17.04s6.14-17.04,15.91-17.04c8.58,0,14.16,6.01,14.16,13.78,0,1.25-.19,2.44-.38,3.32h-24.24c.19,7.58,5.01,12.15,11.78,12.15,4.07,0,7.52-1.88,9.58-4.7l3.95,3.07c-2.94,3.95-7.64,6.45-13.53,6.45ZM694.42,519.36h18.92c-.19-4.63-3.38-8.52-8.96-8.52-5.2,0-8.83,3.07-9.96,8.52ZM702.12,502.57l6.51-10.4h6.01l-7.33,10.4h-5.2ZM727.68,507.58h5.32v3.95c2.32-2.76,5.2-4.57,9.21-4.57,1,0,1.94.13,2.69.38v5.2c-.94-.25-1.88-.38-3.13-.38-4.13,0-6.83,2.13-8.77,5.32v21.67h-5.32v-31.57ZM751.49,495.62c0-2,1.69-3.7,3.76-3.7s3.7,1.69,3.7,3.7-1.63,3.76-3.7,3.76-3.76-1.69-3.76-3.76ZM752.55,507.58h5.32v31.57h-5.32v-31.57ZM783.68,540.4c-10.65,0-17.23-7.83-17.23-17.04s6.14-17.04,15.91-17.04c8.58,0,14.16,6.01,14.16,13.78,0,1.25-.19,2.44-.38,3.32h-24.24c.19,7.58,5.01,12.15,11.78,12.15,4.07,0,7.52-1.88,9.58-4.7l3.95,3.07c-2.94,3.95-7.64,6.45-13.53,6.45ZM772.28,519.36h18.92c-.19-4.63-3.38-8.52-8.96-8.52-5.2,0-8.83,3.07-9.96,8.52ZM827.03,507.58h5.32v17.85c0,9.46-5.45,14.97-14.03,14.97s-13.97-5.51-13.97-14.97v-17.85h5.32v18.04c0,6.2,3.32,9.77,8.71,9.77s8.64-3.57,8.64-9.77v-18.04ZM842.88,507.58h5.32v3.95c2.32-2.76,5.2-4.57,9.21-4.57,1,0,1.94.13,2.69.38v5.2c-.94-.25-1.88-.38-3.13-.38-4.13,0-6.83,2.13-8.77,5.32v21.67h-5.32v-31.57Z"/>
  <g>
    <rect class="st2" x="1176.28" y="136.3" width="36.54" height="124.2"/>
    <rect class="st0" x="1126.65" y="183.95" width="36.54" height="76.54"/>
    <polygon class="st1" points="1077.02 297.78 1079.74 297.78 1113.56 260.5 1113.56 161.48 1077.02 161.48 1077.02 297.78"/>
  </g>
</svg>