<svg xmlns="http://www.w3.org/2000/svg" version="1.0" xml:space="preserve" width="155.8" height="109.2"><path style="fill:#5b8dc9;fill-opacity:1" d="M154.3 17.5c-1.8-6.7-7.1-12-13.8-13.8C128.4.4 79.7.4 79.7.4S31 .5 18.9 3.8c-6.7 1.8-12 7.1-13.8 13.8C1.9 29.7 1.9 55 1.9 55s0 25.3 3.3 37.5c1.8 6.7 7.1 12 13.8 13.8 12.1 3.3 60.8 3.3 60.8 3.3s48.7 0 60.8-3.3c6.7-1.8 12-7.1 13.8-13.8 3.3-12.1 3.3-37.5 3.3-37.5s-.1-25.3-3.4-37.5z" transform="translate(-1.9 -.4)"/><path style="fill:#fff" d="M64.2 31.6v46.8L104.6 55z" transform="translate(-1.9 -.4)"/></svg>