<?xml version="1.0" encoding="UTF-8"?>
<svg id="LOGO" xmlns="http://www.w3.org/2000/svg" version="1.1" viewBox="0 0 1240.21 678.23">
  <!-- Generator: Adobe Illustrator 29.1.0, SVG Export Plug-In . SVG Version: 2.1.0 Build 142)  -->
  <defs>
    <style>
      .st0 {
        fill: #3558a2;
      }

      .st1 {
        fill: #ce614a;
      }

      .st2 {
        fill: #009099;
      }
    </style>
  </defs>
  <g>
    <path d="M161.81,161.48h78.3c63.21,0,105.92,45.84,105.92,99.66s-42.71,99.66-105.92,99.66h-78.3v-199.32ZM202.24,198.21v125.86h38.44c37.02,0,63.78-27.62,63.78-62.93s-26.77-62.93-63.78-62.93h-38.44Z"/>
    <path d="M380.2,217.29h36.16v14.24c9.4-9.68,21.64-17.08,37.87-17.08,4.84,0,9.11.85,12.53,1.99v35.59c-4.56-1.14-9.4-1.99-15.95-1.99-17.65,0-29.04,9.68-34.45,18.79v91.97h-36.16v-143.51Z"/>
    <path d="M559.31,366.5c-50.97,0-79.73-35.59-79.73-77.45s26.77-77.45,73.75-77.45c39.86,0,66.06,27.05,66.06,64.64,0,7.97-1.14,15.38-2.28,20.22h-100.51c3.42,26.77,19.93,37.59,42.43,37.59,15.66,0,29.33-6.83,37.02-17.08l25.91,20.5c-13.38,17.94-35.59,29.04-62.64,29.04ZM517.73,270.25h66.06c-.57-14.52-11.1-29.04-31.32-29.04-18.51,0-30.75,10.25-34.74,29.04Z"/>
    <path d="M723.03,366.5c-50.97,0-79.73-35.59-79.73-77.45s26.77-77.45,73.75-77.45c39.86,0,66.06,27.05,66.06,64.64,0,7.97-1.14,15.38-2.28,20.22h-100.51c3.42,26.77,19.93,37.59,42.43,37.59,15.66,0,29.33-6.83,37.02-17.08l25.91,20.5c-13.38,17.94-35.59,29.04-62.64,29.04ZM681.46,270.25h66.06c-.57-14.52-11.1-29.04-31.32-29.04-18.51,0-30.75,10.25-34.74,29.04Z"/>
    <path d="M827.82,318.38c8.83,11.1,19.36,19.08,33.03,19.08,11.67,0,17.65-6.83,17.65-15.38,0-25.06-68.62-15.66-68.62-66.06,0-25.34,21.36-44.42,51.25-44.42,21.93,0,41.86,10.54,52.11,24.49l-23.92,21.07c-7.4-9.11-16.8-16.51-27.9-16.51s-16.8,6.26-16.8,13.67c0,24.49,68.62,15.95,68.62,65.49-.57,30.18-24.77,46.7-51.82,46.7-25.63,0-43.85-10.25-57.52-26.48l23.92-21.64Z"/>
  </g>
  <path d="M164.34,431.55c3.01,3.88,6.51,5.95,10.59,5.95,4.89,0,7.7-2.94,7.7-6.95,0-9.9-20.8-7.77-20.8-22.24,0-6.51,5.39-11.84,13.03-11.84,6.14,0,10.65,2.82,13.91,7.14l-4.45,3.88c-2.57-3.7-5.64-5.76-9.4-5.76-4.32,0-7.08,2.69-7.08,6.45,0,9.83,20.73,7.58,20.73,22.17,0,7.58-5.83,12.4-13.59,12.4-6.45,0-11.21-2.44-15.03-7.2l4.38-4.01ZM199.73,414.83h-5.95v-4.82h5.95v-7.89h5.39v7.89h10.96v4.82h-10.96v16.16c0,4.95,2.51,6.33,6.33,6.33,2.07,0,3.51-.25,4.7-.75v4.76c-1.5.63-3.19.88-5.45.88-7.02,0-10.96-3.51-10.96-11.21v-16.16ZM222.41,433.62c0-4.76,3.63-8.14,10.33-9.27l10.65-1.75v-2.19c0-4.38-3.13-6.89-7.64-6.89-3.63,0-6.58,1.69-8.52,4.38l-4.01-3.07c2.76-3.76,7.2-6.08,12.72-6.08,8.02,0,12.78,4.7,12.78,11.65v21.17h-5.32v-4.01c-2.38,3.07-6.51,4.89-10.59,4.89-6.2,0-10.4-3.45-10.4-8.83ZM233.68,438.06c4.2,0,7.64-2,9.71-5.39v-6.2l-9.33,1.57c-4.32.75-6.26,2.69-6.26,5.39s2.19,4.63,5.89,4.63ZM261.24,414.83h-5.95v-4.82h5.95v-7.89h5.39v7.89h10.96v4.82h-10.96v16.16c0,4.95,2.51,6.33,6.33,6.33,2.07,0,3.51-.25,4.7-.75v4.76c-1.5.63-3.19.88-5.45.88-7.02,0-10.96-3.51-10.96-11.21v-16.16ZM284.67,398.04c0-2,1.69-3.7,3.76-3.7s3.7,1.69,3.7,3.7-1.63,3.76-3.7,3.76-3.76-1.69-3.76-3.76ZM285.74,410h5.32v31.57h-5.32v-31.57ZM302.46,434.06c2.19,2.76,4.82,4.32,8.02,4.32,3.51,0,5.51-2.13,5.51-4.89,0-7.08-15.78-4.57-15.78-15.72,0-4.95,4.2-9.02,10.27-9.02,4.51,0,8.39,2.13,10.59,5.2l-3.7,3.13c-1.69-2.38-4.07-3.88-6.83-3.88-3.38,0-5.2,2-5.2,4.45,0,7.08,15.85,4.82,15.85,15.6-.06,5.89-4.76,9.58-10.65,9.58-5.01,0-8.96-2-11.84-5.58l3.76-3.19ZM331.91,414.83h-5.95v-4.82h5.95v-7.89h5.39v7.89h10.96v4.82h-10.96v16.16c0,4.95,2.51,6.33,6.33,6.33,2.07,0,3.51-.25,4.7-.75v4.76c-1.5.63-3.19.88-5.45.88-7.02,0-10.96-3.51-10.96-11.21v-16.16ZM355.34,398.04c0-2,1.69-3.7,3.76-3.7s3.7,1.69,3.7,3.7-1.63,3.76-3.7,3.76-3.76-1.69-3.76-3.76ZM356.4,410h5.32v31.57h-5.32v-31.57ZM386.53,408.75c4.7,0,8.39,1.82,11.21,5.07v-3.82h5.32v46.98h-5.32v-19.23c-2.82,3.26-6.51,5.07-11.21,5.07-9.9,0-16.22-7.83-16.22-17.04s6.33-17.04,16.22-17.04ZM387.09,437.81c4.45,0,8.27-2.13,10.65-5.89v-12.28c-2.44-3.82-6.26-5.89-10.65-5.89-6.64,0-11.21,5.32-11.21,12.03s4.57,12.03,11.21,12.03ZM436.33,410h5.32v17.85c0,9.46-5.45,14.97-14.03,14.97s-13.97-5.51-13.97-14.97v-17.85h5.32v18.04c0,6.2,3.32,9.77,8.71,9.77s8.64-3.57,8.64-9.77v-18.04ZM466.71,442.83c-10.65,0-17.23-7.83-17.23-17.04s6.14-17.04,15.91-17.04c8.58,0,14.16,6.01,14.16,13.78,0,1.25-.19,2.44-.38,3.32h-24.24c.19,7.58,5.01,12.15,11.78,12.15,4.07,0,7.52-1.88,9.58-4.7l3.95,3.07c-2.94,3.95-7.64,6.45-13.53,6.45ZM455.31,421.78h18.92c-.19-4.64-3.38-8.52-8.96-8.52-5.2,0-8.83,3.07-9.96,8.52ZM505.49,410h5.32v3.76c2.82-3.2,6.51-5.01,11.21-5.01,9.9,0,16.22,7.83,16.22,17.04s-6.33,17.04-16.22,17.04c-4.7,0-8.39-1.82-11.21-5.01v19.17h-5.32v-46.98ZM510.81,419.65v12.28c2.44,3.82,6.26,5.89,10.59,5.89,6.7,0,11.27-5.32,11.27-12.03s-4.57-12.03-11.27-12.03c-4.38,0-8.21,2.13-10.59,5.89ZM568.82,410h5.32v17.85c0,9.46-5.45,14.97-14.03,14.97s-13.97-5.51-13.97-14.97v-17.85h5.32v18.04c0,6.2,3.32,9.77,8.71,9.77s8.64-3.57,8.64-9.77v-18.04ZM601.21,442.83c-4.7,0-8.39-1.82-11.21-5.01v3.76h-5.32v-46.98h5.32v19.17c2.82-3.2,6.51-5.01,11.21-5.01,9.9,0,16.22,7.83,16.22,17.04s-6.33,17.04-16.22,17.04ZM589.99,419.59v12.4c2.44,3.76,6.26,5.83,10.59,5.83,6.7,0,11.27-5.32,11.27-12.03s-4.57-12.03-11.27-12.03c-4.38,0-8.27,2.13-10.59,5.83ZM626.08,394.59h5.32v46.98h-5.32v-46.98ZM641.61,398.04c0-2,1.69-3.7,3.76-3.7s3.7,1.69,3.7,3.7-1.63,3.76-3.7,3.76-3.76-1.69-3.76-3.76ZM642.68,410h5.32v31.57h-5.32v-31.57ZM672.81,408.75c4.7,0,8.39,1.82,11.21,5.07v-3.82h5.32v46.98h-5.32v-19.23c-2.82,3.26-6.51,5.07-11.21,5.07-9.9,0-16.22-7.83-16.22-17.04s6.33-17.04,16.22-17.04ZM673.37,437.81c4.45,0,8.27-2.13,10.65-5.89v-12.28c-2.44-3.82-6.26-5.89-10.65-5.89-6.64,0-11.21,5.32-11.21,12.03s4.57,12.03,11.21,12.03ZM722.61,410h5.32v17.85c0,9.46-5.45,14.97-14.03,14.97s-13.97-5.51-13.97-14.97v-17.85h5.32v18.04c0,6.2,3.32,9.77,8.71,9.77s8.64-3.57,8.64-9.77v-18.04ZM752.99,442.83c-10.65,0-17.23-7.83-17.23-17.04s6.14-17.04,15.91-17.04c8.58,0,14.16,6.01,14.16,13.78,0,1.25-.19,2.44-.38,3.32h-24.24c.19,7.58,5.01,12.15,11.78,12.15,4.07,0,7.52-1.88,9.58-4.7l3.95,3.07c-2.94,3.95-7.64,6.45-13.53,6.45ZM741.59,421.78h18.92c-.19-4.64-3.38-8.52-8.96-8.52-5.2,0-8.83,3.07-9.96,8.52ZM175.48,483.92c4.7,0,8.39,1.82,11.21,5.01v-19.17h5.32v46.98h-5.32v-3.76c-2.82,3.19-6.51,5.01-11.21,5.01-9.9,0-16.22-7.83-16.22-17.04s6.33-17.04,16.22-17.04ZM176.11,512.99c4.38,0,8.27-2.13,10.59-5.83v-12.4c-2.44-3.76-6.26-5.83-10.59-5.83-6.7,0-11.21,5.32-11.21,12.03s4.51,12.03,11.21,12.03ZM217.77,518c-10.65,0-17.23-7.83-17.23-17.04s6.14-17.04,15.91-17.04c8.58,0,14.16,6.01,14.16,13.78,0,1.25-.19,2.44-.38,3.32h-24.24c.19,7.58,5.01,12.15,11.78,12.15,4.07,0,7.52-1.88,9.58-4.7l3.95,3.07c-2.94,3.95-7.64,6.45-13.53,6.45ZM206.37,496.95h18.92c-.19-4.64-3.38-8.52-8.96-8.52-5.2,0-8.83,3.07-9.96,8.52ZM256.55,469.77h5.32v46.98h-5.32v-46.98ZM271.33,508.79c0-4.76,3.63-8.14,10.34-9.27l10.65-1.75v-2.19c0-4.38-3.13-6.89-7.64-6.89-3.63,0-6.58,1.69-8.52,4.38l-4.01-3.07c2.76-3.76,7.2-6.08,12.72-6.08,8.02,0,12.78,4.7,12.78,11.65v21.17h-5.32v-4.01c-2.38,3.07-6.51,4.89-10.59,4.89-6.2,0-10.4-3.45-10.4-8.83ZM282.6,513.24c4.2,0,7.64-2,9.71-5.39v-6.2l-9.33,1.57c-4.32.75-6.26,2.69-6.26,5.39s2.19,4.63,5.89,4.63ZM325.64,509.23c2.19,2.76,4.82,4.32,8.02,4.32,3.51,0,5.51-2.13,5.51-4.89,0-7.08-15.78-4.57-15.78-15.72,0-4.95,4.2-9.02,10.27-9.02,4.51,0,8.39,2.13,10.59,5.2l-3.7,3.13c-1.69-2.38-4.07-3.88-6.83-3.88-3.38,0-5.2,2-5.2,4.45,0,7.08,15.85,4.82,15.85,15.6-.06,5.89-4.76,9.58-10.65,9.58-5.01,0-8.96-2-11.84-5.58l3.76-3.19ZM351.07,508.79c0-4.76,3.63-8.14,10.33-9.27l10.65-1.75v-2.19c0-4.38-3.13-6.89-7.64-6.89-3.63,0-6.58,1.69-8.52,4.38l-4.01-3.07c2.76-3.76,7.2-6.08,12.72-6.08,8.02,0,12.78,4.7,12.78,11.65v21.17h-5.32v-4.01c-2.38,3.07-6.51,4.89-10.59,4.89-6.2,0-10.4-3.45-10.4-8.83ZM362.35,513.24c4.2,0,7.64-2,9.71-5.39v-6.2l-9.33,1.57c-4.32.75-6.26,2.69-6.26,5.39s2.19,4.63,5.89,4.63ZM388.1,485.18h5.32v3.57c2.57-2.82,5.83-4.82,10.52-4.82,7.08,0,12.34,4.76,12.34,13.72v19.1h-5.32v-18.92c0-5.64-3.19-8.89-8.08-8.89-4.57,0-7.45,2.63-9.46,5.95v21.86h-5.32v-31.57ZM428.81,490h-5.95v-4.82h5.95v-7.89h5.39v7.89h10.96v4.82h-10.96v16.16c0,4.95,2.51,6.33,6.33,6.33,2.07,0,3.51-.25,4.7-.75v4.76c-1.5.63-3.19.88-5.45.88-7.02,0-10.96-3.51-10.96-11.21v-16.16ZM467.21,518c-10.65,0-17.23-7.83-17.23-17.04s6.14-17.04,15.91-17.04c8.58,0,14.16,6.01,14.16,13.78,0,1.25-.19,2.44-.38,3.32h-24.24c.19,7.58,5.01,12.15,11.78,12.15,4.07,0,7.52-1.88,9.58-4.7l3.95,3.07c-2.94,3.95-7.64,6.45-13.53,6.45ZM455.81,496.95h18.92c-.19-4.64-3.38-8.52-8.96-8.52-5.2,0-8.83,3.07-9.96,8.52ZM463.52,480.16l6.51-10.4h6.01l-7.33,10.4h-5.2ZM520.52,518c-10.65,0-17.23-7.83-17.23-17.04s6.14-17.04,15.91-17.04c8.58,0,14.16,6.01,14.16,13.78,0,1.25-.19,2.44-.38,3.32h-24.24c.19,7.58,5.01,12.15,11.78,12.15,4.07,0,7.52-1.88,9.58-4.7l3.95,3.07c-2.94,3.95-7.64,6.45-13.53,6.45ZM509.12,496.95h18.92c-.19-4.64-3.38-8.52-8.96-8.52-5.2,0-8.83,3.07-9.96,8.52ZM544.01,490h-5.95v-4.82h5.95v-7.89h5.39v7.89h10.96v4.82h-10.96v16.16c0,4.95,2.51,6.33,6.33,6.33,2.07,0,3.51-.25,4.7-.75v4.76c-1.5.63-3.19.88-5.45.88-7.02,0-10.96-3.51-10.96-11.21v-16.16ZM598.95,483.92c4.7,0,8.39,1.82,11.21,5.01v-19.17h5.32v46.98h-5.32v-3.76c-2.82,3.19-6.51,5.01-11.21,5.01-9.9,0-16.22-7.83-16.22-17.04s6.33-17.04,16.22-17.04ZM599.58,512.99c4.38,0,8.27-2.13,10.59-5.83v-12.4c-2.44-3.76-6.26-5.83-10.59-5.83-6.7,0-11.21,5.32-11.21,12.03s4.51,12.03,11.21,12.03ZM641.23,518c-10.65,0-17.23-7.83-17.23-17.04s6.14-17.04,15.91-17.04c8.58,0,14.16,6.01,14.16,13.78,0,1.25-.19,2.44-.38,3.32h-24.24c.19,7.58,5.01,12.15,11.78,12.15,4.07,0,7.52-1.88,9.58-4.7l3.95,3.07c-2.94,3.95-7.64,6.45-13.53,6.45ZM629.83,496.95h18.92c-.19-4.64-3.38-8.52-8.96-8.52-5.2,0-8.83,3.07-9.96,8.52ZM663.22,509.23c2.19,2.76,4.82,4.32,8.02,4.32,3.51,0,5.51-2.13,5.51-4.89,0-7.08-15.78-4.57-15.78-15.72,0-4.95,4.2-9.02,10.27-9.02,4.51,0,8.39,2.13,10.59,5.2l-3.7,3.13c-1.69-2.38-4.07-3.88-6.83-3.88-3.38,0-5.2,2-5.2,4.45,0,7.08,15.85,4.82,15.85,15.6-.06,5.89-4.76,9.58-10.65,9.58-5.01,0-8.96-2-11.84-5.58l3.76-3.19ZM707.89,509.23c2.19,2.76,4.82,4.32,8.02,4.32,3.51,0,5.51-2.13,5.51-4.89,0-7.08-15.78-4.57-15.78-15.72,0-4.95,4.2-9.02,10.27-9.02,4.51,0,8.39,2.13,10.59,5.2l-3.7,3.13c-1.69-2.38-4.07-3.88-6.83-3.88-3.38,0-5.2,2-5.2,4.45,0,7.08,15.85,4.82,15.85,15.6-.06,5.89-4.76,9.58-10.65,9.58-5.01,0-8.96-2-11.84-5.58l3.76-3.19ZM766.39,500.96c0,9.21-6.95,17.04-17.1,17.04s-17.1-7.83-17.1-17.04,6.89-17.04,17.1-17.04,17.1,7.83,17.1,17.04ZM760.76,500.96c0-6.58-4.82-12.03-11.4-12.03s-11.59,5.45-11.59,12.03,4.82,12.03,11.59,12.03,11.4-5.51,11.4-12.03ZM774.98,469.77h5.32v46.98h-5.32v-46.98ZM790.52,473.21c0-2,1.69-3.7,3.76-3.7s3.7,1.69,3.7,3.7-1.63,3.76-3.7,3.76-3.76-1.69-3.76-3.76ZM791.58,485.18h5.32v31.57h-5.32v-31.57ZM821.71,483.92c4.7,0,8.39,1.82,11.21,5.01v-19.17h5.32v46.98h-5.32v-3.76c-2.82,3.19-6.51,5.01-11.21,5.01-9.9,0-16.22-7.83-16.22-17.04s6.33-17.04,16.22-17.04ZM822.34,512.99c4.38,0,8.27-2.13,10.59-5.83v-12.4c-2.44-3.76-6.26-5.83-10.59-5.83-6.7,0-11.21,5.32-11.21,12.03s4.51,12.03,11.21,12.03ZM847.65,508.79c0-4.76,3.63-8.14,10.34-9.27l10.65-1.75v-2.19c0-4.38-3.13-6.89-7.64-6.89-3.63,0-6.58,1.69-8.52,4.38l-4.01-3.07c2.76-3.76,7.2-6.08,12.72-6.08,8.02,0,12.78,4.7,12.78,11.65v21.17h-5.32v-4.01c-2.38,3.07-6.51,4.89-10.59,4.89-6.2,0-10.4-3.45-10.4-8.83ZM858.92,513.24c4.2,0,7.64-2,9.71-5.39v-6.2l-9.33,1.57c-4.32.75-6.26,2.69-6.26,5.39s2.19,4.63,5.89,4.63ZM884.67,485.18h5.32v3.95c2.32-2.76,5.2-4.57,9.21-4.57,1,0,1.94.12,2.69.38v5.2c-.94-.25-1.88-.38-3.13-.38-4.13,0-6.83,2.13-8.77,5.32v21.67h-5.32v-31.57ZM908.47,473.21c0-2,1.69-3.7,3.76-3.7s3.7,1.69,3.7,3.7-1.63,3.76-3.7,3.76-3.76-1.69-3.76-3.76ZM909.54,485.18h5.32v31.57h-5.32v-31.57ZM927.95,490h-5.95v-4.82h5.95v-7.89h5.39v7.89h10.96v4.82h-10.96v16.16c0,4.95,2.51,6.33,6.33,6.33,2.07,0,3.51-.25,4.7-.75v4.76c-1.5.63-3.19.88-5.45.88-7.02,0-10.96-3.51-10.96-11.21v-16.16ZM966.35,518c-10.65,0-17.23-7.83-17.23-17.04s6.14-17.04,15.91-17.04c8.58,0,14.16,6.01,14.16,13.78,0,1.25-.19,2.44-.38,3.32h-24.24c.19,7.58,5.01,12.15,11.78,12.15,4.07,0,7.52-1.88,9.58-4.7l3.95,3.07c-2.94,3.95-7.64,6.45-13.53,6.45ZM954.95,496.95h18.92c-.19-4.64-3.38-8.52-8.96-8.52-5.2,0-8.83,3.07-9.96,8.52ZM962.66,480.16l6.51-10.4h6.01l-7.33,10.4h-5.2ZM988.34,509.23c2.19,2.76,4.82,4.32,8.02,4.32,3.51,0,5.51-2.13,5.51-4.89,0-7.08-15.78-4.57-15.78-15.72,0-4.95,4.2-9.02,10.27-9.02,4.51,0,8.39,2.13,10.59,5.2l-3.7,3.13c-1.69-2.38-4.07-3.88-6.83-3.88-3.38,0-5.2,2-5.2,4.45,0,7.08,15.85,4.82,15.85,15.6-.06,5.89-4.76,9.58-10.65,9.58-5.01,0-8.96-2-11.84-5.58l3.76-3.19Z"/>
  <g>
    <rect class="st2" x="1041.86" y="136.4" width="36.54" height="124.2"/>
    <rect class="st0" x="992.23" y="184.05" width="36.54" height="76.54"/>
    <polygon class="st1" points="942.6 297.88 945.32 297.88 979.14 260.6 979.14 161.58 942.6 161.58 942.6 297.88"/>
  </g>
</svg>