<?xml version="1.0" encoding="UTF-8"?>
<svg id="LOGO" xmlns="http://www.w3.org/2000/svg" version="1.1" viewBox="0 0 1379.98 775.87">
  <!-- Generator: Adobe Illustrator 29.1.0, SVG Export Plug-In . SVG Version: 2.1.0 Build 142)  -->
  <defs>
    <style>
      .st0 {
        fill: #46724b;
      }

      .st1 {
        fill: #ff732c;
      }

      .st2 {
        fill: #68a532;
      }
    </style>
  </defs>
  <g>
    <path d="M182.63,328.61c11.96,15.38,27.91,24.49,44.14,24.49s25.63-8.54,25.63-22.78c0-36.73-90.55-26.77-90.55-94.25,0-31.61,26.2-57.8,64.35-57.8,29.9,0,52.68,13.38,69.76,33.6l-29.61,26.77c-11.67-15.09-24.77-25.06-39.86-25.06-14.24,0-23.63,9.11-23.63,21.07,0,36.16,90.55,25.91,90.55,94.25-.57,37.59-29.61,60.08-66.35,60.08-33.6,0-56.09-12.24-73.75-33.32l29.33-27.05Z"/>
    <path d="M338.67,183.96h78.3c63.21,0,105.92,45.84,105.92,99.66s-42.71,99.66-105.92,99.66h-78.3v-199.32ZM379.1,220.69v125.86h38.44c37.02,0,63.78-27.62,63.78-62.93s-26.77-62.93-63.78-62.93h-38.44Z"/>
    <path d="M564.75,183.96h116.18v33.6h-75.74v47.27h64.35v33.6h-64.35v51.25h75.74v33.6h-116.18v-199.32Z"/>
    <path d="M742.15,328.61c11.96,15.38,27.91,24.49,44.14,24.49s25.63-8.54,25.63-22.78c0-36.73-90.55-26.77-90.55-94.25,0-31.61,26.2-57.8,64.35-57.8,29.9,0,52.68,13.38,69.76,33.6l-29.61,26.77c-11.67-15.09-24.77-25.06-39.86-25.06-14.24,0-23.63,9.11-23.63,21.07,0,36.16,90.55,25.91,90.55,94.25-.57,37.59-29.61,60.08-66.35,60.08-33.6,0-56.09-12.24-73.75-33.32l29.33-27.05Z"/>
  </g>
  <path d="M161.63,454.02c3.01,3.88,6.51,5.95,10.59,5.95,4.89,0,7.7-2.94,7.7-6.95,0-9.9-20.8-7.77-20.8-22.24,0-6.51,5.39-11.84,13.03-11.84,6.14,0,10.65,2.82,13.91,7.14l-4.45,3.88c-2.57-3.7-5.64-5.76-9.4-5.76-4.32,0-7.08,2.69-7.08,6.45,0,9.83,20.73,7.58,20.73,22.17,0,7.58-5.83,12.4-13.59,12.4-6.45,0-11.21-2.44-15.03-7.2l4.38-4.01ZM197.02,437.3h-5.95v-4.82h5.95v-7.89h5.39v7.89h10.96v4.82h-10.96v16.16c0,4.95,2.51,6.33,6.33,6.33,2.07,0,3.51-.25,4.7-.75v4.76c-1.5.63-3.19.88-5.45.88-7.02,0-10.96-3.51-10.96-11.21v-16.16ZM219.7,456.09c0-4.76,3.63-8.14,10.33-9.27l10.65-1.75v-2.19c0-4.38-3.13-6.89-7.64-6.89-3.63,0-6.58,1.69-8.52,4.38l-4.01-3.07c2.76-3.76,7.2-6.08,12.71-6.08,8.02,0,12.78,4.7,12.78,11.65v21.17h-5.32v-4.01c-2.38,3.07-6.51,4.89-10.59,4.89-6.2,0-10.4-3.45-10.4-8.83ZM230.98,460.54c4.2,0,7.64-2,9.71-5.39v-6.2l-9.33,1.57c-4.32.75-6.26,2.69-6.26,5.39s2.19,4.64,5.89,4.64ZM258.54,437.3h-5.95v-4.82h5.95v-7.89h5.39v7.89h10.96v4.82h-10.96v16.16c0,4.95,2.51,6.33,6.33,6.33,2.07,0,3.51-.25,4.7-.75v4.76c-1.5.63-3.19.88-5.45.88-7.02,0-10.96-3.51-10.96-11.21v-16.16ZM281.97,420.51c0-2,1.69-3.7,3.76-3.7s3.7,1.69,3.7,3.7-1.63,3.76-3.7,3.76-3.76-1.69-3.76-3.76ZM283.03,432.47h5.32v31.57h-5.32v-31.57ZM299.76,456.53c2.19,2.76,4.82,4.32,8.02,4.32,3.51,0,5.51-2.13,5.51-4.88,0-7.08-15.79-4.57-15.79-15.72,0-4.95,4.2-9.02,10.27-9.02,4.51,0,8.39,2.13,10.59,5.2l-3.7,3.13c-1.69-2.38-4.07-3.88-6.83-3.88-3.38,0-5.2,2-5.2,4.45,0,7.08,15.85,4.82,15.85,15.6-.06,5.89-4.76,9.58-10.65,9.58-5.01,0-8.96-2-11.84-5.57l3.76-3.2ZM329.2,437.3h-5.95v-4.82h5.95v-7.89h5.39v7.89h10.96v4.82h-10.96v16.16c0,4.95,2.51,6.33,6.33,6.33,2.07,0,3.51-.25,4.7-.75v4.76c-1.5.63-3.19.88-5.45.88-7.02,0-10.96-3.51-10.96-11.21v-16.16ZM352.63,420.51c0-2,1.69-3.7,3.76-3.7s3.7,1.69,3.7,3.7-1.63,3.76-3.7,3.76-3.76-1.69-3.76-3.76ZM353.7,432.47h5.32v31.57h-5.32v-31.57ZM383.83,431.22c4.7,0,8.39,1.82,11.21,5.07v-3.82h5.32v46.98h-5.32v-19.23c-2.82,3.26-6.51,5.07-11.21,5.07-9.9,0-16.22-7.83-16.22-17.04s6.33-17.04,16.22-17.04ZM384.39,460.28c4.45,0,8.27-2.13,10.65-5.89v-12.28c-2.44-3.82-6.26-5.89-10.65-5.89-6.64,0-11.21,5.32-11.21,12.03s4.57,12.03,11.21,12.03ZM433.63,432.47h5.32v17.85c0,9.46-5.45,14.97-14.03,14.97s-13.97-5.51-13.97-14.97v-17.85h5.32v18.04c0,6.2,3.32,9.77,8.71,9.77s8.64-3.57,8.64-9.77v-18.04ZM464.01,465.29c-10.65,0-17.23-7.83-17.23-17.04s6.14-17.04,15.91-17.04c8.58,0,14.16,6.01,14.16,13.78,0,1.25-.19,2.44-.38,3.32h-24.24c.19,7.58,5.01,12.15,11.78,12.15,4.07,0,7.52-1.88,9.58-4.7l3.95,3.07c-2.94,3.95-7.64,6.45-13.53,6.45ZM452.61,444.25h18.92c-.19-4.64-3.38-8.52-8.96-8.52-5.2,0-8.83,3.07-9.96,8.52ZM502.79,432.47h5.32v3.76c2.82-3.19,6.51-5.01,11.21-5.01,9.9,0,16.22,7.83,16.22,17.04s-6.33,17.04-16.22,17.04c-4.7,0-8.39-1.82-11.21-5.01v19.17h-5.32v-46.98ZM508.11,442.12v12.28c2.44,3.82,6.26,5.89,10.59,5.89,6.7,0,11.27-5.32,11.27-12.03s-4.57-12.03-11.27-12.03c-4.38,0-8.21,2.13-10.59,5.89ZM566.11,432.47h5.32v17.85c0,9.46-5.45,14.97-14.03,14.97s-13.97-5.51-13.97-14.97v-17.85h5.32v18.04c0,6.2,3.32,9.77,8.71,9.77s8.64-3.57,8.64-9.77v-18.04ZM598.5,465.29c-4.7,0-8.39-1.82-11.21-5.01v3.76h-5.32v-46.98h5.32v19.17c2.82-3.19,6.51-5.01,11.21-5.01,9.9,0,16.22,7.83,16.22,17.04s-6.33,17.04-16.22,17.04ZM587.29,442.06v12.4c2.44,3.76,6.26,5.83,10.59,5.83,6.7,0,11.27-5.32,11.27-12.03s-4.57-12.03-11.27-12.03c-4.38,0-8.27,2.13-10.59,5.83ZM623.37,417.06h5.32v46.98h-5.32v-46.98ZM638.91,420.51c0-2,1.69-3.7,3.76-3.7s3.7,1.69,3.7,3.7-1.63,3.76-3.7,3.76-3.76-1.69-3.76-3.76ZM639.97,432.47h5.32v31.57h-5.32v-31.57ZM670.1,431.22c4.7,0,8.39,1.82,11.21,5.07v-3.82h5.32v46.98h-5.32v-19.23c-2.82,3.26-6.51,5.07-11.21,5.07-9.9,0-16.22-7.83-16.22-17.04s6.33-17.04,16.22-17.04ZM670.67,460.28c4.45,0,8.27-2.13,10.65-5.89v-12.28c-2.44-3.82-6.26-5.89-10.65-5.89-6.64,0-11.21,5.32-11.21,12.03s4.57,12.03,11.21,12.03ZM719.9,432.47h5.32v17.85c0,9.46-5.45,14.97-14.03,14.97s-13.97-5.51-13.97-14.97v-17.85h5.32v18.04c0,6.2,3.32,9.77,8.71,9.77s8.64-3.57,8.64-9.77v-18.04ZM750.29,465.29c-10.65,0-17.23-7.83-17.23-17.04s6.14-17.04,15.91-17.04c8.58,0,14.16,6.01,14.16,13.78,0,1.25-.19,2.44-.38,3.32h-24.24c.19,7.58,5.01,12.15,11.78,12.15,4.07,0,7.52-1.88,9.58-4.7l3.95,3.07c-2.94,3.95-7.64,6.45-13.53,6.45ZM738.89,444.25h18.92c-.19-4.64-3.38-8.52-8.96-8.52-5.2,0-8.83,3.07-9.96,8.52ZM172.78,506.39c4.7,0,8.39,1.82,11.21,5.01v-19.17h5.32v46.98h-5.32v-3.76c-2.82,3.19-6.51,5.01-11.21,5.01-9.9,0-16.22-7.83-16.22-17.04s6.33-17.04,16.22-17.04ZM173.41,535.46c4.38,0,8.27-2.13,10.59-5.83v-12.4c-2.44-3.76-6.26-5.82-10.59-5.82-6.7,0-11.21,5.32-11.21,12.03s4.51,12.03,11.21,12.03ZM215.06,540.47c-10.65,0-17.23-7.83-17.23-17.04s6.14-17.04,15.91-17.04c8.58,0,14.16,6.01,14.16,13.78,0,1.25-.19,2.44-.38,3.32h-24.24c.19,7.58,5.01,12.15,11.78,12.15,4.07,0,7.52-1.88,9.58-4.7l3.95,3.07c-2.94,3.95-7.64,6.45-13.53,6.45ZM203.66,519.42h18.92c-.19-4.64-3.38-8.52-8.96-8.52-5.2,0-8.83,3.07-9.96,8.52ZM253.84,492.24h5.32v46.98h-5.32v-46.98ZM267.81,512.16l5.32-16.79h6.08l-6.45,16.79h-4.95ZM298.19,540.47c-10.65,0-17.23-7.83-17.23-17.04s6.14-17.04,15.91-17.04c8.58,0,14.16,6.01,14.16,13.78,0,1.25-.19,2.44-.38,3.32h-24.24c.19,7.58,5.01,12.15,11.78,12.15,4.07,0,7.52-1.88,9.58-4.7l3.95,3.07c-2.94,3.95-7.64,6.45-13.53,6.45ZM286.79,519.42h18.92c-.19-4.64-3.38-8.52-8.96-8.52-5.2,0-8.83,3.07-9.96,8.52ZM294.5,502.63l6.51-10.4h6.01l-7.33,10.4h-5.2ZM320.06,507.65h5.32v3.57c2.57-2.82,5.83-4.82,10.52-4.82,7.08,0,12.34,4.76,12.34,13.72v19.1h-5.32v-18.92c0-5.64-3.19-8.89-8.08-8.89-4.57,0-7.45,2.63-9.46,5.95v21.86h-5.32v-31.57ZM373.49,540.47c-10.65,0-17.23-7.83-17.23-17.04s6.14-17.04,15.91-17.04c8.58,0,14.16,6.01,14.16,13.78,0,1.25-.19,2.44-.38,3.32h-24.24c.19,7.58,5.01,12.15,11.78,12.15,4.07,0,7.52-1.88,9.58-4.7l3.95,3.07c-2.94,3.95-7.64,6.45-13.53,6.45ZM362.09,519.42h18.92c-.19-4.64-3.38-8.52-8.96-8.52-5.2,0-8.83,3.07-9.96,8.52ZM395.35,507.65h5.32v3.95c2.32-2.76,5.2-4.57,9.21-4.57,1,0,1.94.12,2.69.38v5.2c-.94-.25-1.88-.38-3.13-.38-4.13,0-6.83,2.13-8.77,5.32v21.67h-5.32v-31.57ZM420.66,536.96c-1.44-1.13-2.19-2.82-2.19-4.51,0-2.51,1.31-4.57,3.76-6.14-2.76-2.07-4.38-5.26-4.38-8.77,0-6.08,4.76-11.21,12.28-11.21,2.32,0,4.38.5,6.08,1.32h11.71v4.64h-6.83c.88,1.57,1.31,3.38,1.31,5.26,0,6.01-4.7,11.15-12.28,11.15-1.57,0-3.07-.25-4.38-.63-1.32.94-2.07,2.07-2.07,3.26,0,1.32.69,2.26,2.63,2.26h9.02c8.33,0,12.21,4.07,12.21,9.71,0,6.64-6.64,11.59-16.1,11.59s-15.47-3.63-15.47-9.96c0-3.19,1.57-5.76,4.7-7.96ZM431.37,550.43c6.64,0,10.84-2.63,10.84-6.76,0-3.01-1.69-5.39-7.33-5.39h-10.21c-2.19,1.63-3.51,3.51-3.51,6.01,0,3.82,3.95,6.14,10.21,6.14ZM437.38,517.54c0-3.88-2.63-7.02-7.2-7.02s-7.27,3.13-7.27,7.02,2.57,6.95,7.27,6.95,7.2-3.13,7.2-6.95ZM452.98,495.68c0-2,1.69-3.7,3.76-3.7s3.7,1.69,3.7,3.7-1.63,3.76-3.7,3.76-3.76-1.69-3.76-3.76ZM454.05,507.65h5.32v31.57h-5.32v-31.57ZM485.18,540.47c-10.65,0-17.23-7.83-17.23-17.04s6.14-17.04,15.91-17.04c8.58,0,14.16,6.01,14.16,13.78,0,1.25-.19,2.44-.38,3.32h-24.24c.19,7.58,5.01,12.15,11.78,12.15,4.07,0,7.52-1.88,9.58-4.7l3.95,3.07c-2.94,3.95-7.64,6.45-13.53,6.45ZM473.78,519.42h18.92c-.19-4.64-3.38-8.52-8.96-8.52-5.2,0-8.83,3.07-9.96,8.52ZM503.79,549.24l5.32-16.6h6.08l-6.45,16.6h-4.95ZM554.02,506.39c4.7,0,8.39,1.82,11.21,5.01v-19.17h5.32v46.98h-5.32v-3.76c-2.82,3.19-6.51,5.01-11.21,5.01-9.9,0-16.22-7.83-16.22-17.04s6.33-17.04,16.22-17.04ZM554.65,535.46c4.38,0,8.27-2.13,10.59-5.83v-12.4c-2.44-3.76-6.26-5.82-10.59-5.82-6.7,0-11.21,5.32-11.21,12.03s4.51,12.03,11.21,12.03ZM596.31,540.47c-10.65,0-17.23-7.83-17.23-17.04s6.14-17.04,15.91-17.04c8.58,0,14.16,6.01,14.16,13.78,0,1.25-.19,2.44-.38,3.32h-24.24c.19,7.58,5.01,12.15,11.78,12.15,4.07,0,7.52-1.88,9.58-4.7l3.95,3.07c-2.94,3.95-7.64,6.45-13.53,6.45ZM584.91,519.42h18.92c-.19-4.64-3.38-8.52-8.96-8.52-5.2,0-8.83,3.07-9.96,8.52ZM618.3,531.7c2.19,2.76,4.82,4.32,8.02,4.32,3.51,0,5.51-2.13,5.51-4.89,0-7.08-15.78-4.57-15.78-15.72,0-4.95,4.2-9.02,10.27-9.02,4.51,0,8.39,2.13,10.59,5.2l-3.7,3.13c-1.69-2.38-4.07-3.88-6.83-3.88-3.38,0-5.2,2-5.2,4.45,0,7.08,15.85,4.82,15.85,15.6-.06,5.89-4.76,9.58-10.65,9.58-5.01,0-8.96-2-11.84-5.58l3.76-3.19ZM664.4,512.47h-5.95v-4.82h5.95v-7.89h5.39v7.89h10.96v4.82h-10.96v16.16c0,4.95,2.5,6.33,6.33,6.33,2.07,0,3.51-.25,4.7-.75v4.76c-1.5.63-3.19.88-5.45.88-7.02,0-10.96-3.51-10.96-11.21v-16.16ZM688.9,507.65h5.32v3.95c2.32-2.76,5.2-4.57,9.21-4.57,1,0,1.94.12,2.69.38v5.2c-.94-.25-1.88-.38-3.13-.38-4.13,0-6.83,2.13-8.77,5.32v21.67h-5.32v-31.57ZM710.57,531.26c0-4.76,3.63-8.14,10.34-9.27l10.65-1.75v-2.19c0-4.38-3.13-6.89-7.64-6.89-3.63,0-6.58,1.69-8.52,4.38l-4.01-3.07c2.76-3.76,7.2-6.08,12.72-6.08,8.02,0,12.78,4.7,12.78,11.65v21.17h-5.32v-4.01c-2.38,3.07-6.51,4.89-10.58,4.89-6.2,0-10.4-3.45-10.4-8.83ZM721.85,535.71c4.2,0,7.64-2,9.71-5.39v-6.2l-9.33,1.57c-4.32.75-6.26,2.69-6.26,5.39s2.19,4.63,5.89,4.63ZM747.59,507.65h5.32v3.57c2.57-2.82,5.83-4.82,10.52-4.82,7.08,0,12.34,4.76,12.34,13.72v19.1h-5.32v-18.92c0-5.64-3.19-8.89-8.08-8.89-4.57,0-7.45,2.63-9.46,5.95v21.86h-5.32v-31.57ZM786.87,531.7c2.19,2.76,4.82,4.32,8.02,4.32,3.51,0,5.51-2.13,5.51-4.89,0-7.08-15.79-4.57-15.79-15.72,0-4.95,4.2-9.02,10.27-9.02,4.51,0,8.39,2.13,10.59,5.2l-3.7,3.13c-1.69-2.38-4.07-3.88-6.83-3.88-3.38,0-5.2,2-5.2,4.45,0,7.08,15.85,4.82,15.85,15.6-.06,5.89-4.76,9.58-10.65,9.58-5.01,0-8.96-2-11.84-5.58l3.76-3.19ZM814.24,507.65h5.32v3.76c2.82-3.2,6.51-5.01,11.21-5.01,9.9,0,16.22,7.83,16.22,17.04s-6.33,17.04-16.22,17.04c-4.7,0-8.39-1.82-11.21-5.01v19.17h-5.32v-46.98ZM819.57,517.29v12.28c2.44,3.82,6.26,5.89,10.59,5.89,6.7,0,11.27-5.32,11.27-12.03s-4.57-12.03-11.27-12.03c-4.38,0-8.21,2.13-10.59,5.89ZM887.41,523.43c0,9.21-6.95,17.04-17.1,17.04s-17.1-7.83-17.1-17.04,6.89-17.04,17.1-17.04,17.1,7.83,17.1,17.04ZM881.77,523.43c0-6.58-4.82-12.03-11.4-12.03s-11.59,5.45-11.59,12.03,4.82,12.03,11.59,12.03,11.4-5.51,11.4-12.03ZM895.99,507.65h5.32v3.95c2.32-2.76,5.2-4.57,9.21-4.57,1,0,1.94.12,2.69.38v5.2c-.94-.25-1.88-.38-3.13-.38-4.13,0-6.83,2.13-8.77,5.32v21.67h-5.32v-31.57ZM924.12,512.47h-5.95v-4.82h5.95v-7.89h5.39v7.89h10.96v4.82h-10.96v16.16c0,4.95,2.51,6.33,6.33,6.33,2.07,0,3.51-.25,4.7-.75v4.76c-1.5.63-3.19.88-5.45.88-7.02,0-10.96-3.51-10.96-11.21v-16.16ZM948.99,531.7c2.19,2.76,4.82,4.32,8.02,4.32,3.51,0,5.51-2.13,5.51-4.89,0-7.08-15.78-4.57-15.78-15.72,0-4.95,4.2-9.02,10.27-9.02,4.51,0,8.39,2.13,10.59,5.2l-3.7,3.13c-1.69-2.38-4.07-3.88-6.83-3.88-3.38,0-5.2,2-5.2,4.45,0,7.08,15.85,4.82,15.85,15.6-.06,5.89-4.76,9.58-10.65,9.58-5.01,0-8.96-2-11.84-5.58l3.76-3.19ZM972.73,549.24l5.32-16.6h6.08l-6.45,16.6h-4.95ZM172.78,581.57c4.7,0,8.39,1.82,11.21,5.01v-19.17h5.32v46.98h-5.32v-3.76c-2.82,3.19-6.51,5.01-11.21,5.01-9.9,0-16.22-7.83-16.22-17.04s6.33-17.04,16.22-17.04ZM173.41,610.63c4.38,0,8.27-2.13,10.59-5.83v-12.4c-2.44-3.76-6.26-5.83-10.59-5.83-6.7,0-11.21,5.32-11.21,12.03s4.51,12.03,11.21,12.03ZM222.52,582.82h5.32v17.85c0,9.46-5.45,14.97-14.03,14.97s-13.97-5.51-13.97-14.97v-17.85h5.32v18.04c0,6.2,3.32,9.77,8.71,9.77s8.64-3.57,8.64-9.77v-18.04ZM255.28,567.41h5.32v46.98h-5.32v-46.98ZM303.39,598.6c0,9.21-6.95,17.04-17.1,17.04s-17.1-7.83-17.1-17.04,6.89-17.04,17.1-17.04,17.1,7.83,17.1,17.04ZM297.75,598.6c0-6.58-4.82-12.03-11.4-12.03s-11.59,5.45-11.59,12.03,4.82,12.03,11.59,12.03,11.4-5.51,11.4-12.03ZM312.79,612.13c-1.44-1.13-2.19-2.82-2.19-4.51,0-2.51,1.32-4.57,3.76-6.14-2.76-2.07-4.38-5.26-4.38-8.77,0-6.08,4.76-11.21,12.28-11.21,2.32,0,4.38.5,6.08,1.32h11.71v4.63h-6.83c.88,1.57,1.32,3.38,1.32,5.26,0,6.01-4.7,11.15-12.28,11.15-1.57,0-3.07-.25-4.38-.63-1.32.94-2.07,2.07-2.07,3.26,0,1.32.69,2.25,2.63,2.25h9.02c8.33,0,12.21,4.07,12.21,9.71,0,6.64-6.64,11.59-16.1,11.59s-15.47-3.63-15.47-9.96c0-3.2,1.57-5.76,4.7-7.96ZM323.5,625.6c6.64,0,10.84-2.63,10.84-6.77,0-3.01-1.69-5.39-7.33-5.39h-10.21c-2.19,1.63-3.51,3.51-3.51,6.01,0,3.82,3.95,6.14,10.21,6.14ZM329.51,592.71c0-3.88-2.63-7.02-7.2-7.02s-7.27,3.13-7.27,7.02,2.57,6.95,7.27,6.95,7.2-3.13,7.2-6.95ZM359.71,615.64c-10.65,0-17.23-7.83-17.23-17.04s6.14-17.04,15.91-17.04c8.58,0,14.16,6.01,14.16,13.78,0,1.25-.19,2.44-.38,3.32h-24.24c.19,7.58,5.01,12.15,11.78,12.15,4.07,0,7.52-1.88,9.58-4.7l3.95,3.07c-2.94,3.95-7.64,6.45-13.53,6.45ZM348.31,594.59h18.92c-.19-4.63-3.38-8.52-8.96-8.52-5.2,0-8.83,3.07-9.96,8.52ZM381.57,582.82h5.32v3.45c2.38-2.76,5.51-4.7,9.9-4.7s8.33,2.07,10.27,6.08c2.51-3.45,5.83-6.08,11.27-6.08,6.76,0,11.71,4.51,11.71,13.09v19.73h-5.32v-19.54c0-5.26-2.94-8.27-7.45-8.27-4.01,0-6.83,2.25-8.89,5.95.06.69.13,1.38.13,2.13v19.73h-5.32v-19.54c0-5.26-2.88-8.27-7.45-8.27-4.32,0-7.02,2.69-8.83,5.95v21.86h-5.32v-31.57ZM455.3,615.64c-10.65,0-17.23-7.83-17.23-17.04s6.14-17.04,15.91-17.04c8.58,0,14.16,6.01,14.16,13.78,0,1.25-.19,2.44-.38,3.32h-24.24c.19,7.58,5.01,12.15,11.78,12.15,4.07,0,7.52-1.88,9.58-4.7l3.95,3.07c-2.94,3.95-7.64,6.45-13.53,6.45ZM443.9,594.59h18.92c-.19-4.63-3.38-8.52-8.96-8.52-5.2,0-8.83,3.07-9.96,8.52ZM477.17,582.82h5.32v3.57c2.57-2.82,5.83-4.82,10.52-4.82,7.08,0,12.34,4.76,12.34,13.72v19.1h-5.32v-18.92c0-5.64-3.19-8.89-8.08-8.89-4.57,0-7.45,2.63-9.46,5.95v21.86h-5.32v-31.57ZM517.88,587.64h-5.95v-4.82h5.95v-7.89h5.39v7.89h10.96v4.82h-10.96v16.16c0,4.95,2.5,6.33,6.33,6.33,2.07,0,3.51-.25,4.7-.75v4.76c-1.5.63-3.19.88-5.45.88-7.02,0-10.96-3.51-10.96-11.21v-16.16ZM573.82,615.64c-10.65,0-17.23-7.83-17.23-17.04s6.14-17.04,15.91-17.04c8.58,0,14.16,6.01,14.16,13.78,0,1.25-.19,2.44-.38,3.32h-24.24c.19,7.58,5.01,12.15,11.78,12.15,4.07,0,7.52-1.88,9.58-4.7l3.95,3.07c-2.94,3.95-7.64,6.45-13.53,6.45ZM562.42,594.59h18.92c-.19-4.63-3.38-8.52-8.96-8.52-5.2,0-8.83,3.07-9.96,8.52ZM597.31,587.64h-5.95v-4.82h5.95v-7.89h5.39v7.89h10.96v4.82h-10.96v16.16c0,4.95,2.51,6.33,6.33,6.33,2.07,0,3.51-.25,4.7-.75v4.76c-1.5.63-3.19.88-5.45.88-7.02,0-10.96-3.51-10.96-11.21v-16.16ZM652.25,581.57c4.7,0,8.39,1.82,11.21,5.01v-19.17h5.32v46.98h-5.32v-3.76c-2.82,3.19-6.51,5.01-11.21,5.01-9.9,0-16.22-7.83-16.22-17.04s6.33-17.04,16.22-17.04ZM652.88,610.63c4.38,0,8.27-2.13,10.58-5.83v-12.4c-2.44-3.76-6.26-5.83-10.58-5.83-6.7,0-11.21,5.32-11.21,12.03s4.51,12.03,11.21,12.03ZM694.53,615.64c-10.65,0-17.23-7.83-17.23-17.04s6.14-17.04,15.91-17.04c8.58,0,14.16,6.01,14.16,13.78,0,1.25-.19,2.44-.38,3.32h-24.24c.19,7.58,5.01,12.15,11.78,12.15,4.07,0,7.52-1.88,9.58-4.7l3.95,3.07c-2.94,3.95-7.64,6.45-13.53,6.45ZM683.13,594.59h18.92c-.19-4.63-3.38-8.52-8.96-8.52-5.2,0-8.83,3.07-9.96,8.52ZM733.31,567.41h5.32v46.98h-5.32v-46.98ZM747.28,587.33l5.32-16.79h6.08l-6.45,16.79h-4.95ZM777.66,615.64c-10.65,0-17.23-7.83-17.23-17.04s6.14-17.04,15.91-17.04c8.58,0,14.16,6.01,14.16,13.78,0,1.25-.19,2.44-.38,3.32h-24.24c.19,7.58,5.01,12.15,11.78,12.15,4.07,0,7.52-1.88,9.58-4.7l3.95,3.07c-2.94,3.95-7.64,6.45-13.53,6.45ZM766.26,594.59h18.92c-.19-4.63-3.38-8.52-8.96-8.52-5.2,0-8.83,3.07-9.96,8.52ZM799.52,582.82h5.32v3.57c2.57-2.82,5.83-4.82,10.52-4.82,7.08,0,12.34,4.76,12.34,13.72v19.1h-5.32v-18.92c0-5.64-3.19-8.89-8.08-8.89-4.57,0-7.45,2.63-9.46,5.95v21.86h-5.32v-31.57ZM839.12,582.82l10.08,25.99,10.08-25.99h5.76l-12.34,31.57h-7.02l-12.34-31.57h5.76ZM870.5,570.85c0-2,1.69-3.7,3.76-3.7s3.7,1.69,3.7,3.7-1.63,3.76-3.7,3.76-3.76-1.69-3.76-3.76ZM871.56,582.82h5.32v31.57h-5.32v-31.57ZM888.17,582.82h5.32v3.95c2.32-2.76,5.2-4.57,9.21-4.57,1,0,1.94.12,2.69.38v5.2c-.94-.25-1.88-.38-3.13-.38-4.13,0-6.83,2.13-8.77,5.32v21.67h-5.32v-31.57ZM942.66,598.6c0,9.21-6.95,17.04-17.1,17.04s-17.1-7.83-17.1-17.04,6.89-17.04,17.1-17.04,17.1,7.83,17.1,17.04ZM937.02,598.6c0-6.58-4.82-12.03-11.4-12.03s-11.59,5.45-11.59,12.03,4.82,12.03,11.59,12.03,11.4-5.51,11.4-12.03ZM951.25,582.82h5.32v3.57c2.57-2.82,5.83-4.82,10.52-4.82,7.08,0,12.34,4.76,12.34,13.72v19.1h-5.32v-18.92c0-5.64-3.19-8.89-8.08-8.89-4.57,0-7.45,2.63-9.46,5.95v21.86h-5.32v-31.57ZM990.15,582.82h5.32v3.57c2.57-2.82,5.83-4.82,10.52-4.82,7.08,0,12.34,4.76,12.34,13.72v19.1h-5.32v-18.92c0-5.64-3.19-8.89-8.08-8.89-4.57,0-7.45,2.63-9.46,5.95v21.86h-5.32v-31.57ZM1043.58,615.64c-10.65,0-17.23-7.83-17.23-17.04s6.14-17.04,15.91-17.04c8.58,0,14.16,6.01,14.16,13.78,0,1.25-.19,2.44-.38,3.32h-24.24c.19,7.58,5.01,12.15,11.78,12.15,4.07,0,7.52-1.88,9.58-4.7l3.95,3.07c-2.94,3.95-7.64,6.45-13.53,6.45ZM1032.18,594.59h18.92c-.19-4.63-3.38-8.52-8.96-8.52-5.2,0-8.83,3.07-9.96,8.52ZM1065.44,582.82h5.32v3.45c2.38-2.76,5.51-4.7,9.9-4.7s8.33,2.07,10.27,6.08c2.5-3.45,5.83-6.08,11.27-6.08,6.76,0,11.71,4.51,11.71,13.09v19.73h-5.32v-19.54c0-5.26-2.94-8.27-7.45-8.27-4.01,0-6.83,2.25-8.89,5.95.06.69.12,1.38.12,2.13v19.73h-5.32v-19.54c0-5.26-2.88-8.27-7.45-8.27-4.32,0-7.02,2.69-8.83,5.95v21.86h-5.32v-31.57ZM1139.17,615.64c-10.65,0-17.23-7.83-17.23-17.04s6.14-17.04,15.91-17.04c8.58,0,14.16,6.01,14.16,13.78,0,1.25-.19,2.44-.38,3.32h-24.24c.19,7.58,5.01,12.15,11.78,12.15,4.07,0,7.52-1.88,9.58-4.7l3.95,3.07c-2.94,3.95-7.64,6.45-13.53,6.45ZM1127.77,594.59h18.92c-.19-4.63-3.38-8.52-8.96-8.52-5.2,0-8.83,3.07-9.96,8.52ZM1161.04,582.82h5.32v3.57c2.57-2.82,5.83-4.82,10.52-4.82,7.08,0,12.34,4.76,12.34,13.72v19.1h-5.32v-18.92c0-5.64-3.19-8.89-8.08-8.89-4.57,0-7.45,2.63-9.46,5.95v21.86h-5.32v-31.57ZM1201.76,587.64h-5.95v-4.82h5.95v-7.89h5.39v7.89h10.96v4.82h-10.96v16.16c0,4.95,2.51,6.33,6.33,6.33,2.07,0,3.51-.25,4.7-.75v4.76c-1.5.63-3.19.88-5.45.88-7.02,0-10.96-3.51-10.96-11.21v-16.16Z"/>
  <g>
    <rect class="st1" x="985.11" y="136.3" width="36.54" height="124.2"/>
    <rect class="st2" x="935.48" y="183.95" width="36.54" height="76.54"/>
    <polygon class="st0" points="885.85 297.78 888.57 297.78 922.4 260.5 922.4 161.48 885.85 161.48 885.85 297.78"/>
  </g>
</svg>