<?xml version="1.0" encoding="UTF-8"?>
<svg id="LOGO" xmlns="http://www.w3.org/2000/svg" version="1.1" viewBox="0 0 1140.63 544.69">
  <!-- Generator: Adobe Illustrator 29.1.0, SVG Export Plug-In . SVG Version: 2.1.0 Build 142)  -->
  <defs>
    <style>
      .st0 {
        fill: #2f4077;
      }

      .st1 {
        fill: #ce614a;
      }

      .st2 {
        fill: #21ab88;
      }
    </style>
  </defs>
  <g>
    <path d="M186.06,328.54c11.96,15.38,27.91,24.49,44.14,24.49s25.63-8.54,25.63-22.78c0-36.73-90.55-26.77-90.55-94.25,0-31.61,26.2-57.8,64.35-57.8,29.9,0,52.68,13.38,69.76,33.6l-29.61,26.77c-11.67-15.09-24.77-25.06-39.86-25.06-14.24,0-23.63,9.11-23.63,21.07,0,36.16,90.55,25.91,90.55,94.25-.57,37.59-29.61,60.08-66.35,60.08-33.6,0-56.09-12.24-73.75-33.32l29.33-27.05Z"/>
    <path d="M351.5,328.54c11.96,15.38,27.9,24.49,44.14,24.49s25.63-8.54,25.63-22.78c0-36.73-90.55-26.77-90.55-94.25,0-31.61,26.2-57.8,64.35-57.8,29.9,0,52.68,13.38,69.76,33.6l-29.61,26.77c-11.67-15.09-24.77-25.06-39.86-25.06-14.24,0-23.63,9.11-23.63,21.07,0,36.16,90.55,25.91,90.55,94.25-.57,37.59-29.61,60.08-66.35,60.08-33.6,0-56.09-12.24-73.75-33.32l29.33-27.05Z"/>
    <path d="M507.53,183.89h116.18v33.6h-75.74v47.27h64.35v33.6h-64.35v51.25h75.74v33.6h-116.18v-199.32Z"/>
    <path d="M673.54,183.89h60.94c43.85,0,70.9,22.49,70.9,59.51,0,24.2-11.67,42.14-32.18,51.54l62.36,88.27h-47.55l-53.25-80.58h-20.79v80.58h-40.43v-199.32ZM713.97,217.49v51.54h22.78c17.08,0,27.05-9.97,27.05-26.2,0-15.09-9.97-25.34-27.05-25.34h-22.78Z"/>
  </g>
  <g>
    <rect class="st0" x="942.28" y="136.3" width="36.54" height="124.2"/>
    <rect class="st1" x="892.65" y="183.95" width="36.54" height="76.54"/>
    <polygon class="st2" points="843.02 297.78 845.73 297.78 879.56 260.5 879.56 161.48 843.02 161.48 843.02 297.78"/>
  </g>
</svg>