<?xml version="1.0" encoding="UTF-8"?>
<svg id="LOGO" xmlns="http://www.w3.org/2000/svg" version="1.1" viewBox="0 0 1374.63 544.7">
  <!-- Generator: Adobe Illustrator 29.1.0, SVG Export Plug-In . SVG Version: 2.1.0 Build 142)  -->
  <defs>
    <style>
      .st0 {
        fill: #000091;
      }

      .st1 {
        fill: #34bab5;
      }

      .st2 {
        fill: #e1000f;
      }
    </style>
  </defs>
  <g>
    <path d="M161.81,183.9h78.3c63.21,0,105.92,45.84,105.92,99.66s-42.71,99.66-105.92,99.66h-78.3v-199.32ZM202.24,220.63v125.86h38.44c37.02,0,63.78-27.62,63.78-62.93s-26.77-62.93-63.78-62.93h-38.44Z"/>
    <path d="M396.72,328.55c11.96,15.38,27.91,24.49,44.14,24.49s25.63-8.54,25.63-22.78c0-36.73-90.55-26.77-90.55-94.25,0-31.61,26.2-57.8,64.35-57.8,29.9,0,52.68,13.38,69.76,33.6l-29.61,26.77c-11.67-15.09-24.77-25.06-39.86-25.06-14.24,0-23.63,9.11-23.63,21.07,0,36.16,90.55,25.91,90.55,94.25-.57,37.59-29.61,60.08-66.34,60.08-33.6,0-56.09-12.24-73.75-33.32l29.33-27.05Z"/>
    <path d="M552.76,183.9h116.18v33.6h-75.74v47.27h64.35v33.6h-64.35v51.25h75.74v33.6h-116.18v-199.32Z"/>
    <path d="M855.16,323.71l31.89,24.49c-18.22,24.77-47.84,40.72-84,40.72-62.93,0-105.92-48.41-105.92-105.36s43-105.35,105.92-105.35c36.16,0,65.78,16.23,84,40.43l-31.89,24.77c-11.39-16.23-29.33-27.33-52.11-27.33-37.59,0-64.35,29.33-64.35,67.48s26.77,67.48,64.35,67.48c22.78,0,40.72-11.1,52.11-27.33Z"/>
    <path d="M924.92,183.9h116.18v33.6h-75.74v47.27h64.35v33.6h-64.35v51.25h75.74v33.6h-116.18v-199.32Z"/>
  </g>
  <g>
    <rect class="st2" x="1176.28" y="136.3" width="36.54" height="124.2"/>
    <rect class="st0" x="1126.65" y="183.95" width="36.54" height="76.54"/>
    <polygon class="st1" points="1077.02 297.78 1079.74 297.78 1113.56 260.5 1113.56 161.48 1077.02 161.48 1077.02 297.78"/>
  </g>
</svg>