<?xml version="1.0" encoding="UTF-8"?>
<svg id="LOGO" xmlns="http://www.w3.org/2000/svg" version="1.1" viewBox="0 0 1429.14 544.69">
  <!-- Generator: Adobe Illustrator 29.1.0, SVG Export Plug-In . SVG Version: 2.1.0 Build 142)  -->
  <defs>
    <style>
      .st0 {
        fill: #34bab5;
      }

      .st1 {
        fill: #7ab1e8;
      }

      .st2 {
        fill: #21ab88;
      }
    </style>
  </defs>
  <g>
    <rect class="st1" x="1230.79" y="136.3" width="36.54" height="124.2"/>
    <rect class="st0" x="1181.16" y="183.95" width="36.54" height="76.54"/>
    <polygon class="st2" points="1131.53 297.78 1134.25 297.78 1168.07 260.5 1168.07 161.48 1131.53 161.48 1131.53 297.78"/>
  </g>
  <g>
    <path d="M161.81,183.89h50.4l48.69,83.71,48.69-83.71h50.4v199.32h-40.43v-142.94l-44.42,74.6h-28.47l-44.42-74.6v142.94h-40.43v-199.32Z"/>
    <path d="M418.36,183.89h116.18v33.6h-75.74v47.27h64.35v33.6h-64.35v51.25h75.74v33.6h-116.18v-199.32Z"/>
    <path d="M584.36,183.89h78.3c63.21,0,105.92,45.84,105.92,99.66s-42.71,99.66-105.92,99.66h-78.3v-199.32ZM624.8,220.62v125.86h38.44c37.02,0,63.78-27.62,63.78-62.93s-26.77-62.93-63.78-62.93h-38.44Z"/>
    <path d="M810.45,183.89h116.17v33.6h-75.74v47.27h64.35v33.6h-64.35v51.25h75.74v33.6h-116.17v-199.32Z"/>
    <path d="M987.84,328.54c11.96,15.38,27.9,24.49,44.13,24.49s25.63-8.54,25.63-22.78c0-36.73-90.55-26.77-90.55-94.25,0-31.61,26.2-57.8,64.35-57.8,29.9,0,52.68,13.38,69.76,33.6l-29.61,26.77c-11.67-15.09-24.77-25.06-39.86-25.06-14.24,0-23.63,9.11-23.63,21.07,0,36.16,90.55,25.91,90.55,94.25-.57,37.59-29.61,60.08-66.35,60.08-33.6,0-56.09-12.24-73.75-33.31l29.33-27.05Z"/>
  </g>
</svg>