<svg xmlns="http://www.w3.org/2000/svg" xmlns:xlink="http://www.w3.org/1999/xlink" width="1920" zoomAndPan="magnify" viewBox="0 0 1440 809.999993" height="1080" preserveAspectRatio="xMidYMid meet" version="1.0"><defs><filter x="0%" y="0%" width="100%" height="100%" id="d1d6df42f6"><feColorMatrix values="0 0 0 0 1 0 0 0 0 1 0 0 0 0 1 0 0 0 1 0" color-interpolation-filters="sRGB"/></filter><mask id="93427a24fb"><g filter="url(#d1d6df42f6)"><rect x="-144" width="1728" fill="#000000" y="-80.999999" height="971.999992" fill-opacity="0.6"/></g></mask><clipPath id="e653a11e19"><path d="M 285.871094 301.007812 L 383 301.007812 L 383 316 L 285.871094 316 Z M 285.871094 301.007812 " clip-rule="nonzero"/></clipPath><clipPath id="9b19e0e73d"><path d="M 850 335 L 1080.871094 335 L 1080.871094 601 L 850 601 Z M 850 335 " clip-rule="nonzero"/></clipPath><clipPath id="0d165c3e30"><path d="M 285.871094 580 L 533 580 L 533 740.800781 L 285.871094 740.800781 Z M 285.871094 580 " clip-rule="nonzero"/></clipPath><clipPath id="9671233e9e"><rect x="0" width="1081" y="0" height="741"/></clipPath><clipPath id="e3d9900f7a"><path d="M 627 0.199219 L 862.5 0.199219 L 862.5 144 L 627 144 Z M 627 0.199219 " clip-rule="nonzero"/></clipPath><clipPath id="ce820cd08b"><path d="M 777 408 L 862.5 408 L 862.5 428.25 L 777 428.25 Z M 777 408 " clip-rule="nonzero"/></clipPath></defs><rect x="-144" width="1728" fill="#ffffff" y="-80.999999" height="971.999992" fill-opacity="1"/><rect x="-144" width="1728" fill="#ffffff" y="-80.999999" height="971.999992" fill-opacity="1"/><g mask="url(#93427a24fb)"><g transform="matrix(1, 0, 0, 1, 359, 69)"><g clip-path="url(#9671233e9e)"><g clip-path="url(#e653a11e19)"><path fill="#86c6ff" d="M 230.222656 1.28125 C 210.324219 22.519531 187.722656 41.847656 162.507812 58.75 C 112.332031 92.363281 57.160156 112.730469 1.117188 120.703125 L 12.449219 315.007812 C 102 304.824219 190.507812 273.699219 270.535156 220.097656 C 312.824219 191.777344 350.222656 158.867188 382.496094 122.488281 L 230.203125 1.324219 Z M 230.222656 1.28125 " fill-opacity="1" fill-rule="nonzero"/></g><path fill="#86c6ff" d="M 571.226562 652.757812 C 591.128906 631.519531 613.726562 612.191406 638.945312 595.289062 C 689.121094 561.675781 744.292969 541.308594 800.335938 533.335938 L 789.003906 339.03125 C 699.453125 349.214844 610.941406 380.34375 530.917969 433.941406 C 488.628906 462.261719 451.230469 495.171875 418.957031 531.550781 L 571.25 652.714844 Z M 571.226562 652.757812 " fill-opacity="1" fill-rule="nonzero"/><g clip-path="url(#9b19e0e73d)"><path fill="#268dff" d="M 850.785156 335.375 L 862.121094 529.59375 C 939.445312 531.019531 1015.558594 555.425781 1079.703125 600.730469 L 1205.121094 451.84375 C 1102.238281 374.707031 977.183594 334.503906 850.785156 335.375 " fill-opacity="1" fill-rule="nonzero"/></g><g clip-path="url(#0d165c3e30)"><path fill="#042f80" d="M 467.644531 949.050781 C 460.839844 862.007812 483.527344 774.304688 532.679688 701.234375 L 380.390625 580.046875 C 297.515625 696.40625 260.667969 839.320312 275.511719 980.027344 L 467.664062 949.027344 Z M 467.644531 949.050781 " fill-opacity="1" fill-rule="nonzero"/></g></g></g></g><path fill="#86c6ff" d="M 589.222656 70.679688 C 569.324219 91.921875 546.722656 111.246094 521.507812 128.148438 C 471.332031 161.761719 416.160156 182.128906 360.117188 190.101562 L 371.449219 384.40625 C 461 374.222656 549.507812 343.097656 629.535156 289.496094 C 671.824219 261.179688 709.222656 228.265625 741.496094 191.890625 L 589.203125 70.722656 Z M 589.222656 70.679688 " fill-opacity="1" fill-rule="nonzero"/><path fill="#268dff" d="M 293.378906 387.957031 L 298.3125 193.84375 C 220.984375 192.421875 144.871094 168.011719 80.726562 122.707031 L -44.691406 271.617188 C 58.191406 348.75 166.984375 388.828125 293.378906 387.957031 " fill-opacity="1" fill-rule="nonzero"/><path fill="#042f80" d="M 33.167969 83.074219 C 14.414062 64.683594 -2.765625 44.125 -17.964844 21.441406 L -179.292969 129.488281 C -153.714844 167.671875 -124.398438 201.859375 -92.1875 231.902344 Z M 33.167969 83.074219 " fill-opacity="1" fill-rule="nonzero"/><g clip-path="url(#e3d9900f7a)"><path fill="#042f80" d="M 692.808594 -225.589844 C 699.609375 -138.546875 676.925781 -50.847656 627.769531 22.25 L 780.0625 143.414062 C 862.9375 27.054688 899.78125 -115.863281 884.941406 -256.566406 L 692.785156 -225.570312 Z M 692.808594 -225.589844 " fill-opacity="1" fill-rule="nonzero"/></g><g clip-path="url(#ce820cd08b)"><path fill="#86c6ff" d="M 930.226562 722.15625 C 950.128906 700.917969 972.726562 681.589844 997.945312 664.6875 C 1048.121094 631.074219 1103.292969 610.707031 1159.335938 602.734375 L 1148.003906 408.429688 C 1058.453125 418.613281 969.941406 449.742188 889.917969 503.339844 C 847.628906 531.660156 810.230469 564.570312 777.957031 600.949219 L 930.25 722.113281 Z M 930.226562 722.15625 " fill-opacity="1" fill-rule="nonzero"/></g><path fill="#000000" d="M 134.007812 761.730469 C 134.324219 759.789062 135.585938 758.695312 137.601562 758.695312 C 139.472656 758.695312 140.519531 759.882812 140.664062 761.730469 Z M 138.234375 770.472656 C 140.492188 770.472656 142.414062 769.816406 143.703125 768.871094 L 143.703125 765.492188 C 142.464844 766.539062 140.785156 767.507812 138.671875 767.507812 C 135.804688 767.507812 134.371094 766.320312 134.007812 764.109375 L 144.140625 764.109375 C 144.234375 763.699219 144.308594 763.164062 144.308594 762.480469 C 144.308594 758.5 141.757812 755.902344 137.652344 755.902344 C 133.15625 755.902344 130.335938 758.914062 130.335938 763.1875 C 130.335938 767.996094 133.570312 770.472656 138.234375 770.472656 Z M 118.089844 761.730469 C 118.40625 759.789062 119.667969 758.695312 121.6875 758.695312 C 123.558594 758.695312 124.601562 759.882812 124.746094 761.730469 Z M 122.320312 770.472656 C 124.578125 770.472656 126.496094 769.816406 127.785156 768.871094 L 127.785156 765.492188 C 126.546875 766.539062 124.871094 767.507812 122.753906 767.507812 C 119.886719 767.507812 118.453125 766.320312 118.089844 764.109375 L 128.222656 764.109375 C 128.320312 763.699219 128.394531 763.164062 128.394531 762.480469 C 128.394531 758.5 125.839844 755.902344 121.734375 755.902344 C 117.242188 755.902344 114.421875 758.914062 114.421875 763.1875 C 114.421875 767.996094 117.652344 770.472656 122.320312 770.472656 Z M 105.820312 770.472656 C 109.632812 770.472656 112.308594 768.941406 112.308594 765.714844 C 112.308594 762.484375 109.414062 761.972656 106.183594 761.488281 C 103.730469 761.121094 102.539062 761 102.539062 760.078125 C 102.539062 759.15625 103.65625 758.792969 105.503906 758.792969 C 107.542969 758.792969 109.828125 759.496094 111.722656 760.636719 L 111.722656 757.382812 C 110.023438 756.460938 107.859375 755.902344 105.550781 755.902344 C 101.882812 755.902344 99.136719 757.308594 99.136719 760.222656 C 99.136719 763.550781 102.269531 764.28125 105.234375 764.691406 C 107.445312 765.007812 108.78125 765.082031 108.78125 766.199219 C 108.78125 767.195312 107.714844 767.507812 105.769531 767.507812 C 103.195312 767.507812 100.835938 766.636719 99.0625 764.960938 L 99.0625 768.625 C 100.519531 769.671875 103.144531 770.472656 105.816406 770.472656 Z M 83.269531 770.230469 L 86.867188 770.230469 L 86.867188 762.3125 C 86.914062 760.101562 87.984375 758.742188 89.855469 758.742188 C 91.898438 758.742188 92.554688 760.054688 92.554688 761.972656 L 92.554688 770.230469 L 96.148438 770.230469 L 96.148438 761.4375 C 96.148438 757.722656 93.988281 755.902344 91 755.902344 C 89.296875 755.902344 87.816406 756.535156 86.867188 757.894531 L 86.867188 756.144531 L 83.273438 756.144531 L 83.273438 770.230469 Z M 66.988281 770.230469 L 80.476562 770.230469 L 80.476562 767.4375 L 75.640625 767.4375 L 75.640625 753.59375 L 80.476562 753.59375 L 80.476562 750.800781 L 66.988281 750.800781 L 66.988281 753.59375 L 71.824219 753.59375 L 71.824219 767.4375 L 66.988281 767.4375 Z M 66.988281 770.230469 " fill-opacity="1" fill-rule="nonzero"/><path fill="#c869ff" d="M 157.066406 748.324219 L 160.664062 748.324219 L 160.664062 760.539062 L 157.066406 760.539062 Z M 157.066406 748.324219 " fill-opacity="1" fill-rule="nonzero"/><path fill="#7a57ff" d="M 152.183594 753.011719 L 155.777344 753.011719 L 155.777344 760.539062 L 152.183594 760.539062 Z M 152.183594 753.011719 " fill-opacity="1" fill-rule="nonzero"/><path fill="#248bff" d="M 147.296875 764.207031 L 147.566406 764.207031 L 150.894531 760.539062 L 150.894531 750.800781 L 147.296875 750.800781 Z M 147.296875 764.207031 " fill-opacity="1" fill-rule="nonzero"/></svg>