<svg xmlns="http://www.w3.org/2000/svg" xmlns:xlink="http://www.w3.org/1999/xlink" width="1920" zoomAndPan="magnify" viewBox="0 0 1440 809.999993" height="1080" preserveAspectRatio="xMidYMid meet" version="1.0"><defs><clipPath id="67dbe48706"><path d="M 952.496094 181.027344 L 1363.382812 181.027344 L 1363.382812 810 L 952.496094 810 Z M 952.496094 181.027344 " clip-rule="nonzero"/></clipPath><clipPath id="693b52c01d"><path d="M 0.496094 0.0273438 L 411.382812 0.0273438 L 411.382812 629 L 0.496094 629 Z M 0.496094 0.0273438 " clip-rule="nonzero"/></clipPath><clipPath id="e2a537b903"><rect x="0" width="412" y="0" height="629"/></clipPath><clipPath id="cc57aadb6d"><path d="M 514.558594 497.167969 L 925.441406 497.167969 L 925.441406 810 L 514.558594 810 Z M 514.558594 497.167969 " clip-rule="nonzero"/></clipPath><clipPath id="f1aab799c5"><path d="M 0.558594 0.167969 L 411.441406 0.167969 L 411.441406 313 L 0.558594 313 Z M 0.558594 0.167969 " clip-rule="nonzero"/></clipPath><clipPath id="296bffd015"><rect x="0" width="412" y="0" height="313"/></clipPath><clipPath id="8aebf95f95"><path d="M 78.003906 332.003906 L 488.886719 332.003906 L 488.886719 810 L 78.003906 810 Z M 78.003906 332.003906 " clip-rule="nonzero"/></clipPath><clipPath id="991cb368d4"><path d="M 0.00390625 0.00390625 L 410.886719 0.00390625 L 410.886719 478 L 0.00390625 478 Z M 0.00390625 0.00390625 " clip-rule="nonzero"/></clipPath><clipPath id="0d0f250d6f"><rect x="0" width="411" y="0" height="478"/></clipPath><clipPath id="ddec0411bd"><path d="M 660 363 L 728 363 L 728 436.253906 L 660 436.253906 Z M 660 363 " clip-rule="nonzero"/></clipPath><clipPath id="65d208a5bb"><path d="M 791 363 L 858 363 L 858 436.253906 L 791 436.253906 Z M 791 363 " clip-rule="nonzero"/></clipPath><clipPath id="fe8e66ef54"><path d="M 865 332.003906 L 892 332.003906 L 892 434 L 865 434 Z M 865 332.003906 " clip-rule="nonzero"/></clipPath></defs><rect x="-144" width="1728" fill="#ffffff" y="-80.999999" height="971.999992" fill-opacity="1"/><rect x="-144" width="1728" fill="#ffffff" y="-80.999999" height="971.999992" fill-opacity="1"/><g clip-path="url(#67dbe48706)"><g transform="matrix(1, 0, 0, 1, 952, 181)"><g clip-path="url(#e2a537b903)"><g clip-path="url(#693b52c01d)"><path fill="#c869ff" d="M 0.496094 0.0273438 L 411.382812 0.0273438 L 411.382812 629.191406 L 0.496094 629.191406 Z M 0.496094 0.0273438 " fill-opacity="1" fill-rule="nonzero"/></g></g></g></g><g clip-path="url(#cc57aadb6d)"><g transform="matrix(1, 0, 0, 1, 514, 497)"><g clip-path="url(#296bffd015)"><g clip-path="url(#f1aab799c5)"><path fill="#248bff" d="M 0.558594 0.167969 L 411.148438 0.167969 L 411.148438 313 L 0.558594 313 Z M 0.558594 0.167969 " fill-opacity="1" fill-rule="nonzero"/></g></g></g></g><g clip-path="url(#8aebf95f95)"><g transform="matrix(1, 0, 0, 1, 78, 332)"><g clip-path="url(#0d0f250d6f)"><g clip-path="url(#991cb368d4)"><path fill="#124680" d="M 0.00390625 0.00390625 L 410.886719 0.00390625 L 410.886719 478.296875 L 0.00390625 478.296875 Z M 0.00390625 0.00390625 " fill-opacity="1" fill-rule="nonzero"/></g></g></g></g><path fill="#ffffff" d="M 239.097656 782.332031 C 240.011719 782.332031 240.59375 782.988281 240.625 783.792969 L 237.335938 783.792969 C 237.554688 782.835938 238.195312 782.332031 239.097656 782.332031 M 241.695312 786.371094 L 241 785.835938 C 240.636719 786.328125 240.042969 786.660156 239.339844 786.660156 C 238.097656 786.660156 237.261719 785.769531 237.261719 784.550781 L 237.261719 784.527344 L 241.507812 784.527344 C 241.539062 784.375 241.574219 784.152344 241.574219 783.933594 C 241.574219 782.550781 240.59375 781.53125 239.085938 781.53125 C 237.371094 781.53125 236.292969 782.835938 236.292969 784.519531 C 236.292969 786.199219 237.449219 787.503906 239.316406 787.503906 C 240.351562 787.503906 241.175781 787.066406 241.695312 786.375 M 232.671875 787.285156 L 233.609375 787.285156 L 233.609375 783.527344 C 233.949219 782.96875 234.421875 782.59375 235.148438 782.59375 C 235.371094 782.59375 235.535156 782.628906 235.699219 782.671875 L 235.699219 781.703125 C 235.566406 781.660156 235.402344 781.636719 235.226562 781.636719 C 234.523438 781.636719 234.015625 781.957031 233.609375 782.441406 L 233.609375 781.75 L 232.671875 781.75 Z M 225.9375 784.519531 C 225.9375 783.34375 226.730469 782.410156 227.90625 782.410156 C 228.664062 782.410156 229.324219 782.773438 229.765625 783.441406 L 229.765625 785.597656 C 229.335938 786.253906 228.675781 786.628906 227.90625 786.628906 C 226.730469 786.628906 225.9375 785.695312 225.9375 784.519531 M 224.949219 784.519531 C 224.949219 786.132812 226.058594 787.503906 227.796875 787.503906 C 228.601562 787.503906 229.261719 787.207031 229.765625 786.671875 L 229.765625 787.285156 L 230.703125 787.285156 L 230.703125 779.050781 L 229.765625 779.050781 L 229.765625 782.367188 C 229.261719 781.828125 228.601562 781.53125 227.796875 781.53125 C 226.058594 781.53125 224.949219 782.90625 224.949219 784.519531 M 218.589844 787.285156 L 219.527344 787.285156 L 219.527344 783.453125 C 219.878906 782.871094 220.386719 782.410156 221.1875 782.410156 C 222.046875 782.410156 222.597656 782.980469 222.597656 783.96875 L 222.597656 787.285156 L 223.542969 787.285156 L 223.542969 783.933594 C 223.542969 782.363281 222.617188 781.53125 221.375 781.53125 C 220.550781 781.53125 219.976562 781.882812 219.527344 782.375 L 219.527344 781.75 L 218.589844 781.75 Z M 214.53125 782.332031 C 215.445312 782.332031 216.027344 782.988281 216.058594 783.792969 L 212.769531 783.792969 C 212.992188 782.835938 213.628906 782.332031 214.53125 782.332031 M 217.125 786.371094 L 216.433594 785.835938 C 216.070312 786.328125 215.476562 786.660156 214.773438 786.660156 C 213.53125 786.660156 212.695312 785.769531 212.695312 784.550781 L 212.695312 784.527344 L 216.941406 784.527344 C 216.972656 784.375 217.007812 784.152344 217.007812 783.933594 C 217.007812 782.550781 216.027344 781.53125 214.519531 781.53125 C 212.804688 781.53125 211.726562 782.835938 211.726562 784.519531 C 211.726562 786.199219 212.878906 787.503906 214.75 787.503906 C 215.785156 787.503906 216.609375 787.066406 217.128906 786.375 M 208.105469 787.285156 L 209.042969 787.285156 L 209.042969 783.527344 C 209.382812 782.96875 209.855469 782.59375 210.582031 782.59375 C 210.800781 782.59375 210.96875 782.628906 211.132812 782.671875 L 211.132812 781.703125 C 211 781.660156 210.835938 781.636719 210.660156 781.636719 C 209.953125 781.636719 209.449219 781.957031 209.042969 782.441406 L 209.042969 781.75 L 208.105469 781.75 Z M 201.78125 785.570312 L 201.78125 783.464844 C 202.207031 782.78125 202.867188 782.410156 203.636719 782.410156 C 204.816406 782.410156 205.617188 783.34375 205.617188 784.519531 C 205.617188 785.691406 204.816406 786.625 203.636719 786.625 C 202.867188 786.625 202.207031 786.253906 201.78125 785.574219 M 200.84375 789.984375 L 201.78125 789.984375 L 201.78125 786.667969 C 202.289062 787.207031 202.945312 787.503906 203.75 787.503906 C 205.488281 787.503906 206.601562 786.128906 206.601562 784.515625 C 206.601562 782.902344 205.488281 781.527344 203.75 781.527344 C 202.945312 781.527344 202.289062 781.824219 201.78125 782.363281 L 201.78125 781.75 L 200.84375 781.75 Z M 190.449219 787.285156 L 191.382812 787.285156 L 191.382812 783.453125 C 191.703125 782.878906 192.175781 782.410156 192.933594 782.410156 C 193.738281 782.410156 194.234375 782.9375 194.234375 783.859375 L 194.234375 787.285156 L 195.179688 787.285156 L 195.179688 783.824219 C 195.179688 783.703125 195.167969 783.582031 195.15625 783.460938 C 195.53125 782.8125 196.015625 782.410156 196.71875 782.410156 C 197.511719 782.410156 198.027344 782.9375 198.027344 783.859375 L 198.027344 787.285156 L 198.960938 787.285156 L 198.960938 783.824219 C 198.960938 782.320312 198.09375 781.53125 196.90625 781.53125 C 195.992188 781.53125 195.386719 782.011719 194.945312 782.640625 C 194.605469 781.90625 193.933594 781.53125 193.121094 781.53125 C 192.351562 781.53125 191.800781 781.871094 191.382812 782.355469 L 191.382812 781.75 L 190.449219 781.75 Z M 185.949219 786.625 C 184.761719 786.625 183.914062 785.667969 183.914062 784.515625 C 183.914062 783.363281 184.761719 782.410156 185.949219 782.410156 C 187.136719 782.410156 187.949219 783.363281 187.949219 784.515625 C 187.949219 785.667969 187.101562 786.625 185.949219 786.625 M 185.9375 781.53125 C 184.144531 781.53125 182.933594 782.902344 182.933594 784.519531 C 182.933594 786.132812 184.144531 787.503906 185.9375 787.503906 C 187.730469 787.503906 188.941406 786.132812 188.941406 784.519531 C 188.941406 782.902344 187.71875 781.53125 185.9375 781.53125 M 180.019531 786.625 C 178.820312 786.625 177.972656 785.703125 177.972656 784.515625 C 177.972656 783.328125 178.820312 782.410156 180.007812 782.410156 C 180.691406 782.410156 181.25 782.738281 181.59375 783.230469 L 182.339844 782.660156 C 181.824219 781.980469 181.007812 781.53125 180.007812 781.53125 C 178.171875 781.53125 176.996094 782.902344 176.996094 784.519531 C 176.996094 786.132812 178.171875 787.503906 180.007812 787.503906 C 181.023438 787.503906 181.824219 787.066406 182.339844 786.375 L 181.59375 785.804688 C 181.253906 786.296875 180.699219 786.625 180.019531 786.625 M 170.128906 787.285156 L 171.0625 787.285156 L 171.0625 783.527344 C 171.402344 782.96875 171.878906 782.59375 172.605469 782.59375 C 172.824219 782.59375 172.992188 782.628906 173.15625 782.671875 L 173.15625 781.703125 C 173.023438 781.660156 172.859375 781.636719 172.679688 781.636719 C 171.976562 781.636719 171.472656 781.957031 171.0625 782.441406 L 171.0625 781.75 L 170.128906 781.75 Z M 167.335938 784.914062 C 167.335938 786 166.75 786.625 165.828125 786.625 C 164.902344 786.625 164.296875 786 164.296875 784.914062 L 164.296875 781.75 L 163.363281 781.75 L 163.363281 784.878906 C 163.363281 786.539062 164.320312 787.503906 165.816406 787.503906 C 167.3125 787.503906 168.28125 786.539062 168.28125 784.878906 L 168.28125 781.75 L 167.335938 781.75 Z M 158.984375 786.625 C 157.796875 786.625 156.949219 785.667969 156.949219 784.515625 C 156.949219 783.363281 157.796875 782.410156 158.984375 782.410156 C 160.171875 782.410156 160.988281 783.363281 160.988281 784.515625 C 160.988281 785.667969 160.140625 786.625 158.984375 786.625 M 158.972656 781.53125 C 157.179688 781.53125 155.96875 782.902344 155.96875 784.519531 C 155.96875 786.132812 157.179688 787.503906 158.972656 787.503906 C 160.765625 787.503906 161.976562 786.132812 161.976562 784.519531 C 161.976562 782.902344 160.753906 781.53125 158.972656 781.53125 M 150.0625 785.570312 L 150.0625 783.464844 C 150.492188 782.78125 151.152344 782.410156 151.921875 782.410156 C 153.097656 782.410156 153.902344 783.34375 153.902344 784.519531 C 153.902344 785.691406 153.097656 786.625 151.921875 786.625 C 151.152344 786.625 150.492188 786.253906 150.0625 785.574219 M 149.125 789.984375 L 150.0625 789.984375 L 150.0625 786.667969 C 150.566406 787.207031 151.226562 787.503906 152.03125 787.503906 C 153.769531 787.503906 154.882812 786.128906 154.882812 784.515625 C 154.882812 782.902344 153.769531 781.527344 152.03125 781.527344 C 151.230469 781.527344 150.570312 781.824219 150.0625 782.363281 L 150.0625 781.75 L 149.125 781.75 Z M 141.789062 787.285156 L 142.726562 787.285156 L 142.726562 783.527344 C 143.066406 782.96875 143.539062 782.59375 144.265625 782.59375 C 144.484375 782.59375 144.652344 782.628906 144.816406 782.671875 L 144.816406 781.703125 C 144.683594 781.660156 144.519531 781.636719 144.34375 781.636719 C 143.640625 781.636719 143.132812 781.957031 142.726562 782.441406 L 142.726562 781.75 L 141.789062 781.75 Z M 137.730469 782.332031 C 138.644531 782.332031 139.226562 782.988281 139.257812 783.792969 L 135.96875 783.792969 C 136.1875 782.835938 136.828125 782.332031 137.730469 782.332031 M 140.324219 786.371094 L 139.632812 785.835938 C 139.269531 786.328125 138.675781 786.660156 137.972656 786.660156 C 136.730469 786.660156 135.894531 785.769531 135.894531 784.550781 L 135.894531 784.527344 L 140.140625 784.527344 C 140.171875 784.375 140.207031 784.152344 140.207031 783.933594 C 140.207031 782.550781 139.226562 781.53125 137.71875 781.53125 C 136.003906 781.53125 134.925781 782.835938 134.925781 784.519531 C 134.925781 786.199219 136.078125 787.503906 137.949219 787.503906 C 138.984375 787.503906 139.808594 787.066406 140.328125 786.375 M 131.304688 787.285156 L 132.238281 787.285156 L 132.238281 783.527344 C 132.582031 782.96875 133.054688 782.59375 133.78125 782.59375 C 134 782.59375 134.167969 782.628906 134.332031 782.671875 L 134.332031 781.703125 C 134.199219 781.660156 134.035156 781.636719 133.859375 781.636719 C 133.152344 781.636719 132.648438 781.957031 132.238281 782.441406 L 132.238281 781.75 L 131.304688 781.75 Z M 128.511719 784.914062 C 128.511719 786 127.925781 786.625 127.003906 786.625 C 126.078125 786.625 125.472656 786 125.472656 784.914062 L 125.472656 781.75 L 124.539062 781.75 L 124.539062 784.878906 C 124.539062 786.539062 125.496094 787.503906 126.992188 787.503906 C 128.488281 787.503906 129.457031 786.539062 129.457031 784.878906 L 129.457031 781.75 L 128.511719 781.75 Z M 119.191406 786.527344 C 119.699219 787.152344 120.390625 787.503906 121.269531 787.503906 C 122.304688 787.503906 123.128906 786.855469 123.140625 785.824219 C 123.140625 783.890625 120.425781 784.332031 120.425781 783.070312 C 120.425781 782.617188 120.730469 782.3125 121.304688 782.3125 C 121.8125 782.3125 122.21875 782.5625 122.527344 783.003906 L 123.175781 782.441406 C 122.789062 781.902344 122.109375 781.53125 121.292969 781.53125 C 120.25 781.53125 119.511719 782.199219 119.511719 783.089844 C 119.511719 785.078125 122.230469 784.617188 122.230469 785.867188 C 122.230469 786.351562 121.878906 786.722656 121.261719 786.722656 C 120.699219 786.722656 120.238281 786.4375 119.851562 785.957031 Z M 115.769531 782.332031 C 116.683594 782.332031 117.265625 782.988281 117.300781 783.792969 L 114.007812 783.792969 C 114.230469 782.835938 114.867188 782.332031 115.769531 782.332031 M 118.367188 786.371094 L 117.675781 785.835938 C 117.3125 786.328125 116.71875 786.660156 116.011719 786.660156 C 114.769531 786.660156 113.933594 785.769531 113.933594 784.550781 L 113.933594 784.527344 L 118.179688 784.527344 C 118.214844 784.375 118.246094 784.152344 118.246094 783.933594 C 118.246094 782.550781 117.269531 781.53125 115.761719 781.53125 C 114.042969 781.53125 112.964844 782.835938 112.964844 784.519531 C 112.964844 786.199219 114.121094 787.503906 115.992188 787.503906 C 117.023438 787.503906 117.847656 787.066406 118.367188 786.375 M 103.933594 787.285156 L 104.96875 787.285156 L 104.96875 781.015625 L 107.210938 784.648438 L 108.003906 784.648438 L 110.25 781.015625 L 110.25 787.285156 L 111.285156 787.285156 L 111.285156 779.597656 L 109.953125 779.597656 L 107.609375 783.429688 L 105.265625 779.597656 L 103.933594 779.597656 Z M 103.933594 787.285156 " fill-opacity="1" fill-rule="nonzero"/><path fill="#ffffff" d="M 223.511719 757.988281 C 224.074219 754.527344 226.332031 752.578125 229.929688 752.578125 C 233.269531 752.578125 235.132812 754.699219 235.390625 757.988281 Z M 231.058594 773.566406 C 235.089844 773.566406 238.515625 772.398438 240.8125 770.710938 L 240.8125 764.695312 C 238.601562 766.554688 235.609375 768.285156 231.835938 768.285156 C 226.71875 768.285156 224.164062 766.167969 223.511719 762.230469 L 241.59375 762.230469 C 241.765625 761.492188 241.894531 760.542969 241.894531 759.328125 C 241.894531 752.234375 237.34375 747.601562 230.015625 747.601562 C 221.996094 747.601562 216.964844 752.96875 216.964844 760.582031 C 216.964844 769.152344 222.730469 773.5625 231.058594 773.5625 Z M 195.113281 757.988281 C 195.675781 754.527344 197.929688 752.578125 201.53125 752.578125 C 204.867188 752.578125 206.730469 754.699219 206.992188 757.988281 Z M 202.65625 773.566406 C 206.6875 773.566406 210.113281 772.398438 212.414062 770.710938 L 212.414062 764.695312 C 210.203125 766.554688 207.210938 768.285156 203.4375 768.285156 C 198.320312 768.285156 195.761719 766.167969 195.113281 762.230469 L 213.191406 762.230469 C 213.367188 761.492188 213.496094 760.542969 213.496094 759.328125 C 213.496094 752.234375 208.945312 747.601562 201.617188 747.601562 C 193.597656 747.601562 188.566406 752.96875 188.566406 760.582031 C 188.566406 769.152344 194.332031 773.5625 202.65625 773.5625 Z M 173.21875 773.566406 C 180.023438 773.566406 184.792969 770.839844 184.792969 765.085938 C 184.792969 759.332031 179.632812 758.421875 173.867188 757.554688 C 169.488281 756.90625 167.363281 756.691406 167.363281 755.046875 C 167.363281 753.402344 169.355469 752.753906 172.652344 752.753906 C 176.292969 752.753906 180.371094 754.007812 183.75 756.039062 L 183.75 750.242188 C 180.714844 748.597656 176.859375 747.605469 172.738281 747.605469 C 166.191406 747.605469 161.292969 750.113281 161.292969 755.304688 C 161.292969 761.234375 166.886719 762.53125 172.175781 763.265625 C 176.121094 763.828125 178.503906 763.957031 178.503906 765.949219 C 178.503906 767.722656 176.597656 768.285156 173.128906 768.285156 C 168.535156 768.285156 164.328125 766.730469 161.160156 763.742188 L 161.160156 770.277344 C 163.761719 772.136719 168.445312 773.5625 173.214844 773.5625 Z M 132.984375 773.132812 L 139.402344 773.132812 L 139.402344 759.027344 C 139.488281 755.085938 141.394531 752.664062 144.734375 752.664062 C 148.375 752.664062 149.546875 755.003906 149.546875 758.417969 L 149.546875 773.132812 L 155.964844 773.132812 L 155.964844 757.46875 C 155.964844 750.847656 152.105469 747.605469 146.773438 747.605469 C 143.738281 747.605469 141.089844 748.730469 139.402344 751.152344 L 139.402344 748.035156 L 132.984375 748.035156 Z M 103.933594 773.132812 L 127.996094 773.132812 L 127.996094 768.15625 L 119.367188 768.15625 L 119.367188 743.492188 L 127.996094 743.492188 L 127.996094 738.515625 L 103.933594 738.515625 L 103.933594 743.492188 L 112.5625 743.492188 L 112.5625 768.15625 L 103.933594 768.15625 Z M 103.933594 773.132812 " fill-opacity="1" fill-rule="nonzero"/><path fill="#ffffff" d="M 264.65625 734.101562 L 271.074219 734.101562 L 271.074219 755.867188 L 264.65625 755.867188 Z M 264.65625 734.101562 " fill-opacity="1" fill-rule="nonzero"/><path fill="#ffffff" d="M 255.945312 742.453125 L 262.359375 742.453125 L 262.359375 755.867188 L 255.945312 755.867188 Z M 255.945312 742.453125 " fill-opacity="1" fill-rule="nonzero"/><path fill="#ffffff" d="M 247.226562 762.402344 L 247.707031 762.402344 L 253.644531 755.867188 L 253.644531 738.515625 L 247.226562 738.515625 Z M 247.226562 762.402344 " fill-opacity="1" fill-rule="nonzero"/><path fill="#001e63" d="M 548.113281 340.042969 L 577.757812 340.042969 L 595.890625 372.035156 L 614.160156 340.042969 L 643.855469 340.042969 L 643.855469 433.484375 L 620.035156 433.484375 L 620.035156 374.199219 L 604.011719 401.4375 L 587.902344 401.4375 L 571.878906 374.199219 L 571.878906 433.484375 L 548.113281 433.484375 Z M 548.113281 340.042969 " fill-opacity="1" fill-rule="evenodd"/><g clip-path="url(#ddec0411bd)"><path fill="#001e63" d="M 682.558594 389.960938 L 705.789062 389.960938 C 705.496094 385.605469 702.3125 380.90625 694.96875 380.90625 C 688.691406 380.90625 684.578125 383.445312 682.574219 389.960938 Z M 697.75 436.027344 C 673.050781 436.027344 660.015625 419.363281 660.015625 399.710938 C 660.015625 380.058594 672.117188 363.445312 694.949219 363.445312 C 714.050781 363.445312 726.597656 376.082031 726.597656 394.371094 C 726.597656 398.933594 725.90625 403.183594 725.234375 405.585938 L 681.726562 405.585938 C 683.488281 413.332031 689.230469 417.097656 698.148438 417.097656 C 704.421875 417.097656 709.660156 414.558594 712.703125 410.6875 L 727.6875 422.542969 C 721.277344 430.980469 710.730469 436.0625 697.75 436.0625 L 697.75 436.007812 Z M 697.75 436.027344 " fill-opacity="1" fill-rule="evenodd"/></g><path fill="#001e63" d="M 741.015625 366.109375 L 762.222656 366.109375 L 762.222656 371.554688 C 766.339844 367.679688 771.542969 364.792969 778.488281 364.792969 C 780.890625 364.792969 783.054688 365.191406 784.660156 365.726562 L 784.660156 387.972656 C 782.363281 387.4375 779.804688 387.039062 776.382812 387.039062 C 768.636719 387.039062 763.539062 391.605469 762.222656 393.851562 L 762.222656 433.398438 L 741.015625 433.398438 Z M 741.015625 366.109375 " fill-opacity="1" fill-rule="evenodd"/><g clip-path="url(#65d208a5bb)"><path fill="#001e63" d="M 840.578125 409.769531 L 857.429688 422.5625 C 851.105469 430.839844 841.113281 436.078125 828.71875 436.078125 C 804.953125 436.078125 791.332031 419.363281 791.332031 399.761719 C 791.332031 380.160156 804.953125 363.445312 828.71875 363.445312 C 841.113281 363.445312 851.105469 368.648438 857.429688 376.910156 L 840.578125 389.703125 C 838.175781 386.125 834.164062 383.339844 828.425781 383.339844 C 819.75 383.339844 813.335938 389.859375 813.335938 399.761719 C 813.335938 409.667969 819.75 416.183594 828.824219 416.183594 C 834.011719 416.183594 838.175781 413.347656 840.578125 409.769531 Z M 840.578125 409.769531 " fill-opacity="1" fill-rule="evenodd"/></g><g clip-path="url(#fe8e66ef54)"><path fill="#001e63" d="M 867.820312 366.160156 L 889.027344 366.160156 L 889.027344 433.484375 L 867.820312 433.484375 Z M 865.175781 345.332031 C 865.175781 338.125 871.292969 332.003906 878.65625 332.003906 C 886.019531 332.003906 891.878906 338.125 891.878906 345.332031 C 891.878906 352.539062 885.710938 358.796875 878.65625 358.796875 C 871.605469 358.796875 865.175781 352.523438 865.175781 345.332031 Z M 865.175781 345.332031 " fill-opacity="1" fill-rule="evenodd"/></g></svg>