<svg xmlns="http://www.w3.org/2000/svg" width="75.767" height="76.248"><path style="fill:#5b8dc9;fill-opacity:1;fill-rule:nonzero;stroke:none;stroke-width:1.01882696" d="M414.435 401.208c0-3.016 2.507-5.462 5.6-5.462h64.569c3.092 0 5.599 2.446 5.599 5.462v65.324c0 3.017-2.507 5.462-5.6 5.462h-64.569c-3.092 0-5.599-2.445-5.599-5.462z" transform="translate(-414.435 -395.746)"/><path style="fill:#fff;fill-opacity:1;fill-rule:evenodd;stroke:none;stroke-width:1.01882696" d="M437.403 459.573v-34.43h-11.444v34.43zm-5.722-39.13c3.99 0 6.474-2.645 6.474-5.949-.074-3.378-2.484-5.949-6.399-5.949-3.914 0-6.474 2.57-6.474 5.95 0 3.303 2.484 5.947 6.324 5.947h.074zM443.735 459.573h11.444v-19.227c0-1.03.074-2.057.376-2.793.828-2.056 2.71-4.185 5.872-4.185 4.141 0 5.798 3.157 5.798 7.786v18.42h11.443V439.83c0-10.575-5.646-15.496-13.175-15.496-6.174 0-8.884 3.45-10.39 5.801h.076v-4.993h-11.444c.15 3.23 0 34.43 0 34.43z" transform="translate(-414.435 -395.746)"/></svg>