<?xml version="1.0" encoding="UTF-8"?>
<svg id="LOGO" xmlns="http://www.w3.org/2000/svg" version="1.1" viewBox="0 0 1524.05 829.94">
  <!-- Generator: Adobe Illustrator 29.1.0, SVG Export Plug-In . SVG Version: 2.1.0 Build 142)  -->
  <defs>
    <style>
      .st0 {
        fill: #46724b;
      }

      .st1 {
        fill: #99c221;
      }

      .st2 {
        fill: #ffca00;
      }
    </style>
  </defs>
  <g>
    <path d="M229.23,161.4h52.96l75.46,199.32h-43l-19.08-51.82h-79.73l-19.08,51.82h-43l75.46-199.32ZM283.05,274.44l-27.33-74.89-27.34,74.89h54.67Z"/>
    <path d="M389.25,350.75c-5.7-5.7-8.83-13.38-8.83-20.79,0-11.39,4.84-20.5,15.66-28.47-12.53-9.4-19.36-23.63-19.36-39.58,0-27.91,21.64-50.4,57.52-50.4,11.11,0,20.79,1.99,29.04,5.7h52.39v30.75h-25.34c1.42,4.56,1.99,9.11,1.99,13.95,0,28.19-21.07,50.97-58.09,50.97-4.84,0-9.4-.29-13.67-1.14-3.13,2.85-4.84,5.98-4.84,9.11,0,5.7,3.13,8.54,9.68,8.54h36.16c36.16,0,55.81,19.36,55.81,46.13,0,31.89-30.47,56.38-75.17,56.38s-72.89-15.95-72.89-46.13c0-14.24,7.12-25.63,19.93-35.02ZM441.93,402.86c26.2,0,39.58-9.68,39.58-23.92,0-10.82-6.55-18.51-23.92-18.51h-44.42c-5.41,5.12-9.68,11.39-9.68,20.22,0,13.67,13.1,22.21,38.44,22.21ZM459.58,261.91c0-14.24-9.68-23.35-24.77-23.35s-25.06,9.4-25.06,23.35,9.4,23.63,25.06,23.63,24.77-9.4,24.77-23.63Z"/>
    <path d="M542.44,217.21h36.16v14.24c9.4-9.68,21.64-17.08,37.87-17.08,4.84,0,9.11.85,12.53,1.99v35.59c-4.56-1.14-9.4-1.99-15.95-1.99-17.65,0-29.04,9.68-34.45,18.79v91.97h-36.16v-143.51Z"/>
    <path d="M721.55,366.41c-50.97,0-79.73-35.59-79.73-77.45s26.77-77.45,73.75-77.45c39.86,0,66.06,27.05,66.06,64.64,0,7.97-1.14,15.38-2.28,20.22h-100.51c3.42,26.77,19.93,37.59,42.43,37.59,15.66,0,29.33-6.83,37.02-17.08l25.91,20.5c-13.38,17.94-35.59,29.04-62.64,29.04ZM679.97,270.17h66.06c-.57-14.52-11.11-29.04-31.32-29.04-18.51,0-30.75,10.25-34.74,29.04Z"/>
    <path d="M826.33,318.29c8.83,11.11,19.36,19.08,33.03,19.08,11.67,0,17.65-6.83,17.65-15.38,0-25.06-68.62-15.66-68.62-66.06,0-25.34,21.36-44.42,51.25-44.42,21.93,0,41.86,10.54,52.11,24.49l-23.92,21.07c-7.4-9.11-16.8-16.51-27.91-16.51s-16.8,6.26-16.8,13.67c0,24.49,68.62,15.95,68.62,65.49-.57,30.18-24.77,46.7-51.82,46.7-25.63,0-43.85-10.25-57.52-26.48l23.92-21.64Z"/>
    <path d="M956.46,249.67h-26.77v-32.46h26.77v-35.88h36.45v35.88h43.85v32.46h-43.85v58.66c0,15.95,8.54,22.21,22.78,22.21,9.97,0,16.52-1.14,21.36-3.13v31.61c-7.12,3.13-15.66,4.56-27.62,4.56-35.88,0-52.96-20.22-52.96-55.24v-58.66Z"/>
    <path d="M1135.84,366.41c-50.97,0-79.73-35.59-79.73-77.45s26.77-77.45,73.75-77.45c39.87,0,66.06,27.05,66.06,64.64,0,7.97-1.14,15.38-2.28,20.22h-100.51c3.42,26.77,19.93,37.59,42.43,37.59,15.66,0,29.33-6.83,37.02-17.08l25.91,20.5c-13.38,17.94-35.59,29.04-62.64,29.04ZM1094.27,270.17h66.06c-.57-14.52-11.11-29.04-31.32-29.04-18.51,0-30.75,10.25-34.74,29.04Z"/>
  </g>
  <g>
    <rect class="st0" x="1325.7" y="136.3" width="36.54" height="124.2"/>
    <rect class="st2" x="1276.07" y="183.95" width="36.54" height="76.54"/>
    <polygon class="st1" points="1226.44 297.78 1229.16 297.78 1262.99 260.5 1262.99 161.48 1226.44 161.48 1226.44 297.78"/>
  </g>
  <path d="M164.78,506.84c3.01,3.88,6.51,5.95,10.59,5.95,4.88,0,7.7-2.94,7.7-6.95,0-9.9-20.79-7.77-20.79-22.24,0-6.52,5.39-11.84,13.03-11.84,6.14,0,10.65,2.82,13.91,7.14l-4.45,3.88c-2.57-3.7-5.64-5.76-9.39-5.76-4.32,0-7.08,2.69-7.08,6.45,0,9.83,20.73,7.58,20.73,22.17,0,7.58-5.83,12.4-13.59,12.4-6.45,0-11.21-2.44-15.03-7.2l4.38-4.01ZM200.17,490.12h-5.95v-4.82h5.95v-7.89h5.39v7.89h10.96v4.82h-10.96v16.16c0,4.95,2.5,6.33,6.33,6.33,2.07,0,3.51-.25,4.7-.75v4.76c-1.5.63-3.19.88-5.45.88-7.02,0-10.96-3.51-10.96-11.21v-16.16ZM222.85,508.91c0-4.76,3.63-8.14,10.34-9.27l10.65-1.75v-2.19c0-4.38-3.13-6.89-7.64-6.89-3.63,0-6.58,1.69-8.52,4.38l-4.01-3.07c2.76-3.76,7.2-6.08,12.72-6.08,8.02,0,12.78,4.7,12.78,11.65v21.17h-5.32v-4.01c-2.38,3.07-6.51,4.89-10.59,4.89-6.2,0-10.4-3.45-10.4-8.83ZM234.12,513.35c4.2,0,7.64-2,9.71-5.39v-6.2l-9.33,1.57c-4.32.75-6.26,2.69-6.26,5.39s2.19,4.63,5.89,4.63ZM261.69,490.12h-5.95v-4.82h5.95v-7.89h5.39v7.89h10.96v4.82h-10.96v16.16c0,4.95,2.5,6.33,6.33,6.33,2.07,0,3.51-.25,4.7-.75v4.76c-1.5.63-3.19.88-5.45.88-7.02,0-10.96-3.51-10.96-11.21v-16.16ZM285.12,473.33c0-2,1.69-3.7,3.76-3.7s3.7,1.69,3.7,3.7-1.63,3.76-3.7,3.76-3.76-1.69-3.76-3.76ZM286.18,485.29h5.32v31.57h-5.32v-31.57ZM302.91,509.35c2.19,2.76,4.82,4.32,8.02,4.32,3.51,0,5.51-2.13,5.51-4.89,0-7.08-15.78-4.57-15.78-15.72,0-4.95,4.2-9.02,10.27-9.02,4.51,0,8.39,2.13,10.59,5.2l-3.7,3.13c-1.69-2.38-4.07-3.88-6.83-3.88-3.38,0-5.2,2-5.2,4.45,0,7.08,15.85,4.82,15.85,15.6-.06,5.89-4.76,9.58-10.65,9.58-5.01,0-8.96-2-11.84-5.58l3.76-3.19ZM332.35,490.12h-5.95v-4.82h5.95v-7.89h5.39v7.89h10.96v4.82h-10.96v16.16c0,4.95,2.51,6.33,6.33,6.33,2.07,0,3.51-.25,4.7-.75v4.76c-1.5.63-3.19.88-5.45.88-7.02,0-10.96-3.51-10.96-11.21v-16.16ZM355.78,473.33c0-2,1.69-3.7,3.76-3.7s3.7,1.69,3.7,3.7-1.63,3.76-3.7,3.76-3.76-1.69-3.76-3.76ZM356.84,485.29h5.32v31.57h-5.32v-31.57ZM386.97,484.04c4.7,0,8.39,1.82,11.21,5.07v-3.82h5.32v46.98h-5.32v-19.23c-2.82,3.26-6.51,5.07-11.21,5.07-9.9,0-16.22-7.83-16.22-17.04s6.33-17.04,16.22-17.04ZM387.54,513.1c4.45,0,8.27-2.13,10.65-5.89v-12.28c-2.44-3.82-6.26-5.89-10.65-5.89-6.64,0-11.21,5.32-11.21,12.03s4.57,12.03,11.21,12.03ZM436.77,485.29h5.32v17.85c0,9.46-5.45,14.97-14.03,14.97s-13.97-5.51-13.97-14.97v-17.85h5.32v18.04c0,6.2,3.32,9.77,8.71,9.77s8.64-3.57,8.64-9.77v-18.04ZM467.16,518.11c-10.65,0-17.23-7.83-17.23-17.04s6.14-17.04,15.91-17.04c8.58,0,14.16,6.01,14.16,13.78,0,1.25-.19,2.44-.38,3.32h-24.24c.19,7.58,5.01,12.15,11.78,12.15,4.07,0,7.52-1.88,9.58-4.7l3.95,3.07c-2.94,3.95-7.64,6.45-13.53,6.45ZM455.76,497.07h18.92c-.19-4.64-3.38-8.52-8.96-8.52-5.2,0-8.83,3.07-9.96,8.52ZM505.93,485.29h5.32v3.76c2.82-3.2,6.51-5.01,11.21-5.01,9.9,0,16.22,7.83,16.22,17.04s-6.33,17.04-16.22,17.04c-4.7,0-8.39-1.82-11.21-5.01v19.17h-5.32v-46.98ZM511.26,494.94v12.28c2.44,3.82,6.26,5.89,10.59,5.89,6.7,0,11.27-5.32,11.27-12.03s-4.57-12.03-11.27-12.03c-4.38,0-8.21,2.13-10.59,5.89ZM569.26,485.29h5.32v17.85c0,9.46-5.45,14.97-14.03,14.97s-13.97-5.51-13.97-14.97v-17.85h5.32v18.04c0,6.2,3.32,9.77,8.71,9.77s8.64-3.57,8.64-9.77v-18.04ZM601.65,518.11c-4.7,0-8.39-1.82-11.21-5.01v3.76h-5.32v-46.98h5.32v19.17c2.82-3.2,6.51-5.01,11.21-5.01,9.9,0,16.22,7.83,16.22,17.04s-6.33,17.04-16.22,17.04ZM590.44,494.88v12.4c2.44,3.76,6.26,5.83,10.59,5.83,6.7,0,11.27-5.32,11.27-12.03s-4.57-12.03-11.27-12.03c-4.38,0-8.27,2.13-10.59,5.82ZM626.52,469.88h5.32v46.98h-5.32v-46.98ZM642.06,473.33c0-2,1.69-3.7,3.76-3.7s3.7,1.69,3.7,3.7-1.63,3.76-3.7,3.76-3.76-1.69-3.76-3.76ZM643.12,485.29h5.32v31.57h-5.32v-31.57ZM673.25,484.04c4.7,0,8.39,1.82,11.21,5.07v-3.82h5.32v46.98h-5.32v-19.23c-2.82,3.26-6.51,5.07-11.21,5.07-9.9,0-16.22-7.83-16.22-17.04s6.33-17.04,16.22-17.04ZM673.81,513.1c4.45,0,8.27-2.13,10.65-5.89v-12.28c-2.44-3.82-6.26-5.89-10.65-5.89-6.64,0-11.21,5.32-11.21,12.03s4.57,12.03,11.21,12.03ZM723.05,485.29h5.32v17.85c0,9.46-5.45,14.97-14.03,14.97s-13.97-5.51-13.97-14.97v-17.85h5.32v18.04c0,6.2,3.32,9.77,8.71,9.77s8.64-3.57,8.64-9.77v-18.04ZM753.43,518.11c-10.65,0-17.23-7.83-17.23-17.04s6.14-17.04,15.91-17.04c8.58,0,14.16,6.01,14.16,13.78,0,1.25-.19,2.44-.38,3.32h-24.24c.19,7.58,5.01,12.15,11.78,12.15,4.07,0,7.52-1.88,9.58-4.7l3.95,3.07c-2.94,3.95-7.64,6.45-13.53,6.45ZM742.03,497.07h18.92c-.19-4.64-3.38-8.52-8.96-8.52-5.2,0-8.83,3.07-9.96,8.52ZM175.93,559.21c4.7,0,8.39,1.82,11.21,5.01v-19.17h5.32v46.98h-5.32v-3.76c-2.82,3.19-6.51,5.01-11.21,5.01-9.9,0-16.22-7.83-16.22-17.04s6.33-17.04,16.22-17.04ZM176.55,588.28c4.38,0,8.27-2.13,10.59-5.83v-12.4c-2.44-3.76-6.26-5.83-10.59-5.83-6.7,0-11.21,5.32-11.21,12.03s4.51,12.03,11.21,12.03ZM218.21,593.29c-10.65,0-17.23-7.83-17.23-17.04s6.14-17.04,15.91-17.04c8.58,0,14.16,6.01,14.16,13.78,0,1.25-.19,2.44-.38,3.32h-24.24c.19,7.58,5.01,12.15,11.78,12.15,4.07,0,7.52-1.88,9.58-4.7l3.95,3.07c-2.94,3.95-7.64,6.45-13.53,6.45ZM206.81,572.24h18.92c-.19-4.63-3.38-8.52-8.96-8.52-5.2,0-8.83,3.07-9.96,8.52ZM256.99,545.06h5.32v46.98h-5.32v-46.98ZM270.96,564.97l5.32-16.79h6.08l-6.45,16.79h-4.95ZM286.43,584.08c0-4.76,3.63-8.14,10.33-9.27l10.65-1.75v-2.19c0-4.38-3.13-6.89-7.64-6.89-3.63,0-6.58,1.69-8.52,4.38l-4.01-3.07c2.76-3.76,7.2-6.08,12.71-6.08,8.02,0,12.78,4.7,12.78,11.65v21.17h-5.32v-4.01c-2.38,3.07-6.51,4.88-10.58,4.88-6.2,0-10.4-3.45-10.4-8.83ZM297.71,588.53c4.2,0,7.64-2,9.71-5.39v-6.2l-9.33,1.57c-4.32.75-6.26,2.69-6.26,5.39s2.19,4.63,5.89,4.63ZM324.52,589.78c-1.44-1.13-2.19-2.82-2.19-4.51,0-2.51,1.31-4.57,3.76-6.14-2.76-2.07-4.38-5.26-4.38-8.77,0-6.08,4.76-11.21,12.28-11.21,2.32,0,4.38.5,6.08,1.32h11.71v4.63h-6.83c.88,1.57,1.32,3.38,1.32,5.26,0,6.01-4.7,11.15-12.28,11.15-1.57,0-3.07-.25-4.38-.63-1.32.94-2.07,2.07-2.07,3.26,0,1.32.69,2.25,2.63,2.25h9.02c8.33,0,12.21,4.07,12.21,9.71,0,6.64-6.64,11.59-16.1,11.59s-15.47-3.63-15.47-9.96c0-3.2,1.57-5.76,4.7-7.96ZM335.23,603.25c6.64,0,10.84-2.63,10.84-6.77,0-3.01-1.69-5.39-7.33-5.39h-10.21c-2.19,1.63-3.51,3.51-3.51,6.01,0,3.82,3.95,6.14,10.21,6.14ZM341.24,570.36c0-3.88-2.63-7.02-7.2-7.02s-7.27,3.13-7.27,7.02,2.57,6.95,7.27,6.95,7.2-3.13,7.2-6.95ZM358.28,560.47h5.32v3.95c2.32-2.76,5.2-4.57,9.21-4.57,1,0,1.94.12,2.69.38v5.2c-.94-.25-1.88-.38-3.13-.38-4.13,0-6.83,2.13-8.77,5.32v21.67h-5.32v-31.57ZM382.09,548.5c0-2,1.69-3.7,3.76-3.7s3.7,1.69,3.7,3.7-1.63,3.76-3.7,3.76-3.76-1.69-3.76-3.76ZM383.15,560.47h5.32v31.57h-5.32v-31.57ZM423.3,583.64l4.2,3.19c-2.94,3.95-7.52,6.45-13.28,6.45-10.46,0-17.16-7.83-17.16-17.04s6.7-17.04,17.16-17.04c5.7,0,10.33,2.57,13.28,6.45l-4.2,3.19c-1.94-2.76-5.14-4.63-9.08-4.63-6.76,0-11.59,5.32-11.59,12.03s4.82,12.03,11.65,12.03c3.88,0,7.08-1.88,9.02-4.63ZM456.82,560.47h5.32v17.85c0,9.46-5.45,14.97-14.03,14.97s-13.97-5.51-13.97-14.97v-17.85h5.32v18.04c0,6.2,3.32,9.77,8.71,9.77s8.64-3.57,8.64-9.77v-18.04ZM472.67,545.06h5.32v46.98h-5.32v-46.98ZM491.09,565.29h-5.95v-4.82h5.95v-7.89h5.39v7.89h10.96v4.82h-10.96v16.16c0,4.95,2.51,6.33,6.33,6.33,2.07,0,3.51-.25,4.7-.75v4.76c-1.5.63-3.19.88-5.45.88-7.02,0-10.96-3.51-10.96-11.21v-16.16ZM537.38,560.47h5.32v17.85c0,9.46-5.45,14.97-14.03,14.97s-13.97-5.51-13.97-14.97v-17.85h5.32v18.04c0,6.2,3.32,9.77,8.71,9.77s8.64-3.57,8.64-9.77v-18.04ZM553.23,560.47h5.32v3.95c2.32-2.76,5.2-4.57,9.21-4.57,1,0,1.94.12,2.69.38v5.2c-.94-.25-1.88-.38-3.13-.38-4.13,0-6.83,2.13-8.77,5.32v21.67h-5.32v-31.57ZM590.75,593.29c-10.65,0-17.23-7.83-17.23-17.04s6.14-17.04,15.91-17.04c8.58,0,14.16,6.01,14.16,13.78,0,1.25-.19,2.44-.38,3.32h-24.24c.19,7.58,5.01,12.15,11.78,12.15,4.07,0,7.52-1.88,9.58-4.7l3.95,3.07c-2.94,3.95-7.64,6.45-13.53,6.45ZM579.35,572.24h18.92c-.19-4.63-3.38-8.52-8.96-8.52-5.2,0-8.83,3.07-9.96,8.52ZM609.36,602.06l5.32-16.6h6.08l-6.45,16.6h-4.95ZM659.59,559.21c4.7,0,8.39,1.82,11.21,5.01v-19.17h5.32v46.98h-5.32v-3.76c-2.82,3.19-6.51,5.01-11.21,5.01-9.9,0-16.22-7.83-16.22-17.04s6.33-17.04,16.22-17.04ZM660.22,588.28c4.38,0,8.27-2.13,10.58-5.83v-12.4c-2.44-3.76-6.26-5.83-10.58-5.83-6.7,0-11.21,5.32-11.21,12.03s4.51,12.03,11.21,12.03ZM701.88,593.29c-10.65,0-17.23-7.83-17.23-17.04s6.14-17.04,15.91-17.04c8.58,0,14.16,6.01,14.16,13.78,0,1.25-.19,2.44-.38,3.32h-24.24c.19,7.58,5.01,12.15,11.78,12.15,4.07,0,7.52-1.88,9.58-4.7l3.95,3.07c-2.94,3.95-7.64,6.45-13.53,6.45ZM690.48,572.24h18.92c-.19-4.63-3.38-8.52-8.96-8.52-5.2,0-8.83,3.07-9.96,8.52ZM740.65,545.06h5.32v46.98h-5.32v-46.98ZM754.62,564.97l5.32-16.79h6.08l-6.45,16.79h-4.95ZM770.1,584.08c0-4.76,3.63-8.14,10.33-9.27l10.65-1.75v-2.19c0-4.38-3.13-6.89-7.64-6.89-3.63,0-6.58,1.69-8.52,4.38l-4.01-3.07c2.76-3.76,7.2-6.08,12.72-6.08,8.02,0,12.78,4.7,12.78,11.65v21.17h-5.32v-4.01c-2.38,3.07-6.51,4.88-10.59,4.88-6.2,0-10.4-3.45-10.4-8.83ZM781.37,588.53c4.2,0,7.64-2,9.71-5.39v-6.2l-9.33,1.57c-4.32.75-6.26,2.69-6.26,5.39s2.19,4.63,5.89,4.63ZM807.12,545.06h5.32v46.98h-5.32v-46.98ZM822.65,548.5c0-2,1.69-3.7,3.76-3.7s3.7,1.69,3.7,3.7-1.63,3.76-3.7,3.76-3.76-1.69-3.76-3.76ZM823.72,560.47h5.32v31.57h-5.32v-31.57ZM840.32,560.47h5.32v3.45c2.38-2.76,5.51-4.7,9.9-4.7s8.33,2.07,10.27,6.08c2.51-3.45,5.83-6.08,11.28-6.08,6.76,0,11.71,4.51,11.71,13.09v19.73h-5.32v-19.54c0-5.26-2.94-8.27-7.45-8.27-4.01,0-6.83,2.25-8.89,5.95.06.69.12,1.38.12,2.13v19.73h-5.32v-19.54c0-5.26-2.88-8.27-7.45-8.27-4.32,0-7.02,2.69-8.83,5.95v21.86h-5.32v-31.57ZM914.05,593.29c-10.65,0-17.23-7.83-17.23-17.04s6.14-17.04,15.91-17.04c8.58,0,14.16,6.01,14.16,13.78,0,1.25-.19,2.44-.38,3.32h-24.24c.19,7.58,5.01,12.15,11.78,12.15,4.07,0,7.52-1.88,9.58-4.7l3.95,3.07c-2.94,3.95-7.64,6.45-13.53,6.45ZM902.65,572.24h18.92c-.19-4.63-3.38-8.52-8.96-8.52-5.2,0-8.83,3.07-9.96,8.52ZM935.91,560.47h5.32v3.57c2.57-2.82,5.83-4.82,10.52-4.82,7.08,0,12.34,4.76,12.34,13.72v19.1h-5.32v-18.92c0-5.64-3.19-8.89-8.08-8.89-4.57,0-7.45,2.63-9.46,5.95v21.86h-5.32v-31.57ZM976.63,565.29h-5.95v-4.82h5.95v-7.89h5.39v7.89h10.96v4.82h-10.96v16.16c0,4.95,2.51,6.33,6.33,6.33,2.07,0,3.51-.25,4.7-.75v4.76c-1.5.63-3.19.88-5.45.88-7.02,0-10.96-3.51-10.96-11.21v-16.16ZM999.31,584.08c0-4.76,3.63-8.14,10.33-9.27l10.65-1.75v-2.19c0-4.38-3.13-6.89-7.64-6.89-3.63,0-6.58,1.69-8.52,4.38l-4.01-3.07c2.76-3.76,7.2-6.08,12.72-6.08,8.02,0,12.78,4.7,12.78,11.65v21.17h-5.32v-4.01c-2.38,3.07-6.51,4.88-10.59,4.88-6.2,0-10.4-3.45-10.4-8.83ZM1010.58,588.53c4.2,0,7.64-2,9.71-5.39v-6.2l-9.33,1.57c-4.32.75-6.26,2.69-6.26,5.39s2.19,4.63,5.89,4.63ZM1038.15,565.29h-5.95v-4.82h5.95v-7.89h5.39v7.89h10.96v4.82h-10.96v16.16c0,4.95,2.51,6.33,6.33,6.33,2.07,0,3.51-.25,4.7-.75v4.76c-1.5.63-3.19.88-5.45.88-7.02,0-10.96-3.51-10.96-11.21v-16.16ZM1061.57,548.5c0-2,1.69-3.7,3.76-3.7s3.7,1.69,3.7,3.7-1.63,3.76-3.7,3.76-3.76-1.69-3.76-3.76ZM1062.64,560.47h5.32v31.57h-5.32v-31.57ZM1110.75,576.25c0,9.21-6.95,17.04-17.1,17.04s-17.1-7.83-17.1-17.04,6.89-17.04,17.1-17.04,17.1,7.83,17.1,17.04ZM1105.11,576.25c0-6.58-4.82-12.03-11.4-12.03s-11.59,5.45-11.59,12.03,4.82,12.03,11.59,12.03,11.4-5.51,11.4-12.03ZM1119.33,560.47h5.32v3.57c2.57-2.82,5.83-4.82,10.52-4.82,7.08,0,12.34,4.76,12.34,13.72v19.1h-5.32v-18.92c0-5.64-3.2-8.89-8.08-8.89-4.57,0-7.46,2.63-9.46,5.95v21.86h-5.32v-31.57ZM176.93,668.46c-10.65,0-17.23-7.83-17.23-17.04s6.14-17.04,15.91-17.04c8.58,0,14.16,6.01,14.16,13.78,0,1.25-.19,2.44-.38,3.32h-24.24c.19,7.58,5.01,12.15,11.78,12.15,4.07,0,7.52-1.88,9.58-4.7l3.95,3.07c-2.94,3.95-7.64,6.45-13.53,6.45ZM165.53,647.41h18.92c-.19-4.63-3.38-8.52-8.96-8.52-5.2,0-8.83,3.07-9.96,8.52ZM200.42,640.46h-5.95v-4.82h5.95v-7.89h5.39v7.89h10.96v4.82h-10.96v16.16c0,4.95,2.5,6.33,6.33,6.33,2.07,0,3.51-.25,4.7-.75v4.76c-1.5.63-3.19.88-5.45.88-7.02,0-10.96-3.51-10.96-11.21v-16.16ZM255.36,634.39c4.7,0,8.39,1.82,11.21,5.01v-19.17h5.32v46.98h-5.32v-3.76c-2.82,3.2-6.51,5.01-11.21,5.01-9.9,0-16.22-7.83-16.22-17.04s6.33-17.04,16.22-17.04ZM255.99,663.45c4.38,0,8.27-2.13,10.59-5.82v-12.4c-2.44-3.76-6.26-5.83-10.59-5.83-6.7,0-11.21,5.32-11.21,12.03s4.51,12.03,11.21,12.03ZM297.64,668.46c-10.65,0-17.23-7.83-17.23-17.04s6.14-17.04,15.91-17.04c8.58,0,14.16,6.01,14.16,13.78,0,1.25-.19,2.44-.38,3.32h-24.24c.19,7.58,5.01,12.15,11.78,12.15,4.07,0,7.52-1.88,9.58-4.7l3.95,3.07c-2.94,3.95-7.64,6.45-13.53,6.45ZM286.24,647.41h18.92c-.19-4.63-3.38-8.52-8.96-8.52-5.2,0-8.83,3.07-9.96,8.52ZM336.42,620.23h5.32v46.98h-5.32v-46.98ZM351.2,659.25c0-4.76,3.63-8.14,10.33-9.27l10.65-1.75v-2.19c0-4.38-3.13-6.89-7.64-6.89-3.63,0-6.58,1.69-8.52,4.38l-4.01-3.07c2.76-3.76,7.2-6.08,12.71-6.08,8.02,0,12.78,4.7,12.78,11.65v21.17h-5.32v-4.01c-2.38,3.07-6.51,4.89-10.58,4.89-6.2,0-10.4-3.45-10.4-8.83ZM362.48,663.7c4.2,0,7.64-2,9.71-5.39v-6.2l-9.33,1.57c-4.32.75-6.26,2.69-6.26,5.39s2.19,4.64,5.89,4.64ZM406.96,635.64v-3.88c0-6.7,4.32-11.53,11.21-11.53,2.88,0,5.2.81,6.95,1.82l-2.38,4.45c-1.19-.88-2.63-1.44-4.45-1.44-3.57,0-5.95,2.44-5.95,6.58v4.01h10.96v4.82h-10.96v26.75h-5.39v-26.75h-5.95v-4.82h5.95ZM459.57,651.42c0,9.21-6.95,17.04-17.1,17.04s-17.1-7.83-17.1-17.04,6.89-17.04,17.1-17.04,17.1,7.83,17.1,17.04ZM453.93,651.42c0-6.58-4.82-12.03-11.4-12.03s-11.59,5.45-11.59,12.03,4.82,12.03,11.59,12.03,11.4-5.51,11.4-12.03ZM468.16,635.64h5.32v3.95c2.32-2.76,5.2-4.57,9.21-4.57,1,0,1.94.13,2.69.38v5.2c-.94-.25-1.88-.38-3.13-.38-4.13,0-6.83,2.13-8.77,5.32v21.67h-5.32v-31.57ZM505.68,668.46c-10.65,0-17.23-7.83-17.23-17.04s6.14-17.04,15.91-17.04c8.58,0,14.16,6.01,14.16,13.78,0,1.25-.19,2.44-.38,3.32h-24.24c.19,7.58,5.01,12.15,11.78,12.15,4.07,0,7.52-1.88,9.58-4.7l3.95,3.07c-2.94,3.95-7.64,6.45-13.53,6.45ZM494.28,647.41h18.92c-.19-4.63-3.38-8.52-8.96-8.52-5.2,0-8.83,3.07-9.96,8.52ZM494.34,630.63l6.58-10.4h7.2l6.51,10.4h-4.76l-5.32-7.89-5.39,7.89h-4.82ZM529.17,640.46h-5.95v-4.82h5.95v-7.89h5.39v7.89h10.96v4.82h-10.96v16.16c0,4.95,2.5,6.33,6.33,6.33,2.07,0,3.51-.25,4.7-.75v4.76c-1.5.63-3.19.88-5.45.88-7.02,0-10.96-3.51-10.96-11.21v-16.16Z"/>
</svg>