<?xml version="1.0" encoding="UTF-8"?>
<svg id="LOGO" xmlns="http://www.w3.org/2000/svg" version="1.1" viewBox="0 0 952.09 544.7">
  <!-- Generator: Adobe Illustrator 29.1.0, SVG Export Plug-In . SVG Version: 2.1.0 Build 142)  -->
  <defs>
    <style>
      .st0 {
        fill: #3558a2;
      }

      .st1 {
        fill: #7ab1e8;
      }

      .st2 {
        fill: #66673d;
      }
    </style>
  </defs>
  <g>
    <path d="M182.67,328.54c11.96,15.38,27.91,24.49,44.14,24.49s25.63-8.54,25.63-22.78c0-36.73-90.55-26.77-90.55-94.25,0-31.61,26.2-57.8,64.35-57.8,29.9,0,52.68,13.38,69.76,33.6l-29.61,26.77c-11.67-15.09-24.77-25.06-39.86-25.06-14.24,0-23.63,9.11-23.63,21.07,0,36.16,90.55,25.91,90.55,94.25-.57,37.59-29.61,60.08-66.35,60.08-33.6,0-56.09-12.24-73.75-33.32l29.33-27.05Z"/>
    <path d="M325.9,348.47l68.34-67.2c15.38-15.66,25.06-26.48,25.06-42.71s-11.39-26.2-27.05-26.2c-19.08,0-30.75,11.68-41.29,29.33l-31.32-19.08c16.8-27.34,41.57-44.42,76.31-44.42s62.64,22.21,62.64,56.38c0,27.33-17.94,48.41-37.59,67.48l-48.12,46.41h90.83v34.74h-137.82v-34.74Z"/>
    <path d="M502.43,183.89h116.18v33.6h-75.74v47.27h64.35v33.6h-64.35v51.25h75.74v33.6h-116.18v-199.32Z"/>
  </g>
  <g>
    <rect class="st1" x="753.74" y="136.3" width="36.54" height="124.2"/>
    <rect class="st0" x="704.11" y="183.95" width="36.54" height="76.54"/>
    <polygon class="st2" points="654.48 297.78 657.2 297.78 691.02 260.5 691.02 161.48 654.48 161.48 654.48 297.78"/>
  </g>
</svg>