<?xml version="1.0" encoding="UTF-8"?>
<svg id="LOGO" xmlns="http://www.w3.org/2000/svg" version="1.1" viewBox="0 0 1303.12 700.64">
  <!-- Generator: Adobe Illustrator 29.1.0, SVG Export Plug-In . SVG Version: 2.1.0 Build 142)  -->
  <defs>
    <style>
      .st0 {
        fill: #2f4077;
      }

      .st1 {
        fill: #ff732c;
      }

      .st2 {
        fill: #417dc4;
      }
    </style>
  </defs>
  <path d="M182.95,328.54c11.96,15.38,27.91,24.49,44.14,24.49s25.63-8.54,25.63-22.78c0-36.73-90.55-26.77-90.55-94.25,0-31.61,26.2-57.8,64.35-57.8,29.9,0,52.68,13.38,69.76,33.6l-29.61,26.77c-11.67-15.09-24.77-25.06-39.86-25.06-14.24,0-23.63,9.11-23.63,21.07,0,36.16,90.55,25.91,90.55,94.25-.57,37.59-29.61,60.08-66.35,60.08-33.6,0-56.09-12.24-73.75-33.32l29.33-27.05ZM348.39,328.54c11.96,15.38,27.91,24.49,44.14,24.49s25.63-8.54,25.63-22.78c0-36.73-90.55-26.77-90.55-94.25,0-31.61,26.2-57.8,64.35-57.8,29.9,0,52.68,13.38,69.76,33.6l-29.61,26.77c-11.67-15.09-24.77-25.06-39.86-25.06-14.24,0-23.63,9.11-23.63,21.07,0,36.16,90.55,25.91,90.55,94.25-.57,37.59-29.61,60.08-66.35,60.08-33.6,0-56.09-12.24-73.75-33.32l29.33-27.05ZM504.43,183.89h50.4l48.69,83.71,48.69-83.71h50.4v199.32h-40.43v-142.94l-44.42,74.6h-28.47l-44.42-74.6v142.94h-40.43v-199.32ZM772.37,328.54c11.96,15.38,27.91,24.49,44.14,24.49s25.63-8.54,25.63-22.78c0-36.73-90.55-26.77-90.55-94.25,0-31.61,26.2-57.8,64.35-57.8,29.9,0,52.68,13.38,69.76,33.6l-29.61,26.77c-11.67-15.09-24.77-25.06-39.86-25.06-14.24,0-23.63,9.11-23.63,21.07,0,36.16,90.55,25.91,90.55,94.25-.57,37.59-29.61,60.08-66.35,60.08-33.6,0-56.09-12.24-73.75-33.32l29.33-27.05ZM928.41,183.89h40.43v199.32h-40.43v-199.32Z"/>
  <g>
    <rect class="st1" x="1103.97" y="136.3" width="36.54" height="124.2"/>
    <rect class="st2" x="1054.34" y="183.95" width="36.54" height="76.54"/>
    <polygon class="st0" points="1004.71 297.78 1007.43 297.78 1041.25 260.5 1041.25 161.48 1004.71 161.48 1004.71 297.78"/>
  </g>
  <path d="M164.23,453.95c3.01,3.88,6.51,5.95,10.59,5.95,4.89,0,7.7-2.94,7.7-6.95,0-9.9-20.8-7.77-20.8-22.24,0-6.51,5.39-11.84,13.03-11.84,6.14,0,10.65,2.82,13.91,7.14l-4.45,3.88c-2.57-3.7-5.64-5.76-9.4-5.76-4.32,0-7.08,2.69-7.08,6.45,0,9.83,20.73,7.58,20.73,22.17,0,7.58-5.83,12.4-13.59,12.4-6.45,0-11.21-2.44-15.03-7.2l4.38-4.01ZM199.63,437.23h-5.95v-4.82h5.95v-7.89h5.39v7.89h10.96v4.82h-10.96v16.16c0,4.95,2.51,6.33,6.33,6.33,2.07,0,3.51-.25,4.7-.75v4.76c-1.5.63-3.19.88-5.45.88-7.02,0-10.96-3.51-10.96-11.21v-16.16ZM222.31,456.02c0-4.76,3.63-8.14,10.34-9.27l10.65-1.75v-2.19c0-4.38-3.13-6.89-7.64-6.89-3.63,0-6.58,1.69-8.52,4.38l-4.01-3.07c2.76-3.76,7.2-6.08,12.72-6.08,8.02,0,12.78,4.7,12.78,11.65v21.17h-5.32v-4.01c-2.38,3.07-6.51,4.89-10.59,4.89-6.2,0-10.4-3.45-10.4-8.83ZM233.58,460.47c4.2,0,7.64-2,9.71-5.39v-6.2l-9.33,1.57c-4.32.75-6.26,2.69-6.26,5.39s2.19,4.63,5.89,4.63ZM261.14,437.23h-5.95v-4.82h5.95v-7.89h5.39v7.89h10.96v4.82h-10.96v16.16c0,4.95,2.51,6.33,6.33,6.33,2.07,0,3.51-.25,4.7-.75v4.76c-1.5.63-3.19.88-5.45.88-7.02,0-10.96-3.51-10.96-11.21v-16.16ZM284.57,420.44c0-2,1.69-3.7,3.76-3.7s3.7,1.69,3.7,3.7-1.63,3.76-3.7,3.76-3.76-1.69-3.76-3.76ZM285.64,432.4h5.32v31.57h-5.32v-31.57ZM302.36,456.46c2.19,2.76,4.82,4.32,8.02,4.32,3.51,0,5.51-2.13,5.51-4.89,0-7.08-15.78-4.57-15.78-15.72,0-4.95,4.2-9.02,10.27-9.02,4.51,0,8.39,2.13,10.59,5.2l-3.7,3.13c-1.69-2.38-4.07-3.88-6.83-3.88-3.38,0-5.2,2-5.2,4.45,0,7.08,15.85,4.82,15.85,15.6-.06,5.89-4.76,9.58-10.65,9.58-5.01,0-8.96-2-11.84-5.58l3.76-3.19ZM331.81,437.23h-5.95v-4.82h5.95v-7.89h5.39v7.89h10.96v4.82h-10.96v16.16c0,4.95,2.51,6.33,6.33,6.33,2.07,0,3.51-.25,4.7-.75v4.76c-1.5.63-3.19.88-5.45.88-7.02,0-10.96-3.51-10.96-11.21v-16.16ZM355.23,420.44c0-2,1.69-3.7,3.76-3.7s3.7,1.69,3.7,3.7-1.63,3.76-3.7,3.76-3.76-1.69-3.76-3.76ZM356.3,432.4h5.32v31.57h-5.32v-31.57ZM386.43,431.15c4.7,0,8.39,1.82,11.21,5.07v-3.82h5.32v46.98h-5.32v-19.23c-2.82,3.26-6.51,5.07-11.21,5.07-9.9,0-16.22-7.83-16.22-17.04s6.33-17.04,16.22-17.04ZM386.99,460.22c4.45,0,8.27-2.13,10.65-5.89v-12.28c-2.44-3.82-6.26-5.89-10.65-5.89-6.64,0-11.21,5.32-11.21,12.03s4.57,12.03,11.21,12.03ZM436.23,432.4h5.32v17.85c0,9.46-5.45,14.97-14.03,14.97s-13.97-5.51-13.97-14.97v-17.85h5.32v18.04c0,6.2,3.32,9.77,8.71,9.77s8.64-3.57,8.64-9.77v-18.04ZM466.61,465.23c-10.65,0-17.23-7.83-17.23-17.04s6.14-17.04,15.91-17.04c8.58,0,14.16,6.01,14.16,13.78,0,1.25-.19,2.44-.38,3.32h-24.24c.19,7.58,5.01,12.15,11.78,12.15,4.07,0,7.52-1.88,9.58-4.7l3.95,3.07c-2.94,3.95-7.64,6.45-13.53,6.45ZM455.21,444.18h18.92c-.19-4.64-3.38-8.52-8.96-8.52-5.2,0-8.83,3.07-9.96,8.52ZM505.39,432.4h5.32v3.76c2.82-3.2,6.51-5.01,11.21-5.01,9.9,0,16.22,7.83,16.22,17.04s-6.33,17.04-16.22,17.04c-4.7,0-8.39-1.82-11.21-5.01v19.17h-5.32v-46.98ZM510.71,442.05v12.28c2.44,3.82,6.26,5.89,10.59,5.89,6.7,0,11.27-5.32,11.27-12.03s-4.57-12.03-11.27-12.03c-4.38,0-8.21,2.13-10.59,5.89ZM568.72,432.4h5.32v17.85c0,9.46-5.45,14.97-14.03,14.97s-13.97-5.51-13.97-14.97v-17.85h5.32v18.04c0,6.2,3.32,9.77,8.71,9.77s8.64-3.57,8.64-9.77v-18.04ZM601.1,465.23c-4.7,0-8.39-1.82-11.21-5.01v3.76h-5.32v-46.98h5.32v19.17c2.82-3.2,6.51-5.01,11.21-5.01,9.9,0,16.22,7.83,16.22,17.04s-6.33,17.04-16.22,17.04ZM589.89,441.99v12.4c2.44,3.76,6.26,5.83,10.58,5.83,6.7,0,11.28-5.32,11.28-12.03s-4.57-12.03-11.28-12.03c-4.38,0-8.27,2.13-10.58,5.83ZM625.98,417h5.32v46.98h-5.32v-46.98ZM641.51,420.44c0-2,1.69-3.7,3.76-3.7s3.7,1.69,3.7,3.7-1.63,3.76-3.7,3.76-3.76-1.69-3.76-3.76ZM642.58,432.4h5.32v31.57h-5.32v-31.57ZM672.71,431.15c4.7,0,8.39,1.82,11.21,5.07v-3.82h5.32v46.98h-5.32v-19.23c-2.82,3.26-6.51,5.07-11.21,5.07-9.9,0-16.22-7.83-16.22-17.04s6.33-17.04,16.22-17.04ZM673.27,460.22c4.45,0,8.27-2.13,10.65-5.89v-12.28c-2.44-3.82-6.26-5.89-10.65-5.89-6.64,0-11.21,5.32-11.21,12.03s4.57,12.03,11.21,12.03ZM722.51,432.4h5.32v17.85c0,9.46-5.45,14.97-14.03,14.97s-13.97-5.51-13.97-14.97v-17.85h5.32v18.04c0,6.2,3.32,9.77,8.71,9.77s8.64-3.57,8.64-9.77v-18.04ZM752.89,465.23c-10.65,0-17.22-7.83-17.22-17.04s6.14-17.04,15.91-17.04c8.58,0,14.16,6.01,14.16,13.78,0,1.25-.19,2.44-.38,3.32h-24.24c.19,7.58,5.01,12.15,11.78,12.15,4.07,0,7.52-1.88,9.58-4.7l3.95,3.07c-2.94,3.95-7.64,6.45-13.53,6.45ZM741.49,444.18h18.92c-.19-4.64-3.38-8.52-8.96-8.52-5.2,0-8.83,3.07-9.96,8.52ZM175.38,506.32c4.7,0,8.39,1.82,11.21,5.01v-19.17h5.32v46.98h-5.32v-3.76c-2.82,3.19-6.51,5.01-11.21,5.01-9.9,0-16.22-7.83-16.22-17.04s6.33-17.04,16.22-17.04ZM176.01,535.39c4.38,0,8.27-2.13,10.59-5.83v-12.4c-2.44-3.76-6.26-5.83-10.59-5.83-6.7,0-11.21,5.32-11.21,12.03s4.51,12.03,11.21,12.03ZM217.67,540.4c-10.65,0-17.23-7.83-17.23-17.04s6.14-17.04,15.91-17.04c8.58,0,14.16,6.01,14.16,13.78,0,1.25-.19,2.44-.38,3.32h-24.24c.19,7.58,5.01,12.15,11.78,12.15,4.07,0,7.52-1.88,9.58-4.7l3.95,3.07c-2.94,3.95-7.64,6.45-13.53,6.45ZM206.27,519.35h18.92c-.19-4.64-3.38-8.52-8.96-8.52-5.2,0-8.83,3.07-9.96,8.52ZM256.44,492.17h5.32v46.98h-5.32v-46.98ZM271.23,531.19c0-4.76,3.63-8.14,10.34-9.27l10.65-1.75v-2.19c0-4.38-3.13-6.89-7.64-6.89-3.63,0-6.58,1.69-8.52,4.38l-4.01-3.07c2.76-3.76,7.2-6.08,12.72-6.08,8.02,0,12.78,4.7,12.78,11.65v21.17h-5.32v-4.01c-2.38,3.07-6.51,4.89-10.59,4.89-6.2,0-10.4-3.45-10.4-8.83ZM282.5,535.64c4.2,0,7.64-2,9.71-5.39v-6.2l-9.33,1.57c-4.32.75-6.26,2.69-6.26,5.39s2.19,4.63,5.89,4.63ZM325.54,531.63c2.19,2.76,4.82,4.32,8.02,4.32,3.51,0,5.51-2.13,5.51-4.89,0-7.08-15.78-4.57-15.78-15.72,0-4.95,4.2-9.02,10.27-9.02,4.51,0,8.39,2.13,10.59,5.2l-3.7,3.13c-1.69-2.38-4.07-3.88-6.83-3.88-3.38,0-5.2,2-5.2,4.45,0,7.08,15.85,4.82,15.85,15.6-.06,5.89-4.76,9.58-10.65,9.58-5.01,0-8.96-2-11.84-5.58l3.76-3.19ZM367.07,540.4c-10.65,0-17.23-7.83-17.23-17.04s6.14-17.04,15.91-17.04c8.58,0,14.16,6.01,14.16,13.78,0,1.25-.19,2.44-.38,3.32h-24.24c.19,7.58,5.01,12.15,11.78,12.15,4.07,0,7.52-1.88,9.58-4.7l3.95,3.07c-2.94,3.95-7.64,6.45-13.53,6.45ZM355.67,519.35h18.92c-.19-4.64-3.38-8.52-8.96-8.52-5.2,0-8.83,3.07-9.96,8.52ZM363.37,502.57l6.51-10.4h6.01l-7.33,10.4h-5.2ZM412.36,530.75l4.2,3.19c-2.94,3.95-7.52,6.45-13.28,6.45-10.46,0-17.16-7.83-17.16-17.04s6.7-17.04,17.16-17.04c5.7,0,10.34,2.57,13.28,6.45l-4.2,3.19c-1.94-2.76-5.14-4.63-9.08-4.63-6.76,0-11.59,5.32-11.59,12.03s4.82,12.03,11.65,12.03c3.88,0,7.08-1.88,9.02-4.64ZM445.87,507.58h5.32v17.85c0,9.46-5.45,14.97-14.03,14.97s-13.97-5.51-13.97-14.97v-17.85h5.32v18.04c0,6.2,3.32,9.77,8.71,9.77s8.64-3.57,8.64-9.77v-18.04ZM461.73,507.58h5.32v3.95c2.32-2.76,5.2-4.57,9.21-4.57,1,0,1.94.12,2.69.38v5.2c-.94-.25-1.88-.38-3.13-.38-4.13,0-6.83,2.13-8.77,5.32v21.67h-5.32v-31.57ZM485.53,495.61c0-2,1.69-3.7,3.76-3.7s3.7,1.69,3.7,3.7-1.63,3.76-3.7,3.76-3.76-1.69-3.76-3.76ZM486.59,507.58h5.32v31.57h-5.32v-31.57ZM505.01,512.4h-5.95v-4.82h5.95v-7.89h5.39v7.89h10.96v4.82h-10.96v16.16c0,4.95,2.51,6.33,6.33,6.33,2.07,0,3.51-.25,4.7-.75v4.76c-1.5.63-3.19.88-5.45.88-7.02,0-10.96-3.51-10.96-11.21v-16.16ZM543.41,540.4c-10.65,0-17.23-7.83-17.23-17.04s6.14-17.04,15.91-17.04c8.58,0,14.16,6.01,14.16,13.78,0,1.25-.19,2.44-.38,3.32h-24.24c.19,7.58,5.01,12.15,11.78,12.15,4.07,0,7.52-1.88,9.58-4.7l3.95,3.07c-2.94,3.95-7.64,6.45-13.53,6.45ZM532.01,519.35h18.92c-.19-4.64-3.38-8.52-8.96-8.52-5.2,0-8.83,3.07-9.96,8.52ZM539.72,502.57l6.51-10.4h6.01l-7.33,10.4h-5.2ZM581.12,495.61c0-2,1.69-3.7,3.76-3.7s3.7,1.69,3.7,3.7-1.63,3.76-3.7,3.76-3.76-1.69-3.76-3.76ZM582.19,507.58h5.32v31.57h-5.32v-31.57ZM598.79,507.58h5.32v3.57c2.57-2.82,5.83-4.82,10.52-4.82,7.08,0,12.34,4.76,12.34,13.72v19.1h-5.32v-18.92c0-5.64-3.19-8.89-8.08-8.89-4.57,0-7.45,2.63-9.46,5.95v21.86h-5.32v-31.57ZM639.51,512.4h-5.95v-4.82h5.95v-7.89h5.39v7.89h10.96v4.82h-10.96v16.16c0,4.95,2.5,6.33,6.33,6.33,2.07,0,3.51-.25,4.7-.75v4.76c-1.5.63-3.2.88-5.45.88-7.01,0-10.96-3.51-10.96-11.21v-16.16ZM677.9,540.4c-10.65,0-17.22-7.83-17.22-17.04s6.14-17.04,15.91-17.04c8.58,0,14.16,6.01,14.16,13.78,0,1.25-.19,2.44-.38,3.32h-24.24c.19,7.58,5.01,12.15,11.78,12.15,4.07,0,7.52-1.88,9.58-4.7l3.95,3.07c-2.94,3.95-7.64,6.45-13.53,6.45ZM666.51,519.35h18.92c-.19-4.64-3.38-8.52-8.96-8.52-5.2,0-8.83,3.07-9.96,8.52ZM674.21,502.57l6.51-10.4h6.01l-7.33,10.4h-5.2ZM699.77,507.58h5.32v3.95c2.32-2.76,5.2-4.57,9.21-4.57,1,0,1.94.12,2.69.38v5.2c-.94-.25-1.88-.38-3.13-.38-4.13,0-6.83,2.13-8.77,5.32v21.67h-5.32v-31.57ZM723.57,495.61c0-2,1.69-3.7,3.76-3.7s3.7,1.69,3.7,3.7-1.63,3.76-3.7,3.76-3.76-1.69-3.76-3.76ZM724.64,507.58h5.32v31.57h-5.32v-31.57ZM755.77,540.4c-10.65,0-17.22-7.83-17.22-17.04s6.14-17.04,15.91-17.04c8.58,0,14.16,6.01,14.16,13.78,0,1.25-.19,2.44-.38,3.32h-24.24c.19,7.58,5.01,12.15,11.78,12.15,4.07,0,7.52-1.88,9.58-4.7l3.95,3.07c-2.94,3.95-7.64,6.45-13.53,6.45ZM744.37,519.35h18.92c-.19-4.64-3.38-8.52-8.96-8.52-5.2,0-8.83,3.07-9.96,8.52ZM799.12,507.58h5.32v17.85c0,9.46-5.45,14.97-14.03,14.97s-13.97-5.51-13.97-14.97v-17.85h5.32v18.04c0,6.2,3.32,9.77,8.71,9.77s8.64-3.57,8.64-9.77v-18.04ZM814.97,507.58h5.32v3.95c2.32-2.76,5.2-4.57,9.21-4.57,1,0,1.94.12,2.69.38v5.2c-.94-.25-1.88-.38-3.13-.38-4.13,0-6.83,2.13-8.77,5.32v21.67h-5.32v-31.57ZM852.49,540.4c-10.65,0-17.22-7.83-17.22-17.04s6.14-17.04,15.91-17.04c8.58,0,14.16,6.01,14.16,13.78,0,1.25-.19,2.44-.38,3.32h-24.24c.19,7.58,5.01,12.15,11.78,12.15,4.07,0,7.52-1.88,9.58-4.7l3.95,3.07c-2.94,3.95-7.64,6.45-13.53,6.45ZM841.09,519.35h18.92c-.19-4.64-3.38-8.52-8.96-8.52-5.2,0-8.83,3.07-9.96,8.52Z"/>
</svg>