<?xml version="1.0" encoding="UTF-8"?>
<svg id="LOGO" xmlns="http://www.w3.org/2000/svg" version="1.1" viewBox="0 0 1240.21 522.29">
  <!-- Generator: Adobe Illustrator 29.1.0, SVG Export Plug-In . SVG Version: 2.1.0 Build 142)  -->
  <defs>
    <style>
      .st0 {
        fill: #3558a2;
      }

      .st1 {
        fill: #ce614a;
      }

      .st2 {
        fill: #009099;
      }
    </style>
  </defs>
  <g>
    <path d="M161.81,161.48h78.3c63.21,0,105.92,45.84,105.92,99.66s-42.71,99.66-105.92,99.66h-78.3v-199.32ZM202.24,198.21v125.86h38.44c37.02,0,63.78-27.62,63.78-62.93s-26.77-62.93-63.78-62.93h-38.44Z"/>
    <path d="M380.2,217.29h36.16v14.24c9.4-9.68,21.64-17.08,37.87-17.08,4.84,0,9.11.85,12.53,1.99v35.59c-4.56-1.14-9.4-1.99-15.95-1.99-17.65,0-29.04,9.68-34.45,18.79v91.97h-36.16v-143.51Z"/>
    <path d="M559.31,366.5c-50.97,0-79.73-35.59-79.73-77.45s26.77-77.45,73.75-77.45c39.86,0,66.06,27.05,66.06,64.64,0,7.97-1.14,15.38-2.28,20.22h-100.51c3.42,26.77,19.93,37.59,42.43,37.59,15.66,0,29.33-6.83,37.02-17.08l25.91,20.5c-13.38,17.94-35.59,29.04-62.64,29.04ZM517.73,270.25h66.06c-.57-14.52-11.1-29.04-31.32-29.04-18.51,0-30.75,10.25-34.74,29.04Z"/>
    <path d="M723.03,366.5c-50.97,0-79.73-35.59-79.73-77.45s26.77-77.45,73.75-77.45c39.86,0,66.06,27.05,66.06,64.64,0,7.97-1.14,15.38-2.28,20.22h-100.51c3.42,26.77,19.93,37.59,42.43,37.59,15.66,0,29.33-6.83,37.02-17.08l25.91,20.5c-13.38,17.94-35.59,29.04-62.64,29.04ZM681.46,270.25h66.06c-.57-14.52-11.1-29.04-31.32-29.04-18.51,0-30.75,10.25-34.74,29.04Z"/>
    <path d="M827.82,318.38c8.83,11.1,19.36,19.08,33.03,19.08,11.67,0,17.65-6.83,17.65-15.38,0-25.06-68.62-15.66-68.62-66.06,0-25.34,21.36-44.42,51.25-44.42,21.93,0,41.86,10.54,52.11,24.49l-23.92,21.07c-7.4-9.11-16.8-16.51-27.9-16.51s-16.8,6.26-16.8,13.67c0,24.49,68.62,15.95,68.62,65.49-.57,30.18-24.77,46.7-51.82,46.7-25.63,0-43.85-10.25-57.52-26.48l23.92-21.64Z"/>
  </g>
  <g>
    <rect class="st2" x="1041.86" y="136.4" width="36.54" height="124.2"/>
    <rect class="st0" x="992.23" y="184.05" width="36.54" height="76.54"/>
    <polygon class="st1" points="942.6 297.88 945.32 297.88 979.14 260.6 979.14 161.58 942.6 161.58 942.6 297.88"/>
  </g>
</svg>