<?xml version="1.0" encoding="UTF-8"?>
<svg id="LOGO" xmlns="http://www.w3.org/2000/svg" version="1.1" viewBox="0 0 1234.61 522.29">
  <!-- Generator: Adobe Illustrator 29.1.0, SVG Export Plug-In . SVG Version: 2.1.0 Build 142)  -->
  <defs>
    <style>
      .st0 {
        fill: #3558a2;
      }

      .st1 {
        fill: #e18b76;
      }

      .st2 {
        fill: #71cfcb;
      }
    </style>
  </defs>
  <path d="M161.81,161.48h78.3c63.21,0,105.92,45.84,105.92,99.66s-42.71,99.66-105.92,99.66h-78.3v-199.32ZM202.24,198.21v125.86h38.44c37.02,0,63.78-27.62,63.78-62.93s-26.77-62.93-63.78-62.93h-38.44ZM368.25,322.08c0-21.64,16.8-37.87,47.55-43l43.85-7.4v-3.7c0-15.09-11.39-24.77-27.91-24.77-13.95,0-24.77,6.55-32.46,17.08l-26.48-20.22c12.81-17.65,33.88-28.47,60.08-28.47,41.57,0,62.93,24.77,62.93,56.38v92.83h-36.16v-13.95c-9.11,11.1-26.2,18.22-43,18.22-28.76,0-48.41-16.52-48.41-43ZM424.06,336.32c16.51,0,28.47-7.69,35.59-19.08v-20.22l-34.17,5.69c-15.09,2.56-21.36,8.83-21.36,17.65,0,9.68,7.69,15.95,19.93,15.95ZM537.1,217.29h36.16v14.24c9.4-9.68,21.64-17.08,37.87-17.08,4.84,0,9.11.85,12.53,1.99v35.59c-4.56-1.14-9.4-1.99-15.95-1.99-17.65,0-29.04,9.68-34.45,18.79v91.97h-36.16v-143.51ZM716.2,366.5c-50.97,0-79.73-35.59-79.73-77.45s26.77-77.45,73.75-77.45c39.86,0,66.06,27.05,66.06,64.64,0,7.97-1.14,15.38-2.28,20.22h-100.51c3.42,26.77,19.93,37.59,42.43,37.59,15.66,0,29.33-6.83,37.02-17.08l25.91,20.5c-13.38,17.94-35.59,29.04-62.64,29.04ZM674.63,270.25h66.06c-.57-14.52-11.11-29.04-31.32-29.04-18.51,0-30.75,10.25-34.74,29.04ZM820.99,318.38c8.83,11.1,19.36,19.08,33.03,19.08,11.67,0,17.65-6.83,17.65-15.38,0-25.06-68.62-15.66-68.62-66.06,0-25.34,21.36-44.42,51.25-44.42,21.92,0,41.86,10.54,52.11,24.49l-23.92,21.07c-7.4-9.11-16.8-16.52-27.91-16.52s-16.8,6.26-16.8,13.67c0,24.49,68.62,15.95,68.62,65.49-.57,30.18-24.77,46.7-51.82,46.7-25.63,0-43.85-10.25-57.52-26.48l23.92-21.64Z"/>
  <g>
    <rect class="st0" x="1036.26" y="136.3" width="36.54" height="124.2"/>
    <rect class="st2" x="986.63" y="183.95" width="36.54" height="76.54"/>
    <polygon class="st1" points="937 297.78 939.71 297.78 973.54 260.5 973.54 161.48 937 161.48 937 297.78"/>
  </g>
</svg>