<?xml version="1.0" encoding="UTF-8"?>
<svg id="LOGO" xmlns="http://www.w3.org/2000/svg" version="1.1" viewBox="0 0 1356.62 677.7">
  <!-- Generator: Adobe Illustrator 29.1.0, SVG Export Plug-In . SVG Version: 2.1.0 Build 142)  -->
  <defs>
    <style>
      .st0 {
        fill: #6e445a;
      }

      .st1 {
        fill: #ffe552;
      }

      .st2 {
        fill: #21ab88;
      }
    </style>
  </defs>
  <g>
    <path d="M182.81,306.14c11.96,15.38,27.9,24.49,44.13,24.49s25.63-8.54,25.63-22.78c0-36.73-90.55-26.77-90.55-94.25,0-31.61,26.2-57.8,64.35-57.8,29.9,0,52.68,13.38,69.76,33.6l-29.61,26.77c-11.67-15.09-24.77-25.06-39.86-25.06-14.24,0-23.63,9.11-23.63,21.07,0,36.16,90.55,25.91,90.55,94.25-.57,37.59-29.61,60.08-66.35,60.08-33.6,0-56.09-12.24-73.75-33.31l29.33-27.05Z"/>
    <path d="M338.85,161.49h78.3c63.21,0,105.92,45.84,105.92,99.66s-42.71,99.66-105.92,99.66h-78.3v-199.32ZM379.28,198.22v125.86h38.44c37.02,0,63.78-27.62,63.78-62.93s-26.77-62.93-63.78-62.93h-38.44Z"/>
    <path d="M627.57,366.51c-50.97,0-79.73-35.59-79.73-77.45s26.77-77.45,73.75-77.45c39.86,0,66.06,27.05,66.06,64.64,0,7.97-1.14,15.38-2.28,20.22h-100.51c3.42,26.77,19.93,37.59,42.43,37.59,15.66,0,29.33-6.83,37.02-17.08l25.91,20.5c-13.38,17.94-35.59,29.04-62.64,29.04ZM586,270.26h66.06c-.57-14.52-11.11-29.04-31.32-29.04-18.51,0-30.75,10.25-34.74,29.04Z"/>
    <path d="M732.36,318.39c8.83,11.1,19.36,19.08,33.03,19.08,11.67,0,17.65-6.83,17.65-15.38,0-25.06-68.62-15.66-68.62-66.06,0-25.34,21.36-44.42,51.25-44.42,21.93,0,41.86,10.54,52.11,24.49l-23.92,21.07c-7.4-9.11-16.8-16.51-27.91-16.51s-16.8,6.26-16.8,13.67c0,24.49,68.62,15.95,68.62,65.49-.57,30.18-24.77,46.7-51.82,46.7-25.63,0-43.85-10.25-57.52-26.48l23.92-21.64Z"/>
    <path d="M860.49,318.39c8.83,11.1,19.36,19.08,33.03,19.08,11.68,0,17.65-6.83,17.65-15.38,0-25.06-68.62-15.66-68.62-66.06,0-25.34,21.36-44.42,51.25-44.42,21.93,0,41.86,10.54,52.11,24.49l-23.92,21.07c-7.4-9.11-16.8-16.51-27.9-16.51s-16.8,6.26-16.8,13.67c0,24.49,68.62,15.95,68.62,65.49-.57,30.18-24.77,46.7-51.82,46.7-25.63,0-43.85-10.25-57.52-26.48l23.92-21.64Z"/>
    <path d="M973.82,168.61c0-12.81,10.82-23.63,23.63-23.63s23.35,10.82,23.35,23.63-10.54,23.63-23.35,23.63-23.63-10.82-23.63-23.63ZM979.23,217.3h36.16v143.51h-36.16v-143.51Z"/>
  </g>
  <rect class="st0" x="1158.27" y="136.3" width="36.54" height="124.2"/>
  <rect class="st2" x="1108.64" y="183.95" width="36.54" height="76.54"/>
  <polygon class="st1" points="1059.01 297.78 1061.73 297.78 1095.56 260.5 1095.56 161.48 1059.01 161.48 1059.01 297.78"/>
  <path d="M164.31,431.55c3.01,3.88,6.51,5.95,10.59,5.95,4.88,0,7.7-2.94,7.7-6.95,0-9.9-20.8-7.77-20.8-22.24,0-6.51,5.39-11.84,13.03-11.84,6.14,0,10.65,2.82,13.91,7.14l-4.45,3.88c-2.57-3.7-5.64-5.76-9.4-5.76-4.32,0-7.08,2.69-7.08,6.45,0,9.83,20.73,7.58,20.73,22.17,0,7.58-5.83,12.4-13.59,12.4-6.45,0-11.21-2.44-15.03-7.2l4.38-4.01ZM199.71,414.83h-5.95v-4.82h5.95v-7.89h5.39v7.89h10.96v4.82h-10.96v16.16c0,4.95,2.5,6.33,6.33,6.33,2.07,0,3.51-.25,4.7-.75v4.76c-1.5.63-3.19.88-5.45.88-7.02,0-10.96-3.51-10.96-11.21v-16.16ZM222.38,433.62c0-4.76,3.63-8.14,10.33-9.27l10.65-1.75v-2.19c0-4.38-3.13-6.89-7.64-6.89-3.63,0-6.58,1.69-8.52,4.38l-4.01-3.07c2.76-3.76,7.2-6.08,12.71-6.08,8.02,0,12.78,4.7,12.78,11.65v21.17h-5.32v-4.01c-2.38,3.07-6.51,4.89-10.59,4.89-6.2,0-10.4-3.45-10.4-8.83ZM233.66,438.07c4.2,0,7.64-2,9.71-5.39v-6.2l-9.33,1.57c-4.32.75-6.26,2.69-6.26,5.39s2.19,4.63,5.89,4.63ZM261.22,414.83h-5.95v-4.82h5.95v-7.89h5.39v7.89h10.96v4.82h-10.96v16.16c0,4.95,2.5,6.33,6.33,6.33,2.07,0,3.51-.25,4.7-.75v4.76c-1.5.63-3.19.88-5.45.88-7.02,0-10.96-3.51-10.96-11.21v-16.16ZM284.65,398.04c0-2,1.69-3.7,3.76-3.7s3.7,1.69,3.7,3.7-1.63,3.76-3.7,3.76-3.76-1.69-3.76-3.76ZM285.72,410h5.32v31.57h-5.32v-31.57ZM302.44,434.06c2.19,2.76,4.82,4.32,8.02,4.32,3.51,0,5.51-2.13,5.51-4.89,0-7.08-15.79-4.57-15.79-15.72,0-4.95,4.2-9.02,10.27-9.02,4.51,0,8.39,2.13,10.59,5.2l-3.7,3.13c-1.69-2.38-4.07-3.88-6.83-3.88-3.38,0-5.2,2-5.2,4.45,0,7.08,15.85,4.82,15.85,15.6-.06,5.89-4.76,9.58-10.65,9.58-5.01,0-8.96-2-11.84-5.58l3.76-3.19ZM331.88,414.83h-5.95v-4.82h5.95v-7.89h5.39v7.89h10.96v4.82h-10.96v16.16c0,4.95,2.5,6.33,6.33,6.33,2.07,0,3.51-.25,4.7-.75v4.76c-1.5.63-3.19.88-5.45.88-7.02,0-10.96-3.51-10.96-11.21v-16.16ZM355.31,398.04c0-2,1.69-3.7,3.76-3.7s3.7,1.69,3.7,3.7-1.63,3.76-3.7,3.76-3.76-1.69-3.76-3.76ZM356.38,410h5.32v31.57h-5.32v-31.57ZM386.51,408.75c4.7,0,8.39,1.82,11.21,5.07v-3.82h5.32v46.98h-5.32v-19.23c-2.82,3.26-6.51,5.07-11.21,5.07-9.9,0-16.22-7.83-16.22-17.04s6.33-17.04,16.22-17.04ZM387.07,437.82c4.45,0,8.27-2.13,10.65-5.89v-12.28c-2.44-3.82-6.26-5.89-10.65-5.89-6.64,0-11.21,5.32-11.21,12.03s4.57,12.03,11.21,12.03ZM436.31,410h5.32v17.85c0,9.46-5.45,14.97-14.03,14.97s-13.97-5.51-13.97-14.97v-17.85h5.32v18.04c0,6.2,3.32,9.77,8.71,9.77s8.64-3.57,8.64-9.77v-18.04ZM466.69,442.83c-10.65,0-17.23-7.83-17.23-17.04s6.14-17.04,15.91-17.04c8.58,0,14.16,6.01,14.16,13.78,0,1.25-.19,2.44-.38,3.32h-24.24c.19,7.58,5.01,12.15,11.78,12.15,4.07,0,7.52-1.88,9.58-4.7l3.95,3.07c-2.94,3.95-7.64,6.45-13.53,6.45ZM455.29,421.78h18.92c-.19-4.64-3.38-8.52-8.96-8.52-5.2,0-8.83,3.07-9.96,8.52ZM505.47,410h5.32v3.76c2.82-3.2,6.51-5.01,11.21-5.01,9.9,0,16.22,7.83,16.22,17.04s-6.33,17.04-16.22,17.04c-4.7,0-8.39-1.82-11.21-5.01v19.17h-5.32v-46.98ZM510.79,419.65v12.28c2.44,3.82,6.26,5.89,10.59,5.89,6.7,0,11.27-5.32,11.27-12.03s-4.57-12.03-11.27-12.03c-4.38,0-8.21,2.13-10.59,5.89ZM568.8,410h5.32v17.85c0,9.46-5.45,14.97-14.03,14.97s-13.97-5.51-13.97-14.97v-17.85h5.32v18.04c0,6.2,3.32,9.77,8.71,9.77s8.64-3.57,8.64-9.77v-18.04ZM601.18,442.83c-4.7,0-8.39-1.82-11.21-5.01v3.76h-5.32v-46.98h5.32v19.17c2.82-3.2,6.51-5.01,11.21-5.01,9.9,0,16.22,7.83,16.22,17.04s-6.33,17.04-16.22,17.04ZM589.97,419.59v12.4c2.44,3.76,6.26,5.83,10.58,5.83,6.7,0,11.28-5.32,11.28-12.03s-4.57-12.03-11.28-12.03c-4.38,0-8.27,2.13-10.58,5.83ZM626.05,394.6h5.32v46.98h-5.32v-46.98ZM641.59,398.04c0-2,1.69-3.7,3.76-3.7s3.7,1.69,3.7,3.7-1.63,3.76-3.7,3.76-3.76-1.69-3.76-3.76ZM642.65,410h5.32v31.57h-5.32v-31.57ZM672.78,408.75c4.7,0,8.39,1.82,11.21,5.07v-3.82h5.32v46.98h-5.32v-19.23c-2.82,3.26-6.51,5.07-11.21,5.07-9.9,0-16.22-7.83-16.22-17.04s6.33-17.04,16.22-17.04ZM673.35,437.82c4.45,0,8.27-2.13,10.65-5.89v-12.28c-2.44-3.82-6.26-5.89-10.65-5.89-6.64,0-11.21,5.32-11.21,12.03s4.57,12.03,11.21,12.03ZM722.58,410h5.32v17.85c0,9.46-5.45,14.97-14.03,14.97s-13.97-5.51-13.97-14.97v-17.85h5.32v18.04c0,6.2,3.32,9.77,8.71,9.77s8.64-3.57,8.64-9.77v-18.04ZM752.97,442.83c-10.65,0-17.22-7.83-17.22-17.04s6.14-17.04,15.91-17.04c8.58,0,14.16,6.01,14.16,13.78,0,1.25-.19,2.44-.38,3.32h-24.24c.19,7.58,5.01,12.15,11.78,12.15,4.07,0,7.52-1.88,9.58-4.7l3.95,3.07c-2.94,3.95-7.64,6.45-13.53,6.45ZM741.57,421.78h18.92c-.19-4.64-3.38-8.52-8.96-8.52-5.2,0-8.83,3.07-9.96,8.52ZM175.46,483.92c4.7,0,8.39,1.82,11.21,5.01v-19.17h5.32v46.98h-5.32v-3.76c-2.82,3.19-6.51,5.01-11.21,5.01-9.9,0-16.22-7.83-16.22-17.04s6.33-17.04,16.22-17.04ZM176.09,512.99c4.38,0,8.27-2.13,10.59-5.83v-12.4c-2.44-3.76-6.26-5.83-10.59-5.83-6.7,0-11.21,5.32-11.21,12.03s4.51,12.03,11.21,12.03ZM217.75,518c-10.65,0-17.23-7.83-17.23-17.04s6.14-17.04,15.91-17.04c8.58,0,14.16,6.01,14.16,13.78,0,1.25-.19,2.44-.38,3.32h-24.24c.19,7.58,5.01,12.15,11.78,12.15,4.07,0,7.52-1.88,9.58-4.7l3.95,3.07c-2.94,3.95-7.64,6.45-13.53,6.45ZM206.34,496.95h18.92c-.19-4.64-3.38-8.52-8.96-8.52-5.2,0-8.83,3.07-9.96,8.52ZM256.52,469.77h5.32v46.98h-5.32v-46.98ZM271.31,508.79c0-4.76,3.63-8.14,10.33-9.27l10.65-1.75v-2.19c0-4.38-3.13-6.89-7.64-6.89-3.63,0-6.58,1.69-8.52,4.38l-4.01-3.07c2.76-3.76,7.2-6.08,12.71-6.08,8.02,0,12.78,4.7,12.78,11.65v21.17h-5.32v-4.01c-2.38,3.07-6.51,4.89-10.59,4.89-6.2,0-10.4-3.45-10.4-8.83ZM282.58,513.24c4.2,0,7.64-2,9.71-5.39v-6.2l-9.33,1.57c-4.32.75-6.26,2.69-6.26,5.39s2.19,4.63,5.89,4.63ZM326.56,472.9h23.55v5.01h-17.66v14.03h15.16v4.95h-15.16v19.86h-5.89v-43.85ZM388.13,500.96c0,9.21-6.95,17.04-17.1,17.04s-17.1-7.83-17.1-17.04,6.89-17.04,17.1-17.04,17.1,7.83,17.1,17.04ZM382.5,500.96c0-6.58-4.82-12.03-11.4-12.03s-11.59,5.45-11.59,12.03,4.82,12.03,11.59,12.03,11.4-5.51,11.4-12.03ZM396.72,485.18h5.32v3.57c2.57-2.82,5.83-4.82,10.52-4.82,7.08,0,12.34,4.76,12.34,13.72v19.1h-5.32v-18.92c0-5.64-3.19-8.89-8.08-8.89-4.57,0-7.45,2.63-9.46,5.95v21.86h-5.32v-31.57ZM459.17,508.35l4.2,3.19c-2.94,3.95-7.52,6.45-13.28,6.45-10.46,0-17.16-7.83-17.16-17.04s6.7-17.04,17.16-17.04c5.7,0,10.33,2.57,13.28,6.45l-4.2,3.19c-1.94-2.76-5.14-4.63-9.08-4.63-6.76,0-11.59,5.32-11.59,12.03s4.82,12.03,11.65,12.03c3.88,0,7.08-1.88,9.02-4.64ZM472.39,490h-5.95v-4.82h5.95v-7.89h5.39v7.89h10.96v4.82h-10.96v16.16c0,4.95,2.5,6.33,6.33,6.33,2.07,0,3.51-.25,4.7-.75v4.76c-1.5.63-3.19.88-5.45.88-7.02,0-10.96-3.51-10.96-11.21v-16.16ZM495.82,473.21c0-2,1.69-3.7,3.76-3.7s3.7,1.69,3.7,3.7-1.63,3.76-3.7,3.76-3.76-1.69-3.76-3.76ZM496.88,485.18h5.32v31.57h-5.32v-31.57ZM544.99,500.96c0,9.21-6.95,17.04-17.1,17.04s-17.1-7.83-17.1-17.04,6.89-17.04,17.1-17.04,17.1,7.83,17.1,17.04ZM539.35,500.96c0-6.58-4.82-12.03-11.4-12.03s-11.59,5.45-11.59,12.03,4.82,12.03,11.59,12.03,11.4-5.51,11.4-12.03ZM553.58,485.18h5.32v3.57c2.57-2.82,5.83-4.82,10.52-4.82,7.08,0,12.34,4.76,12.34,13.72v19.1h-5.32v-18.92c0-5.64-3.19-8.89-8.08-8.89-4.57,0-7.45,2.63-9.46,5.95v21.86h-5.32v-31.57ZM609.39,485.18h5.32v3.76c2.82-3.2,6.51-5.01,11.21-5.01,9.9,0,16.22,7.83,16.22,17.04s-6.33,17.04-16.22,17.04c-4.7,0-8.39-1.82-11.21-5.01v19.17h-5.32v-46.98ZM614.71,494.82v12.28c2.44,3.82,6.26,5.89,10.58,5.89,6.7,0,11.28-5.32,11.28-12.03s-4.57-12.03-11.28-12.03c-4.38,0-8.21,2.13-10.58,5.89ZM672.72,485.18h5.32v17.85c0,9.46-5.45,14.97-14.03,14.97s-13.97-5.51-13.97-14.97v-17.85h5.32v18.04c0,6.2,3.32,9.77,8.71,9.77s8.64-3.57,8.64-9.77v-18.04ZM705.11,518c-4.7,0-8.39-1.82-11.21-5.01v3.76h-5.32v-46.98h5.32v19.17c2.82-3.2,6.51-5.01,11.21-5.01,9.9,0,16.22,7.83,16.22,17.04s-6.33,17.04-16.22,17.04ZM693.89,494.76v12.4c2.44,3.76,6.26,5.83,10.58,5.83,6.7,0,11.28-5.32,11.28-12.03s-4.57-12.03-11.28-12.03c-4.38,0-8.27,2.13-10.58,5.83ZM729.98,469.77h5.32v46.98h-5.32v-46.98ZM745.51,473.21c0-2,1.69-3.7,3.76-3.7s3.7,1.69,3.7,3.7-1.63,3.76-3.7,3.76-3.76-1.69-3.76-3.76ZM746.58,485.18h5.32v31.57h-5.32v-31.57ZM776.71,483.92c4.7,0,8.39,1.82,11.21,5.07v-3.82h5.32v46.98h-5.32v-19.23c-2.82,3.26-6.51,5.07-11.21,5.07-9.9,0-16.22-7.83-16.22-17.04s6.33-17.04,16.22-17.04ZM777.27,512.99c4.45,0,8.27-2.13,10.65-5.89v-12.28c-2.44-3.82-6.26-5.89-10.65-5.89-6.64,0-11.21,5.32-11.21,12.03s4.57,12.03,11.21,12.03ZM826.51,485.18h5.32v17.85c0,9.46-5.45,14.97-14.03,14.97s-13.97-5.51-13.97-14.97v-17.85h5.32v18.04c0,6.2,3.32,9.77,8.71,9.77s8.64-3.57,8.64-9.77v-18.04ZM856.89,518c-10.65,0-17.22-7.83-17.22-17.04s6.14-17.04,15.91-17.04c8.58,0,14.16,6.01,14.16,13.78,0,1.25-.19,2.44-.38,3.32h-24.24c.19,7.58,5.01,12.15,11.78,12.15,4.07,0,7.52-1.88,9.58-4.7l3.95,3.07c-2.94,3.95-7.64,6.45-13.53,6.45ZM845.49,496.95h18.92c-.19-4.64-3.38-8.52-8.96-8.52-5.2,0-8.83,3.07-9.96,8.52Z"/>
</svg>