<?xml version="1.0" encoding="UTF-8"?>
<svg id="LOGO" xmlns="http://www.w3.org/2000/svg" version="1.1" viewBox="0 0 997.19 521.75">
  <!-- Generator: Adobe Illustrator 29.1.0, SVG Export Plug-In . SVG Version: 2.1.0 Build 142)  -->
  <defs>
    <style>
      .st0 {
        fill: #34bab5;
      }

      .st1 {
        fill: #2b7758;
      }

      .st2 {
        fill: #009081;
      }
    </style>
  </defs>
  <g>
    <path d="M182.7,305.59c11.96,15.38,27.91,24.49,44.14,24.49s25.63-8.54,25.63-22.78c0-36.73-90.55-26.77-90.55-94.25,0-31.61,26.2-57.8,64.35-57.8,29.9,0,52.68,13.38,69.76,33.6l-29.61,26.77c-11.67-15.09-24.77-25.06-39.86-25.06-14.24,0-23.63,9.11-23.63,21.07,0,36.16,90.55,25.91,90.55,94.25-.57,37.59-29.61,60.08-66.35,60.08-33.6,0-56.09-12.24-73.75-33.32l29.33-27.05Z"/>
    <path d="M325.64,168.06c0-12.81,10.82-23.63,23.63-23.63s23.35,10.82,23.35,23.63-10.54,23.63-23.35,23.63-23.63-10.82-23.63-23.63ZM331.05,216.75h36.16v143.51h-36.16v-143.51Z"/>
    <path d="M479.97,365.96c-50.97,0-79.73-35.59-79.73-77.45s26.77-77.45,73.75-77.45c39.86,0,66.06,27.05,66.06,64.64,0,7.97-1.14,15.38-2.28,20.22h-100.51c3.42,26.77,19.93,37.59,42.43,37.59,15.66,0,29.33-6.83,37.02-17.08l25.91,20.5c-13.38,17.94-35.59,29.04-62.64,29.04ZM438.39,269.71h66.06c-.57-14.52-11.1-29.04-31.32-29.04-18.51,0-30.75,10.25-34.74,29.04Z"/>
    <path d="M584.75,317.83c8.83,11.1,19.36,19.08,33.03,19.08,11.67,0,17.65-6.83,17.65-15.38,0-25.06-68.62-15.66-68.62-66.06,0-25.34,21.36-44.42,51.25-44.42,21.93,0,41.86,10.54,52.11,24.49l-23.92,21.07c-7.4-9.11-16.8-16.52-27.9-16.52s-16.8,6.26-16.8,13.67c0,24.49,68.62,15.95,68.62,65.49-.57,30.18-24.77,46.7-51.82,46.7-25.63,0-43.85-10.25-57.52-26.48l23.92-21.64Z"/>
  </g>
  <g>
    <rect class="st1" x="798.83" y="136.3" width="36.54" height="124.2"/>
    <rect class="st0" x="749.2" y="183.95" width="36.54" height="76.54"/>
    <polygon class="st2" points="699.57 297.78 702.29 297.78 736.12 260.5 736.12 161.48 699.57 161.48 699.57 297.78"/>
  </g>
</svg>