<?xml version="1.0" encoding="UTF-8"?>
<svg id="LOGO" xmlns="http://www.w3.org/2000/svg" version="1.1" viewBox="0 0 1524.05 539.56">
  <!-- Generator: Adobe Illustrator 29.1.0, SVG Export Plug-In . SVG Version: 2.1.0 Build 142)  -->
  <defs>
    <style>
      .st0 {
        fill: #46724b;
      }

      .st1 {
        fill: #99c221;
      }

      .st2 {
        fill: #ffca00;
      }
    </style>
  </defs>
  <g>
    <path d="M229.23,161.4h52.96l75.46,199.32h-43l-19.08-51.82h-79.73l-19.08,51.82h-43l75.46-199.32ZM283.05,274.44l-27.33-74.89-27.34,74.89h54.67Z"/>
    <path d="M389.25,350.75c-5.7-5.7-8.83-13.38-8.83-20.79,0-11.39,4.84-20.5,15.66-28.47-12.53-9.4-19.36-23.63-19.36-39.58,0-27.91,21.64-50.4,57.52-50.4,11.11,0,20.79,1.99,29.04,5.7h52.39v30.75h-25.34c1.42,4.56,1.99,9.11,1.99,13.95,0,28.19-21.07,50.97-58.09,50.97-4.84,0-9.4-.29-13.67-1.14-3.13,2.85-4.84,5.98-4.84,9.11,0,5.7,3.13,8.54,9.68,8.54h36.16c36.16,0,55.81,19.36,55.81,46.13,0,31.89-30.47,56.38-75.17,56.38s-72.89-15.95-72.89-46.13c0-14.24,7.12-25.63,19.93-35.02ZM441.93,402.86c26.2,0,39.58-9.68,39.58-23.92,0-10.82-6.55-18.51-23.92-18.51h-44.42c-5.41,5.12-9.68,11.39-9.68,20.22,0,13.67,13.1,22.21,38.44,22.21ZM459.58,261.91c0-14.24-9.68-23.35-24.77-23.35s-25.06,9.4-25.06,23.35,9.4,23.63,25.06,23.63,24.77-9.4,24.77-23.63Z"/>
    <path d="M542.44,217.21h36.16v14.24c9.4-9.68,21.64-17.08,37.87-17.08,4.84,0,9.11.85,12.53,1.99v35.59c-4.56-1.14-9.4-1.99-15.95-1.99-17.65,0-29.04,9.68-34.45,18.79v91.97h-36.16v-143.51Z"/>
    <path d="M721.55,366.41c-50.97,0-79.73-35.59-79.73-77.45s26.77-77.45,73.75-77.45c39.86,0,66.06,27.05,66.06,64.64,0,7.97-1.14,15.38-2.28,20.22h-100.51c3.42,26.77,19.93,37.59,42.43,37.59,15.66,0,29.33-6.83,37.02-17.08l25.91,20.5c-13.38,17.94-35.59,29.04-62.64,29.04ZM679.97,270.17h66.06c-.57-14.52-11.11-29.04-31.32-29.04-18.51,0-30.75,10.25-34.74,29.04Z"/>
    <path d="M826.33,318.29c8.83,11.11,19.36,19.08,33.03,19.08,11.67,0,17.65-6.83,17.65-15.38,0-25.06-68.62-15.66-68.62-66.06,0-25.34,21.36-44.42,51.25-44.42,21.93,0,41.86,10.54,52.11,24.49l-23.92,21.07c-7.4-9.11-16.8-16.51-27.91-16.51s-16.8,6.26-16.8,13.67c0,24.49,68.62,15.95,68.62,65.49-.57,30.18-24.77,46.7-51.82,46.7-25.63,0-43.85-10.25-57.52-26.48l23.92-21.64Z"/>
    <path d="M956.46,249.67h-26.77v-32.46h26.77v-35.88h36.45v35.88h43.85v32.46h-43.85v58.66c0,15.95,8.54,22.21,22.78,22.21,9.97,0,16.52-1.14,21.36-3.13v31.61c-7.12,3.13-15.66,4.56-27.62,4.56-35.88,0-52.96-20.22-52.96-55.24v-58.66Z"/>
    <path d="M1135.84,366.41c-50.97,0-79.73-35.59-79.73-77.45s26.77-77.45,73.75-77.45c39.87,0,66.06,27.05,66.06,64.64,0,7.97-1.14,15.38-2.28,20.22h-100.51c3.42,26.77,19.93,37.59,42.43,37.59,15.66,0,29.33-6.83,37.02-17.08l25.91,20.5c-13.38,17.94-35.59,29.04-62.64,29.04ZM1094.27,270.17h66.06c-.57-14.52-11.11-29.04-31.32-29.04-18.51,0-30.75,10.25-34.74,29.04Z"/>
  </g>
  <g>
    <rect class="st0" x="1325.7" y="136.3" width="36.54" height="124.2"/>
    <rect class="st2" x="1276.07" y="183.95" width="36.54" height="76.54"/>
    <polygon class="st1" points="1226.44 297.78 1229.16 297.78 1262.99 260.5 1262.99 161.48 1226.44 161.48 1226.44 297.78"/>
  </g>
</svg>