<?xml version="1.0" encoding="UTF-8"?>
<svg id="LOGO" xmlns="http://www.w3.org/2000/svg" version="1.1" viewBox="0 0 1184.35 543.77">
  <!-- Generator: Adobe Illustrator 29.1.0, SVG Export Plug-In . SVG Version: 2.1.0 Build 142)  -->
  <defs>
    <style>
      .st0 {
        fill: #000091;
      }

      .st1 {
        fill: #465f9d;
      }

      .st2 {
        fill: #869ece;
      }
    </style>
  </defs>
  <g>
    <path d="M226.6,216.86c19.36,0,33.32,5.98,44.42,17.08v-72.46h36.45v204.59h-36.45v-11.39c-11.1,11.1-25.06,17.08-44.42,17.08-45.27,0-72.89-35.59-72.89-77.45s27.62-77.45,72.89-77.45ZM231.73,337.59c16.23,0,29.61-6.83,39.29-19.93v-46.7c-9.68-13.1-23.06-19.93-39.29-19.93-24.49,0-40.15,18.22-40.15,43.28s15.66,43.28,40.15,43.28Z"/>
    <path d="M420.22,371.76c-50.97,0-79.73-35.59-79.73-77.45s26.77-77.45,73.75-77.45c39.86,0,66.06,27.05,66.06,64.64,0,7.97-1.14,15.38-2.28,20.22h-100.51c3.42,26.77,19.93,37.59,42.43,37.59,15.66,0,29.33-6.83,37.02-17.08l25.91,20.5c-13.38,17.94-35.59,29.04-62.64,29.04ZM378.65,275.52h66.06c-.57-14.52-11.1-29.04-31.32-29.04-18.51,0-30.75,10.25-34.74,29.04Z"/>
    <path d="M515.61,222.56h36.16v11.68c11.1-11.11,25.06-17.37,44.7-17.37,45.56,0,72.89,35.59,72.89,77.45s-27.34,77.45-72.89,77.45c-19.65,0-33.6-6.26-44.7-17.37v81.72h-36.16v-213.56ZM551.77,271.82v44.99c9.68,13.67,23.06,20.79,39.58,20.79,24.49,0,40.43-18.22,40.43-43.28s-15.95-43.28-40.43-43.28c-16.8,0-30.47,7.4-39.58,20.79Z"/>
    <path d="M702.4,222.56h36.16v11.68c11.1-11.11,25.06-17.37,44.7-17.37,45.56,0,72.89,35.59,72.89,77.45s-27.34,77.45-72.89,77.45c-19.65,0-33.6-6.26-44.7-17.37v81.72h-36.16v-213.56ZM738.56,271.82v44.99c9.68,13.67,23.06,20.79,39.58,20.79,24.49,0,40.43-18.22,40.43-43.28s-15.95-43.28-40.43-43.28c-16.8,0-30.47,7.4-39.58,20.79Z"/>
  </g>
  <g>
    <rect class="st2" x="986" y="136.3" width="36.54" height="124.2"/>
    <rect class="st1" x="936.37" y="183.95" width="36.54" height="76.54"/>
    <polygon class="st0" points="886.74 297.78 889.46 297.78 923.28 260.5 923.28 161.48 886.74 161.48 886.74 297.78"/>
  </g>
</svg>